<?xml version="1.0" encoding="UTF-8"?>
<svg width="1200pt" height="1200pt" version="1.1" viewBox="0 0 1200 1200" xmlns="http://www.w3.org/2000/svg">
 <path d="m175.2 841.2c4.8008 7.1992 13.199 7.1992 21.602 9.6016 14.398 3.6016 28.801 7.1992 43.199 12 4.8008 1.1992 8.3984 7.1992 13.199 10.801 6 3.6016 3.6016 8.3984 2.3984 13.199-1.1992 3.6016 1.1992 8.3984 2.3984 10.801 13.199 22.801 22.801 45.602 31.199 72 14.398-19.199 22.801-40.801 30-61.199 6-15.602 15.602-30 18-45.602 1.1992-4.8008 6-7.1992 9.6016-6 12 6 21.602-2.3984 31.199-3.6016 22.801-2.3984 44.398-10.801 67.199-10.801 3.6016 0 6-2.3984 8.3984-2.3984 3.6016 0 9.6016-2.3984 9.6016 3.6016 1.1992 6-3.6016 8.3984-9.6016 9.6016-10.801 1.1992-20.398 1.1992-31.199 2.3984-16.801 3.6016-32.398 3.6016-48 12-3.6016 2.3984-6 0-9.6016 0-22.801 1.1992-26.398 19.199-32.398 36-7.1992 20.398-16.801 40.801-27.602 60-3.6016 6-4.8008 14.398-7.1992 21.602-2.3984 7.1992-6 16.801-13.199 16.801-9.6016 0-7.1992-12-8.3984-18-3.6016-15.602-6-31.199-12-46.801-2.3984-6-7.1992-12-9.6016-19.199-4.8008-10.801-10.801-21.602-15.602-33.602-3.6016-8.3984-9.6016-12-16.801-14.398-26.398-7.1992-52.801-14.398-79.199-18-9.6016-1.1992-14.398-9.6016-19.199-15.602-1.1992-1.1992 0-6 0-6 8.3984-3.6016 13.199-14.398 22.801-16.801 14.398-4.8008 26.398-13.199 38.398-22.801 6-4.8008 12-10.801 20.398-12 6 0 6-3.6016 4.8008-7.1992-4.8008-28.801-8.3984-58.801-12-88.801 0-4.8008-2.3984-9.6016-3.6016-14.398-1.1992-3.6016-1.1992-7.1992 2.3984-9.6016 3.6016-2.3984 7.1992-1.1992 9.6016 2.3984 12 13.199 27.602 20.398 43.199 28.801 8.3984 4.8008 16.801 8.3984 24 14.398 10.801 8.3984 22.801 10.801 33.602 19.199 1.1992 1.1992 2.3984 2.3984 3.6016 0 9.6016-14.398 25.199-18 37.199-27.602 8.3984-6 15.602-13.199 24-19.199 8.3984-6 15.602-7.1992 25.199-7.1992 10.801 0 14.398 2.3984 12 13.199-3.6016 13.199-9.6016 26.398-10.801 40.801-1.1992 13.199-6 26.398-10.801 39.602-4.8008 14.398 2.3984 18 10.801 24 19.199 14.398 40.801 21.602 62.398 32.398 7.1992 3.6016 13.199 9.6016 20.398 13.199 4.8008 3.6016 1.1992 7.1992 0 9.6016 0 3.6016-4.8008 3.6016-7.1992 1.1992-16.801-16.801-42-21.602-62.398-33.602-12-7.1992-22.801-15.602-34.801-21.602-8.3984-4.8008-8.3984-9.6016-6-18 6-22.801 13.199-45.602 15.602-69.602 0-6 6-10.801 2.3984-16.801-6 4.8008-14.398 4.8008-18 14.398 0 1.1992-8.3984 6-13.199 8.3984-15.602 6-27.602 16.801-39.602 25.199-10.801 8.3984-13.199 4.8008-21.602 0-26.398-13.199-49.199-30-75.602-43.199-2.3984-1.1992-4.8008-4.8008-8.3984-2.3984-4.8008 2.3984 0 4.8008 0 8.3984 0 27.602 6 54 9.6016 81.602 1.1992 7.1992-2.3984 12-9.6016 14.398-8.3984 3.6016-16.801 8.3984-24 15.602-4.8008 4.8008-10.801 1.1992-15.602 4.8008-8.3984 7.1992-18 13.199-27.602 19.199-1.1992 1.1992-3.6016 4.8008-1.1992 4.8008 12.016 0.007813 19.215 14.41 31.215 6.0078z"/>
 <path d="m776.4 424.8c0 4.8008-1.1992 6-7.1992 6-24 1.1992-48 6-68.398 19.199-4.8008 3.6016-14.398 0-16.801 6-2.3984 9.6016-1.1992 20.398 1.1992 31.199 6 19.199 8.3984 38.398 15.602 57.602 2.3984 4.8008 1.1992 10.801 2.3984 16.801 0 7.1992-7.1992 9.6016-13.199 12-4.8008 3.6016-6-2.3984-8.3984-4.8008-26.398-24-51.602-48-76.801-73.199-6-4.8008-10.801-7.1992-19.199-6-25.199 3.6016-50.398 8.3984-74.398 13.199-16.801 3.6016-33.602 9.6016-49.199 14.398-3.6016 1.1992-6 3.6016-9.6016 0-3.6016-3.6016-1.1992-7.1992 1.1992-10.801 21.602-32.398 34.801-68.398 57.602-100.8 4.8008-6 6-13.199 2.3984-21.602-8.3984-24-16.801-49.199-25.199-73.199-1.1992-1.1992-1.1992-3.6016-2.3984-4.8008-4.8008-4.8008-6-12-3.6016-14.398 4.8008-3.6016 12-6 19.199-1.1992 10.801 7.1992 22.801 10.801 36 13.199 13.199 2.3984 22.801 10.801 34.801 15.602 6 2.3984 9.6016 3.6016 14.398-1.1992 18-15.602 34.801-30 52.801-44.398 8.3984-6 15.602-12 24-18 6-3.6016 12-7.1992 15.602-14.398 1.1992-3.6016 6-7.1992 10.801-4.8008 4.8008 2.3984 2.3984 6 1.1992 10.801-7.1992 31.199-12 62.398-12 94.801 0 8.3984 2.3984 12 9.6016 15.602 25.199 12 46.801 30 69.602 46.801 3.6016 2.3984 7.1992 4.8008 10.801 7.1992 4.793 4.793 7.1914 8.3945 7.1914 13.195zm-301.2 75.598c8.3984 0 14.398-7.1992 21.602-7.1992 20.398 1.1992 38.398-12 58.801-10.801 13.199 0 24-7.1992 36-7.1992 4.8008 0 9.6016-2.3984 14.398 2.3984 24 24 48 48 72 70.801 1.1992 1.1992 3.6016 3.6016 4.8008 4.8008s4.8008 2.3984 3.6016-3.6016c-2.3984-15.602-2.3984-31.199-7.1992-46.801-1.1992-6-8.3984-10.801-7.1992-16.801 4.8008-10.801-3.6016-20.398-3.6016-30 0-7.1992 1.1992-13.199 9.6016-14.398 2.3984 0 6 0 7.1992-1.1992 19.199-9.6016 38.398-18 60-19.199 4.8008 0 6-3.6016 3.6016-6-20.398-20.398-44.398-34.801-70.801-45.602-8.3984-3.6016-12-4.8008-9.6016-13.199 2.3984-9.6016 2.3984-18 2.3984-27.602 0-24 2.3984-46.801 7.1992-70.801-15.602 9.6016-27.602 22.801-40.801 34.801-9.6016 8.3984-20.398 15.602-27.602 26.398-3.6016 4.8008-7.1992 12-14.398 15.602-14.398 6-26.398 7.1992-37.199-4.8008-2.3984-2.3984-6-3.6016-9.6016-6-2.3984-1.1992-4.8008-2.3984-6 0-1.1992 1.1992 2.3984 4.8008-1.1992 4.8008-1.1992 0-3.6016-2.3984-6-3.6016-7.1992-3.6016-14.398-7.1992-21.602-9.6016-4.8008-1.1992-9.6016-3.6016-8.3984 6 3.6016 20.398 10.801 39.602 19.199 58.801 3.6016 7.1992 8.3984 16.801 2.3984 24-13.199 16.801-22.801 34.801-32.398 52.801-7.1992 14.406-18 26.406-19.199 43.203z"/>
 <path d="m1050 903.6c-13.199-3.6016-27.602 0-42-1.1992-10.801-1.1992-21.602-2.3984-32.398-4.8008-6-1.1992-14.398-3.6016-14.398 8.3984-2.3984 27.602-15.602 52.801-18 80.398 0 3.6016-2.3984 8.3984-7.1992 9.6016-4.8008 1.1992-4.8008-4.8008-7.1992-7.1992-9.6016-16.801-18-34.801-27.602-51.602-6-13.199-10.801-27.602-16.801-40.801-6-13.199-15.602-19.199-31.199-20.398-24-2.3984-49.199-2.3984-73.199-8.3984-4.8008-1.1992-9.6016 0-14.398 0-3.6016 0-6-2.3984-7.1992-4.8008-1.1992-3.6016 2.3984-6 3.6016-7.1992 22.801-18 45.602-34.801 69.602-51.602 7.1992-4.8008 8.3984-13.199 7.1992-20.398-1.1992-16.801-3.6016-33.602-6-50.398 0-3.6016-1.1992-8.3984-2.3984-12 0-3.6016-6-7.1992 0-9.6016 4.8008-2.3984 9.6016-3.6016 13.199 1.1992 18 18 39.602 31.199 58.801 46.801 3.6016 3.6016 7.1992 2.3984 12 1.1992 18-8.3984 37.199-13.199 55.199-22.801 13.199-7.1992 30-8.3984 43.199-16.801 6-3.6016 8.3984 6 13.199 6 0 3.6016-2.3984 7.1992-7.1992 7.1992 3.6016 9.6016-7.1992 7.1992-9.6016 12-9.6016 20.398-19.199 40.801-30 61.199-2.3984 6-1.1992 8.3984 2.3984 12 22.801 18 42 39.602 66 54 7.1992 4.8008 9.6016 12 14.398 19.199 5.9961 3.6016-3.6055 12.004-12.004 10.805zm-204-174c-1.1992 22.801 0 43.199 3.6016 63.602 1.1992 6 2.3984 12-6 16.801-19.199 12-37.199 26.398-55.199 39.602-1.1992 1.1992-6 2.3984-3.6016 6 1.1992 2.3984 3.6016 3.6016 7.1992 3.6016 9.6016 0 18 0 27.602 1.1992 15.602 3.6016 32.398 4.8008 48 4.8008 15.602 0 24 6 27.602 20.398 8.3984 26.398 19.199 50.398 32.398 74.398 2.3984 3.6016 2.3984 7.1992 6 7.1992 4.8008-14.398 9.6016-27.602 12-40.801 2.3984-12 8.3984-24 4.8008-38.398-1.1992-6 6-9.6016 8.3984-8.3984 14.398 4.8008 28.801 3.6016 43.199 7.1992 15.602 4.8008 30 2.3984 45.602 2.3984-8.3984-8.3984-14.398-18-22.801-25.199-15.602-13.199-31.199-24-46.801-37.199-12-9.6016-12-13.199-6-27.602 3.6016-8.3984 8.3984-15.602 12-24 4.8008-12 15.602-21.602 14.398-36-6 1.1992-12 2.3984-16.801 4.8008-20.398 9.6016-40.801 18-61.199 25.199-10.801 3.6016-20.398 1.1992-28.801-8.3984-14.398-10.805-28.797-22.805-45.598-31.203z"/>
 <path d="m176.4 841.2c-6-14.398 6-15.602 13.199-20.398l36-18c3.6016-2.3984 8.3984-4.8008 10.801-1.1992 2.3984 4.8008 1.1992 9.6016-4.8008 12-7.1992 3.6016-15.602 4.8008-22.801 12 9.6016 1.1992 19.199 2.3984 27.602 3.6016 4.8008 0 8.3984 1.1992 10.801 6 2.3984 3.6016 1.1992 7.1992-3.6016 7.1992-14.398-2.3984-28.801 0-43.199-4.8008-8.3984-2.4023-16.797 4.7969-24 3.5977-1.1992 0 0 0 0 0z"/>
 <path d="m288 900c3.6016-8.3984 6-19.199 18-20.398 2.3984 0 4.8008 0 7.1992 2.3984 2.3984 3.6016 0 4.8008-2.3984 7.1992-9.6016 8.3984-13.199 20.398-18 31.199-2.3984 4.8008-3.6016 10.801-9.6016 10.801-4.8008 0-6-6-7.1992-10.801-3.6016-16.801-7.1992-32.398-12-49.199 0-2.3984 0-4.8008-1.1992-6-4.8008-3.6016-3.6016-7.1992 1.1992-8.3984 4.8008-2.3984 8.3984 0 9.6016 4.8008 3.6016 12 7.1992 22.801 9.6016 34.801 2.3984-1.2031 2.3984 1.1992 4.7969 3.5977z"/>
 <path d="m253.2 750c-6 13.199-1.1992 26.398-3.6016 38.398 0 2.3984 0 4.8008-3.6016 4.8008-2.3984 0-4.8008-1.1992-4.8008-3.6016-1.1992-4.8008-3.6016-8.3984-2.3984-13.199 1.1992-15.602 0-30-2.3984-44.398-1.1992-3.6016 1.1992-7.1992 3.6016-7.1992 3.6016 0 7.1992-2.3984 9.6016 2.3984 8.3984 10.801 18 20.398 30 27.602 1.1992 1.1992 3.6016 2.3984 3.6016 3.6016 2.3984 3.6016 7.1992 8.3984 2.3984 13.199-4.8008 3.6016-9.6016-1.1992-10.801-4.8008-4.8008-8.4023-13.199-10.801-21.602-16.801z"/>
 <path d="m410.4 415.2c-9.6016 2.3984-19.199-1.1992-27.602 0-15.602 2.3984-20.398-9.6016-30-16.801-2.3984-2.3984-2.3984-6 0-8.3984s3.6016-4.8008 7.1992-2.3984c15.602 9.6016 33.602 9.6016 51.602 13.199 4.8008 1.1992 9.6016-2.3984 14.398-1.1992 3.6016 1.1992 6 1.1992 7.1992 4.8008 1.1992 3.6016-1.1992 6-4.8008 7.1992-4.793 4.7969-11.996 1.1992-17.996 3.5977z"/>
 <path d="m754.8 346.8c-6-4.8008-6-9.6016 0-15.602 8.3984-9.6016 16.801-19.199 25.199-30 9.6016-12 21.602-21.602 37.199-25.199 2.3984-1.1992 8.3984-2.3984 8.3984 3.6016 0 4.8008 2.3984 8.3984-6 10.801-14.398 2.3984-25.199 13.199-34.801 24-9.5977 10.797-17.996 23.996-29.996 32.398z"/>
 <path d="m352.8 742.8c-8.3984 0-12 6-19.199 8.3984-4.8008 1.1992-7.1992-1.1992-9.6016-3.6016-2.3984-3.6016 1.1992-7.1992 3.6016-7.1992 12-3.6016 19.199-13.199 31.199-15.602 2.3984 0 4.8008-6 8.3984-1.1992 3.6016 3.6016 3.6016 8.3984 1.1992 13.199-2.3984 6-4.8008 12-6 18-2.3984 7.1992-4.8008 14.398-4.8008 21.602 0 4.8008 0 8.3984-6 7.1992-4.8008-1.1992-8.3984-3.6016-7.1992-8.3984 4.8008-12 6-22.801 8.4023-32.398z"/>
 <path d="m742.8 524.4c-6-2.3984-7.1992-8.3984-10.801-14.398-2.3984-3.6016 1.1992-6 2.3984-7.1992 4.8008-3.6016 9.6016 0 13.199 3.6016 15.602 16.801 32.398 32.398 52.801 43.199 6 3.6016 6 9.6016 2.3984 13.199-3.6016 4.8008-8.3984 0-10.801-3.6016-10.801-12-27.602-18-36-32.398-1.1953-1.1992-7.1953-4.8008-13.195-2.4023z"/>
 <path d="m385.2 826.8c-4.8008-6-10.801-12-15.602-18-2.3984-3.6016-3.6016-6 0-8.3984 1.1992-1.1992 4.8008-4.8008 8.3984-1.1992 8.3984 10.801 21.602 18 26.398 32.398 2.3984 6 0 8.3984-4.8008 8.3984-12 0-24 1.1992-36 4.8008-3.6016 1.1992-7.1992-1.1992-8.3984-6 0-4.8008 1.1992-7.1992 6-7.1992 7.2031-2.4023 15.605-2.4023 24.004-4.8008z"/>
 <path d="m1146 799.2c0 4.8008-1.1992 9.6016-6 7.1992-15.602-4.8008-26.398 6-39.602 8.3984-10.801 2.3984-20.398 6-31.199 6-4.8008 0-10.801-1.1992-9.6016-7.1992 1.1992-6 3.6016-7.1992 10.801-4.8008 8.3984 3.6016 18-1.1992 26.398-3.6016 13.199-3.6016 25.199-9.6016 38.398-13.199 6.0039-2.3945 10.805-1.1953 10.805 7.2031z"/>
 <path d="m68.398 721.2c13.199 0 22.801 4.8008 33.602 9.6016 12 4.8008 24 7.1992 37.199 7.1992 3.6016 0 9.6016 0 8.3984 4.8008 0 2.3984-4.8008 7.1992-9.6016 6-18-1.1992-36-7.1992-55.199-6-4.8008 0-8.3984-3.6016-7.1992-6 2.3984-7.1992 0-7.1992-6-7.1992-4.8008 0-12 2.3984-12-3.6016 0.003906-7.1992 7.2031-2.3984 10.801-4.8008z"/>
 <path d="m1041.6 1029.6c-10.801 3.6016-16.801 2.3984-22.801-8.3984-10.801-18-16.801-39.602-28.801-57.602-3.6016-6 1.1992-8.3984 2.3984-9.6016 2.3984-3.6016 6-1.1992 8.3984 2.3984 3.6016 7.1992 6 15.602 9.6016 22.801 6 19.199 15.602 36 31.203 50.402z"/>
 <path d="m556.8 171.6c1.1992-4.8008-1.1992-8.3984 2.3984-12 3.6016-3.6016 7.1992-3.6016 9.6016 2.3984 3.6016 12 8.3984 25.199 9.6016 37.199 0 12 7.1992 22.801 9.6016 33.602 0 3.6016 2.3984 7.1992-2.3984 8.3984-3.6016 1.1992-6-2.3984-7.1992-3.6016-10.805-20.398-15.605-44.398-21.605-65.996z"/>
 <path d="m339.6 600c-4.8008 16.801-6 32.398-12 46.801-1.1992 1.1992-2.3984 3.6016-1.1992 4.8008 3.6016 7.1992-2.3984 8.3984-6 9.6016-7.1992 0-7.1992-7.1992-7.1992-10.801 2.3984-15.602 6-31.199 9.6016-46.801 0-2.3984 2.3984-4.8008 3.6016-7.1992 2.3984-4.8008 6-6 9.6016-3.6016 2.3906 1.1992 3.5938 4.8008 3.5938 7.1992z"/>
 <path d="m516 726c4.8008 0 9.6016 0 10.801 4.8008s-3.6016 7.1992-7.1992 9.6016c-14.398 4.8008-26.398 12-38.398 21.602-2.3984 2.3984-6 1.1992-8.3984 3.6016-3.6016 2.3984-8.3984 2.3984-10.801-2.3984-2.3984-4.8008 2.3984-7.1992 6-9.6016 13.199-8.3984 25.199-15.602 38.398-24 3.5977-2.4062 7.1992-4.8047 9.5977-3.6055z"/>
 <path d="m934.8 692.4c-7.1992-2.3984-4.8008-7.1992-3.6016-10.801 8.3984-18 18-34.801 27.602-52.801 2.3984-4.8008 6-6 9.6016-6 2.3984 0 3.6016 1.1992 4.8008 3.6016 1.1992 4.8008 1.1992 10.801-2.3984 12-15.602 7.1992-15.602 25.199-24 36-3.6016 4.8008-3.6016 12-8.3984 15.602-1.207 1.1992-2.4062 1.1992-3.6055 2.3984z"/>
 <path d="m199.2 972s-1.1992 2.3984-2.3984 3.6016c-14.398 7.1992-22.801 21.602-33.602 31.199-2.3984 2.3984-7.1992 6-10.801 2.3984-4.8008-3.6016-1.1992-7.1992 1.1992-10.801 8.3984-13.199 20.398-21.602 31.199-32.398 3.6016-3.6016 8.3984-3.6016 13.199-1.1992 0.003906 1.1992 1.2031 2.3984 1.2031 7.1992z"/>
 <path d="m789.6 770.4c-6-6-16.801-8.3984-25.199-10.801-7.1992-2.3984-14.398-3.6016-21.602-4.8008-6-1.1992-7.1992-3.6016-6-8.3984 1.1992-4.8008 4.8008-7.1992 10.801-4.8008 15.602 4.8008 30 10.801 45.602 15.602 4.8008 1.1992 4.8008 4.8008 3.6016 8.3984-2.4062 1.2031-1.2031 4.8008-7.2031 4.8008z"/>
 <path d="m649.2 350.4c-15.602 0-9.6016-13.199-13.199-20.398-4.8008 6-9.6016 12-15.602 16.801-3.6016 2.3984-8.3984 7.1992-13.199 2.3984-6-4.8008-1.1992-8.3984 2.3984-12 12-10.801 20.398-25.199 31.199-37.199 2.3984-2.3984 3.6016-4.8008 7.1992-3.6016 3.6016 1.1992 4.8008 4.8008 4.8008 8.3984 0.003906 15.602-4.7969 30.004-3.5977 45.602z"/>
 <path d="m645.6 478.8c2.3984-1.1992 2.3984-3.6016 3.6016-4.8008 1.1992-2.3984 1.1992-8.3984 4.8008-7.1992 3.6016 1.1992 7.1992 6 4.8008 9.6016-3.6016 8.3984-1.1992 16.801 1.1992 25.199 2.3984 6 0 9.6016-3.6016 12-4.8008 2.3984-6-3.6016-7.1992-6-7.1992-10.801-13.199-22.801-22.801-32.398-4.8008-4.8008-4.8008-9.6016 0-13.199 6-4.8008 7.1992 2.3984 9.6016 4.8008 4.7969 2.3945 7.1953 7.1953 9.5977 11.996z"/>
 <path d="m546 362.4c2.3984 6 3.6016 10.801 6 15.602s2.3984 9.6016-3.6016 12-7.1992-2.3984-8.3984-7.1992c-2.3984-10.801-4.8008-20.398-8.3984-31.199-1.1992-3.6016 0-6 2.3984-8.3984s6-2.3984 8.3984 0c7.1992 6 15.602 8.3984 25.199 10.801 3.6016 1.1992 7.1992 2.3984 6 7.1992-1.1992 4.8008-3.6016 6-9.6016 4.8008-4.7969-1.2031-10.797-2.4023-17.996-3.6055z"/>
 <path d="m690 410.4c-9.6016-4.8008-16.801-8.3984-24-12-4.8008-2.3984-8.3984-6-6-10.801 3.6016-6 8.3984-3.6016 12 0 9.6016 7.1992 20.398 13.199 31.199 16.801 3.6016 1.1992 7.1992 2.3984 6 7.1992-1.1992 3.6016-1.1992 7.1992-7.1992 7.1992s-12 4.8008-18 7.1992c-3.6016 1.1992-7.1992 2.3984-10.801 1.1992-1.1992 0-2.3984-1.1992-3.6016-2.3984-1.1992-2.3984 1.1992-2.3984 2.3984-3.6016 6.0039-3.5938 12.004-5.9961 18.004-10.797z"/>
 <path d="m530.4 462c2.3984 0 6-2.3984 8.3984-1.1992s7.1992 3.6016 1.1992 7.1992c-7.1992 4.8008-15.602 9.6016-22.801 14.398-3.6016 2.3984-6 1.1992-8.3984-1.1992-4.8008-4.8008-1.1992-12 0-12 8.3984-4.8008 8.3984-13.199 12-20.398 1.1992-2.3984 2.3984-6 4.8008-7.1992 3.6016-2.3984 7.1992-8.3984 13.199-4.8008 6 4.8008-1.1992 8.3984-2.3984 12-1.1992 3.5977-6 7.1992-6 13.199z"/>
 <path d="m957.6 784.8c-9.6016 2.3984-14.398 12-22.801 14.398-4.8008 1.1992-8.3984 3.6016-10.801-1.1992-2.3984-4.8008 2.3984-7.1992 6-8.3984 13.199-7.1992 25.199-15.602 36-26.398 3.6016-3.6016 8.3984-3.6016 12-1.1992 4.8008 3.6016 1.1992 6 0 9.6016-4.8008 10.801-9.6016 21.602-14.398 31.199-1.1992 3.6016-2.3984 9.6016-8.3984 7.1992-6-2.3984-1.1992-7.1992 0-10.801-1.2031-4.8047-0.003906-8.4023 2.3984-14.402z"/>
 <path d="m938.4 902.4c-7.1992 9.6016-6 21.602-14.398 30-4.8008 4.8008-7.1992 4.8008-9.6016-2.3984-3.6016-12-4.8008-26.398-13.199-37.199-2.3984-3.6016 1.1992-6 3.6016-8.3984 3.6016-3.6016 6 0 7.1992 1.1992 2.3984 2.3984 3.6016 4.8008 4.8008 7.1992 2.3984 8.3984 3.6016 16.801 13.199 4.8008 1.1992-1.1992 2.3984-2.3984 4.8008-1.1992 1.1992 2.3984 3.5977 3.5977 3.5977 5.9961z"/>
 <path d="m870 774c1.1992 8.3984 2.3984 14.398 3.6016 20.398 2.3984 6-1.1992 7.1992-4.8008 8.3984-3.6016 2.3984-4.8008-1.1992-6-4.8008-3.6016-14.398-2.3984-27.602-1.1992-42 0-4.8008 7.1992-4.8008 9.6016 0 7.1992 9.6016 13.199 20.398 25.199 27.602 2.3984 1.1992 2.3984 6 0 8.3984-2.3984 2.3984-4.8008 0-7.1992-1.1992-4.8047-4.7969-10.805-9.5977-19.203-16.797z"/>
 <path d="m978 850.8c12 1.1992 21.602 7.1992 30 14.398 2.3984 2.3984 2.3984 6 0 8.3984-2.3984 2.3984-3.6016 4.8008-8.3984 3.6016-7.1992-1.1992-14.398-4.8008-22.801-2.3984-4.8008 1.1992-8.4023-4.8008-4.8008-9.6016 2.3984-3.6016 6-4.8008 0-8.3984-1.1992-1.1992-2.3984-2.3984-1.1992-4.8008 1.1992-2.3984 4.8008-1.1992 7.1992-1.1992z"/>
 <path d="m830.4 852c-2.3984-1.1992-6-1.1992-7.1992-4.8008-1.1992-3.6016 0-4.8008 3.6016-7.1992 6-4.8008 13.199-8.3984 18-14.398 1.1992-2.3984 4.8008-2.3984 7.1992-1.1992 2.3984 1.1992 1.1992 3.6016 1.1992 6-1.1992 6 2.3984 8.3984 8.3984 7.1992 2.3984 0 6 0 6 3.6016s-2.3984 4.8008-6 6c-4.8008 1.1992-9.6016 3.6016-14.398 3.6016-4.8008-1.2031-10.801-1.2031-16.801 1.1953z"/>
</svg>
