<?xml version="1.0" encoding="UTF-8"?>
<svg width="1200pt" height="1200pt" version="1.1" viewBox="0 0 1200 1200" xmlns="http://www.w3.org/2000/svg">
 <path d="m384 862.8c-36-6-57.602-31.199-80.398-52.801-46.801-42-80.398-93.602-108-148.8-21.602-43.199-36-90-40.801-139.2-2.3984-21.602-6-43.199-8.3984-64.801-4.8008-76.801 16.801-145.2 54-211.2 6-9.6016 13.199-16.801 20.398-25.199 20.398-20.398 39.602-42 60-62.398 33.602-33.602 75.602-50.398 117.6-68.398 114-49.199 230.4-44.398 346.8-9.6016 22.797 7.1992 22.797 8.3984 28.797-13.203 2.3984-6 6-10.801 7.1992-16.801 2.3984-13.199 7.1992-20.398 21.602-19.199 14.398 1.1992 28.801 7.1992 28.801 21.602 0 20.398 12 27.602 27.602 37.199 55.199 36 100.8 80.398 130.8 139.2 2.3984 4.8008 6 10.801 9.6016 14.398 37.199 44.398 49.199 98.398 58.801 153.6 0 1.1992 0 2.3984 1.1992 2.3984 26.398 108-6 207.6-48 304.8-18 42-44.398 78-74.398 111.6-46.801 51.602-103.2 88.801-171.6 106.8-40.801 10.801-82.801 21.602-124.8 27.602-4.8008 1.1992-10.801 0-12 6-2.3984 7.1992 3.6016 10.801 9.6016 13.199 24 10.801 48 25.199 74.398 30 18 3.6016 32.398 10.801 45.602 25.199 18 19.199 40.801 36 62.398 51.602 30 21.602 43.199 56.398 67.199 82.801 4.8008 4.8008-3.6016 16.801-12 14.398-42-8.3984-82.801 1.1992-124.8-1.1992-24-1.1992-49.199 0-73.199 0-76.801 0-152.4 1.1992-229.2-4.8008-31.199-2.3984-63.602-3.6016-94.801 4.8008-13.199 3.6016-25.199-1.1992-38.398-3.6016-9.6016-1.1992-12-8.3984-8.3984-18 10.801-32.398 27.602-60 56.398-81.602 51.602-37.199 104.4-73.199 166.8-90 3.6016-1.1992 7.1992-2.3984 10.801-4.8008 7.1992-3.6016 16.801-7.1992 14.398-16.801-2.3984-9.6016-12-4.8008-18-4.8008-38.398 0-78 3.6016-114-13.199-7.1992-3.6016-15.602-3.6016-21.602 3.6016-10.801 12-21.602 10.801-33.602 1.1992-13.199-10.801-4.8008-21.602-1.1992-32.398 1.1953-13.199 8.3984-30 16.797-49.199zm43.199 244.8c4.8008 18 21.602 0 31.199 10.801-6 6-8.3984 22.801-19.199 9.6016-6-8.3984-8.3984-10.801-15.602-8.3984-21.602 4.8008-42 10.801-63.602 13.199-24 2.3984-24 0-24 25.199h110.4c26.398 0 51.602 6 76.801 3.6016 37.199-3.6016 74.398-3.6016 111.6 1.1992 36 4.8008 73.199 4.8008 110.4 2.3984 9.6016-1.1992 15.602-4.8008 16.801-14.398-14.398-3.6016-27.602 3.6016-43.199-6 21.602-7.1992 44.398 2.3984 61.199-15.602-31.199-19.199-64.801 2.3984-100.8-8.3984 18-9.6016 33.602-2.3984 46.801-10.801-14.398-9.6016-33.602 6-46.801-10.801 21.602-8.3984 45.602 3.6016 64.801-9.6016-27.602-1.1992-55.199 2.3984-81.602-1.1992 37.199 2.3984 72-8.3984 104.4-27.602-9.6016-13.199-18-2.3984-25.199 1.1992-25.199 14.398-54 8.3984-80.398 10.801 15.602-10.801 38.398 0 54-16.801-28.801-3.6016-55.199-3.6016-80.398 4.8008 33.602-18 72-8.3984 112.8-15.602-24-15.602-42-25.199-66-15.602-16.801 6-34.801 3.6016-52.801 10.801-4.8008 2.3984-9.6016 0-9.6016-7.1992 0-6 3.6016-9.6016 9.6016-8.3984 9.6016 2.3984 18 2.3984 26.398-1.1992 4.8008-2.3984 13.199 0 12-9.6016-10.801 0-1.1992-14.398-12-15.602-10.801 0-20.398-8.3984-31.199-8.3984l1.1992 1.1992c-4.8008-7.1992-9.6016-14.398-14.398-22.801-6-12-16.801-10.801-25.199 0-4.8008 6-7.1992 13.199-15.602 16.801-15.602 6-30 14.398-45.602 21.602-18 9.6016-37.199 19.199-52.801 32.398-4.8008 3.6016-8.3984 8.3984-15.602 8.3984-37.199 3.6016-63.602 24-86.398 51.602-9.6016 4.8008-18 9.6016-20.398 27.602 25.203-14.402 52.805-6 78.004-19.199zm243.6-248.4c21.602-31.199 52.801-45.602 76.801-69.602 14.398-13.199 25.199-25.199 26.398-44.398 1.1992-16.801 9.6016-27.602 20.398-38.398 7.1992-7.1992 14.398-14.398 21.602-20.398 7.1992-6 12-14.398 10.801-24-2.3984-20.398-2.3984-42-2.3984-62.398 0-13.199-6-20.398-20.398-18-6 1.1992-12 2.3984-18 3.6016-25.199 4.8008-49.199 2.3984-72-12-13.199-8.3984-26.398-14.398-38.398-22.801-12-8.3984-24-12-38.398-12-20.398 0-39.602 4.8008-58.801 7.1992-37.199 3.6016-58.801 21.602-60 58.801-1.1992 20.398 1.1992 40.801 4.8008 61.199 1.1992 9.6016 6 20.398 13.199 26.398 25.199 20.398 43.199 50.398 70.801 68.398 19.199 13.199 31.199 31.199 42 50.398 5.9922 15.602 13.191 30 21.594 48zm-280.8-452.4c10.801-9.6016 8.3984-20.398 9.6016-31.199 1.1992-21.602-3.6016-44.398 13.199-61.199 13.199-14.398 15.602-31.199 14.398-50.398-2.3984-16.801 4.8008-28.801 16.801-39.602 10.801-9.6016 20.398-19.199 32.398-26.398 7.1992-3.6016 13.199-8.3984 18-15.602 3.6016-4.8008 7.1992-9.6016 3.6016-15.602-3.6016-6-10.801-4.8008-15.602-4.8008-9.6016 1.1992-16.801 7.1992-24 10.801-24 13.199-45.602 32.398-74.398 37.199-18 3.6016-31.199-9.6016-24-25.199 6-14.398 15.602-30 31.199-33.602 18-3.6016 28.801-14.398 42-25.199 8.3984-6 10.801-13.199 8.3984-20.398-2.3984-7.1992-13.199-4.8008-18-2.3984-39.602 19.199-79.199 34.801-115.2 61.199-44.398 32.398-66 80.398-99.602 121.2-4.7969 2.3984-5.9961 9.5977-4.7969 13.199 3.6016 24 7.1992 49.199 20.398 70.801 7.1992 12 10.801 22.801 12 36 2.3984 34.801 10.801 67.199 48 81.602 6 2.3984 8.3984 10.801 18 9.6016 6-16.801-2.3984-32.398-2.3984-49.199 1.1992-31.199 24-42 43.199-55.199 19.199-10.805 34.801-1.207 46.801 14.395zm460.8 183.6c34.801 4.8008 38.398 12 43.199-33.602v-14.398c0-38.398 0-38.398-38.398-44.398-42-7.1992-42-7.1992-46.801 36-1.1992 10.801 1.1992 24-13.199 30-6-20.398 2.3984-38.398 3.6016-57.602 1.1992-14.398-1.1992-22.801-15.602-25.199-15.602-3.6016-30-9.6016-45.602-14.398-8.3984-2.3984-14.398-2.3984-18 8.3984-4.8008 15.602-13.199 30-15.602 44.398-8.3984 39.602-7.1992 37.199 27.602 46.801 33.602 9.6016 67.199 6 100.8-1.1992 7.1992-1.1992 13.199-6 19.199-1.1992 6 8.3984-6 18-1.1992 26.398zm-378-36c-10.801 10.801-8.3984 22.801-16.801 31.199-21.602 20.398-32.398 45.602-37.199 74.398-6 36-7.1992 36 25.199 49.199 2.3984 1.1992 6 1.1992 8.3984 2.3984 37.199 10.801 46.801 4.8008 54-33.602 1.1992-6 2.3984-12-3.6016-15.602s-6-8.3984-4.8008-15.602c3.6016-16.801 4.8008-33.602 8.3984-49.199 4.8008-28.801 6-28.801-21.602-40.801-3.5938-1.1875-7.1914-2.3906-11.992-2.3906zm-150 50.402c-1.1992 7.1992 2.3984 13.199 6 19.199 15.602 22.801 37.199 38.398 58.801 54 10.801 8.3984 14.398-1.1992 16.801-8.3984 7.1992-20.398 12-42 19.199-62.398 7.1992-21.602 8.3984-22.801-12-31.199-21.602-8.3984-36-21.602-46.801-43.199-7.1992-14.398-16.801-14.398-22.801 0-8.3984 23.996-14.398 47.996-19.199 71.996zm322.8-494.4c-1.1992-8.3984-4.8008-8.3984-8.3984-10.801-8.3984-6-4.8008-13.199 0-18 6-6 12-1.1992 14.398 3.6016 8.3984 15.602 21.602 19.199 37.199 19.199 6 0 12 1.1992 15.602 6 14.398 15.602 46.801 7.1992 51.602 37.199 0 1.1992 7.1992 2.3984 10.801 3.6016 4.8008 1.1992 10.801 1.1992 13.199 4.8008 19.199 25.199 40.801 25.199 64.801 7.1992 1.1992 0 1.1992-1.1992 1.1992-3.6016-21.602-21.602-49.199-33.602-75.602-49.199-46.801-26.398-98.402-36-152.4-38.398-9.6016 0-22.801-3.6016-27.602 6-4.8008 10.801 4.8008 20.398 9.6016 30 3.6016 7.1992 10.801 8.3984 18 8.3984 8.3984-2.3984 16.801-3.5977 27.602-6zm165.6 273.6c1.1992-15.602-1.1992-27.602-19.199-31.199-8.3984-1.1992-16.801-7.1992-24-10.801-12-6-18 0-21.602 10.801-3.6016 12-6 25.199-8.3984 37.199-12 56.398-8.3984 63.602 49.199 75.602 2.3984 0 3.6016 1.1992 6 1.1992 9.6016 1.1992 15.602-2.3984 15.602-13.199-2.4023-21.602-1.1992-45.602 2.3984-69.602zm-265.2-16.801c-2.3984-7.1992-7.1992-12-10.801-15.602-9.6016-8.3984-20.398-15.602-30-24-32.398-27.602-32.398-27.602-55.199 8.3984-3.6016 6-7.1992 12-10.801 18-6 9.6016-4.8008 19.199 4.8008 26.398 19.199 15.602 39.602 30 58.801 44.398 4.8008 3.6016 10.801 4.8008 15.602 0 17.996-16.793 17.996-39.594 27.598-57.594zm7.1992-20.398c6 0 8.3984-3.6016 10.801-6 7.1992-12 16.801-22.801 21.602-36 4.8008-13.199 22.801-22.801 19.199-38.398-3.6016-15.602-22.801-21.602-33.602-32.398-2.3984-2.3984-4.8008-3.6016-7.1992-6-6-4.8008-10.801-3.6016-15.602 1.1992-18 16.801-37.199 32.398-52.801 52.801-6 8.3984-4.8008 14.398 1.1992 20.398 14.398 13.199 28.801 27.602 43.199 39.602 3.6055 2.3945 9.6055 3.5977 13.203 4.7969zm81.602 57.598c16.801-21.602 27.602-45.602 36-69.602 8.3984-25.199 8.3984-24-14.398-32.398-9.6016-3.6016-18-9.6016-25.199-15.602-9.6016-7.1992-15.602-6-21.602 3.6016-12 19.199-24 38.398-36 57.602-6 8.3984-3.6016 13.199 3.6016 20.398 16.797 14.402 33.598 28.801 57.598 36zm-207.6-22.797c-2.3984 2.3984-3.6016 3.6016-3.6016 4.8008-8.3984 19.199-9.6016 44.398-38.398 51.602-6 1.1992-14.398 13.199-3.6016 22.801 22.801 21.602 45.602 44.398 70.801 63.602 9.6016 7.1992 15.602 4.8008 20.398-6 2.3984-4.8008 3.6016-8.3984 6-13.199-7.1992-6-14.398-2.3984-20.398-4.8008-13.199-4.8008-19.199-14.398-18-27.602 1.1992-14.398 10.801-16.801 22.801-16.801 15.602 0 31.199-4.8008 46.801-14.398-34.801-12.004-52.801-42.004-82.801-60.004zm465.6 1.1992c0 22.801 7.1992 40.801 10.801 60 2.3984 14.398-6 33.602 7.1992 42 13.199 8.3984 31.199 1.1992 46.801 2.3984h8.3984c18-2.3984 22.801-8.3984 20.398-25.199-1.1992-12-4.8008-22.801-8.3984-34.801-3.6016-15.602-7.1992-28.801-28.801-25.199-3.6016 1.1992-10.801-2.3984-13.199-4.8008-10.801-10.801-25.199-10.801-43.199-14.398zm-67.199-15.602c-6 16.801 0 34.801-2.3984 50.398-2.3984 18-10.801 42-2.3984 55.199 9.6016 15.602 36 9.6016 55.199 13.199 14.398 3.6016 19.199-2.3984 18-14.398-3.6016-27.602-8.3984-54-13.199-81.602-1.1992-8.3984-4.8008-15.602-14.398-16.801-14.406-2.3945-27.605-8.3945-40.805-5.9961zm124.8 136.8c-42 1.1992-42 1.1992-43.199 43.199v6c3.6016 13.199-13.199 31.199 3.6016 40.801 12 7.1992 28.801 2.3984 44.398 1.1992h6c21.602-3.6016 25.199-8.3984 24-31.199 0-6 0-12 1.1992-18 7.2031-43.199 7.2031-43.199-36-42zm22.801-231.6c8.3984 40.801 15.602 78 24 114 2.3984 12 7.1992 22.801 8.3984 34.801 3.6016 79.199 12 158.4-22.801 234-4.8008 10.801-7.1992 22.801-9.6016 34.801 13.199-15.602 22.801-32.398 30-50.398 15.602-39.602 26.398-80.398 24-124.8-1.1992-22.801-3.6016-45.602-2.3984-67.199 2.3984-51.602-14.398-98.398-28.801-145.2-4.7969-9.6016-9.5977-20.402-22.797-30.004zm8.4023 336c-24 3.6016-43.199 6-62.398 1.1992-9.6016-2.3984-18 1.1992-21.602 12-7.1992 22.801-16.801 44.398-26.398 66-2.3984 6-1.1992 10.801 4.8008 14.398 21.602 9.6016 58.801 0 70.801-21.602 13.195-21.594 22.797-45.594 34.797-71.996zm-674.4-6c7.1992-25.199 14.398-46.801 21.602-68.398 4.8008-13.199-2.3984-16.801-13.199-16.801-10.801 0-20.398-1.1992-27.602-8.3984-15.602-14.398-37.199-22.801-50.398-40.801-9.6016 21.602-13.199 43.199-7.1992 51.602 21.598 30 41.996 61.199 76.797 82.797zm220.8-158.4c4.8008 7.1992 20.398-2.3984 20.398 12 1.1992 25.199 25.199 27.602 39.602 32.398 15.602 6 15.602-16.801 22.801-25.199 7.1992-8.3984 10.801-19.199 16.801-28.801 4.8008-7.1992 3.6016-12-4.8008-16.801-21.602-13.199-43.199-27.602-66-43.199-4.8008 14.398-7.1992 26.398-10.801 37.199-4.8008 10.801-14.398 19.203-18 32.402zm206.4-96c-1.1992-16.801-1.1992-16.801-22.801-25.199-20.398-8.3984-19.199-8.3984-27.602 12-4.8008 13.199-10.801 25.199-16.801 38.398-21.602 44.398-21.602 44.398 25.199 61.199 4.8008 1.1992 9.6016 3.6016 14.398 4.8008 4.8008 1.1992 8.3984-1.1992 9.6016-4.8008 6.0039-30 12.004-60 18.004-86.398zm-46.797 186c2.3984-21.602 13.199-40.801 20.398-61.199 4.8008-13.199 1.1992-18-10.801-21.602-14.398-3.6016-27.602-9.6016-40.801-18-7.1992-3.6016-13.199-2.3984-18 4.8008-8.3984 16.801-18 32.398-26.398 49.199-3.6016 7.1992-4.8008 13.199 6 15.602 25.199 6 45.602 21.598 69.602 31.199zm-458.4 3.6016c-14.398 55.199 30 132 80.398 156 4.8008-22.801-1.1992-45.602-1.1992-67.199 0-3.6016-2.3984-7.1992-6-9.6016-26.398-22.801-52.797-45.602-73.199-79.199zm-39.598-217.2c-32.398 60-15.602 132 24 164.4 6-15.602 8.3984-32.398 12-49.199 3.6016-16.801 3.6016-36-8.3984-51.602-9.6016-12-10.801-27.602-15.602-42-2.4023-5.9961-2.4023-14.395-12-21.598zm350.4 159.6c-14.398 3.6016-27.602 3.6016-39.602 9.6016s-6 20.398-12 28.801c-1.1992 1.1992-1.1992 3.6016-2.3984 4.8008-7.1992 10.801-6 18 7.1992 22.801 6 2.3984 12 6 18 9.6016 4.8008 2.3984 9.6016 3.6016 13.199-1.1992 9.6016-15.602 24-19.199 39.602-21.602 15.602-2.3984 27.602-24 19.199-32.398-14.398-9.6055-27.598-19.207-43.199-20.406zm-22.801-308.4c-9.6016 21.602-28.801 31.199-44.398 43.199-28.801 22.801-28.801 21.602-7.1992 50.398 1.1992 1.1992 2.3984 3.6016 3.6016 4.8008 4.8008 7.1992 9.6016 7.1992 16.801 1.1992 16.801-16.801 31.199-36 50.398-49.199 12-8.3984 12-15.602 1.1992-25.199-7.2031-6-12-14.402-20.402-25.199zm358.8 97.199c0 10.801 6 14.398 10.801 19.199 18 13.199 28.801 30 27.602 52.801 0 10.801 19.199 31.199 30 33.602 13.199 3.6016 22.801-3.6016 19.199-16.801-4.8008-16.801-12-33.602-19.199-50.398-4.8008-13.199-2.3984-33.602-16.801-39.602-13.199-4.8008-28.801-1.1992-44.398 0-2.4023 0-4.8047 0-7.2031 1.1992zm-552 370.8c-3.6016 44.398-2.3984 80.398 38.398 102 2.3984 1.1992 4.8008 3.6016 7.1992 4.8008 10.801 8.3984 15.602 2.3984 18-8.3984 2.3984-9.6016 3.6016-19.199 6-28.801 1.1992-6 0-12-4.8008-15.602-21.598-14.402-41.996-32.402-64.797-54zm301.2-477.6c-7.1992-13.199-18-19.199-25.199-28.801-4.8008-4.8008-9.6016-7.1992-15.602-4.8008-18 4.8008-36 8.3984-54 18-4.8008 2.3984-8.3984 6-6 12 7.1992 16.801 18 30 33.602 40.801 4.8008 3.6016 9.6016 0 13.199-2.3984 18-12 34.801-22.801 54-34.801zm300 554.4c-15.602 0-28.801 0-40.801-1.1992-16.801-1.1992-27.602 3.6016-33.602 20.398-3.6016 12-13.199 21.602-21.602 32.398-6 7.1992-14.398 14.398-12 26.398 21.602 6 43.199 2.3984 57.602-14.398 16.805-17.996 36.004-35.996 50.402-63.598zm-381.6-643.2c-8.3984 1.1992-15.602 2.3984-24 3.6016-21.602 3.6016-25.199 9.6016-20.398 28.801 2.3984 7.1992 6 14.398 9.6016 21.602 3.6016 8.3984 9.6016 9.6016 16.801 7.1992 15.602-4.8008 30-9.6016 45.602-14.398 4.8008-1.1992 9.6016-3.6016 9.6016-9.6016 1.1914-26.402-13.207-39.602-37.207-37.203zm182.4 751.2c1.1992 1.1992 3.6016 2.3984 4.8008 4.8008 52.801-20.398 102-70.801 112.8-115.2-25.199-12-32.398-9.6016-45.602 12-2.3984 3.6016-4.8008 7.1992-4.8008 10.801-4.8008 37.199-28.801 61.199-57.602 81.602-2.3984 1.1992-5.9961 3.5977-9.5977 5.9961zm-22.801-582c0-9.6016-27.602-31.199-37.199-27.602-1.1992 1.1992-3.6016 2.3984-4.8008 3.6016-14.398 14.398-32.398 30-30 48 1.1992 15.602 25.199 19.199 40.801 26.398 1.1992 0 2.3984 1.1992 2.3984 1.1992 7.1992 3.6016 12 0 14.398-6 4.8047-14.395 9.6016-29.996 14.402-45.598zm-181.2 574.8c14.398 8.3984 28.801 4.8008 40.801 9.6016 21.602 9.6016 39.602 0 58.801-9.6016 12-6 8.3984-13.199 2.3984-20.398-18-20.398-57.602-20.398-78-2.3984-7.1992 7.1992-14.398 13.199-24 22.797zm-110.4-109.2c-9.6016 12-6 24-9.6016 33.602-4.8008 12-1.1992 19.199 10.801 22.801 4.8008 1.1992 8.3984 3.6016 13.199 6 38.398 20.398 27.602 15.602 46.801-15.602 7.1992-10.801 3.6016-16.801-6-24-18-9.6016-38.402-13.199-55.199-22.801zm222-531.6c-20.398 9.6016-42 19.199-58.801 33.602-2.3984 2.3984-1.1992 7.1992 1.1992 10.801 6 6 10.801 12 16.801 16.801 21.602 19.199 21.602 18 39.602-3.6016 6-8.3984 12-15.602 19.199-22.801 4.8008-6 8.3984-12 2.3984-18-6-8.3984-10.801-15.598-20.398-16.801zm202.8 634.8c-16.801 1.1992-32.398-8.3984-48 0-31.199 18-62.398 37.199-97.199 49.199-4.8008 1.1992-7.1992 7.1992-6 12 1.1992 7.1992 7.1992 6 12 4.8008 31.199-8.3984 62.398-19.199 92.398-33.602 16.801-7.1992 33.602-15.598 46.801-32.398zm-622.8-210c-1.1992-28.801-1.1992-56.398-2.3984-82.801-1.1992-13.199-27.602-50.398-43.199-63.602 1.1992 37.199 8.3984 72 16.801 106.8 2.3945 14.402 13.195 28.801 28.797 39.602zm589.2-262.8c4.8008-20.398-1.1992-39.602-2.3984-60-1.1992-15.602-15.602-12-25.199-14.398-10.801-2.3984-16.801 2.3984-19.199 13.199-10.801 42-6 50.398 37.199 61.199 3.5977 1.2031 5.9961 0 9.5977 0zm67.199 16.801c-4.8008-15.602-8.3984-28.801-12-43.199-2.3984-8.3984-6-16.801-9.6016-25.199-4.8008-10.801-10.801-19.199-24-16.801-14.398 2.3984-7.1992 13.199-8.3984 21.602-1.1992 4.8008 0 9.6016 0 14.398 2.3984 43.199 3.6016 44.398 46.801 50.398 1.1992 1.2031 2.3984 0 7.1992-1.1992zm-345.6 565.2c9.6016 0 20.398 0 30-1.1992 6 0 15.602 0 14.398-9.6016 0-8.3984-7.1992-7.1992-13.199-8.3984-38.398-1.1992-76.801-8.3984-115.2-16.801-4.8008-1.1992-12-6-14.398 2.3984s1.1992 13.199 9.6016 15.602c28.797 8.4023 56.398 28.801 88.797 18zm-19.199-112.8c14.398-4.8008 26.398-16.801 38.398-27.602 3.6016-3.6016 2.3984-7.1992-1.1992-9.6016-3.6016-2.3984-8.3984-6-12-8.3984-34.801-21.602-46.801-16.801-57.602 22.801-1.1992 6-1.1992 9.6016 3.6016 13.199 7.2031 3.6016 15.602 9.6016 28.801 9.6016zm328.8-117.6c10.801 7.1992 20.398 6 25.199-6 8.3984-20.398 16.801-39.602 25.199-60 1.1992-4.8008 3.6016-12-1.1992-13.199-12-6-25.199-3.6016-37.199-1.1992-10.801 2.3984-8.3984 13.199-7.1992 19.199 1.1992 21.598 3.5977 42-4.8008 61.199zm-622.8-64.801c19.199 56.398 50.398 100.8 81.602 145.2 4.8008 6 10.801 12 16.801 16.801 2.3984 2.3984 6 2.3984 8.3984 1.1992 3.6016-2.3984 4.8008-6 3.6016-10.801-1.1992-3.6016-3.6016-7.1992-7.1992-9.6016-32.398-40.801-62.398-81.602-84-128.4-2.4023-5.9961-7.2031-11.996-19.203-14.398zm286.8-489.6c-2.3984-6-3.6016-16.801-13.199-16.801-8.3984-1.1992-19.199-8.3984-25.199 1.1992-15.602 25.199-34.801 44.398-67.199 46.801-4.8008 0-9.6016 6-14.398 9.6016-4.8008 3.6016-9.6016 9.6016-6 15.602 4.8008 9.6016 10.801 2.3984 18 0 34.801-12 60-46.801 102-45.602 3.5977-0.003906 5.9961-4.8008 5.9961-10.801zm237.6 181.2c3.6016-15.602 7.1992-30 10.801-43.199 3.6016-12-4.8008-15.602-13.199-19.199-6-2.3984-14.398-9.6016-18-1.1992-7.1992 14.398-19.199 31.199-16.801 46.801 1.1992 11.996 22.797 11.996 37.199 16.797zm-410.4 482.4c49.199 42 106.8 57.602 164.4 73.199-15.602-18-36-30-58.801-33.602-18-2.3984-33.602-7.1992-49.199-16.801-12-8.3984-27.602-10.801-36-25.199-2.3984-4.7969-10.797-3.5977-20.398 2.4023zm481.2 64.801c58.801-24 141.6-110.4 154.8-162-28.801 30-45.602 61.199-68.398 87.602-24 28.797-58.801 42-86.402 74.398zm115.2-616.8c-9.6016-22.801-22.801-39.602-43.199-51.602-10.801 15.602-12 32.398-16.801 48-2.3984 9.6016 4.8008 12 12 10.801 15.598-1.1992 30-3.5977 48-7.1992zm-475.2 321.6c0-1.1992 0-2.3984-1.1992-2.3984-14.398-12-15.602-37.199-40.801-38.398-9.6016-1.1992-13.199-10.801-14.398-19.199-1.1992-4.8008-2.3984-9.6016-9.6016-8.3984-7.1992 2.3984-8.3984 7.1992-7.1992 14.398 4.8008 27.602 36 57.602 64.801 61.199 4.8008-1.2031 8.3984-2.4023 8.3984-7.2031zm-129.6-97.199v14.398c0 8.3984 2.3984 15.602 12 18 10.801 2.3984 13.199-6 16.801-13.199 2.3984-7.1992 4.8008-15.602 8.3984-22.801 2.3984-6 2.3984-12-3.6016-15.602-9.6016-4.8008-15.602-20.398-26.398-16.801-12 3.6016-6 19.199-8.3984 28.801 0 2.4023 1.1992 4.8008 1.1992 7.2031zm182.4 255.6c16.801 14.398 37.199 14.398 52.801 25.199 4.8008 3.6016 7.1992 10.801 13.199 2.3984 4.8008-6 6-12-2.3984-18-16.801-13.199-31.199-27.602-43.199-45.602-9.6016 12.004-12 25.203-20.402 36.004zm296.4-475.2c0-24-2.3984-45.602-8.3984-66-1.1992-4.8008-4.8008-9.6016-10.801-8.3984-7.1992 0-6 7.1992-6 10.801-1.1992 12-2.3984 24-3.6016 34.801-3.6016 26.398-3.6016 26.398 28.801 28.797zm-373.2 97.199c18-13.199 22.801-34.801 37.199-50.398 8.3984-8.3984 7.1992-15.602 0-22.801-4.8008-3.6016-7.1992-12-15.602-10.801-1.1992 19.199-7.1992 37.199-20.398 51.602-9.5977 10.801-14.398 21.598-1.1992 32.398zm327.6-184.8c-2.3984 0-4.8008-1.1992-7.1992-1.1992-7.1992 19.199-15.602 38.398-21.602 58.801-3.6016 13.199 8.3984 13.199 15.602 16.801 9.6016 3.6016 12-4.8008 13.199-10.801 4.8008-21.602 3.6016-42 0-63.602zm151.2 202.8c-1.1992-27.602 3.6016-57.602-34.801-72 14.402 26.402 6 57.602 34.801 72zm-501.6 424.8c0 10.801 4.8008 20.398 10.801 30 3.6016 6 10.801 6 15.602 2.3984 7.1992-6 14.398-15.602 15.602-24 1.1992-8.3984-10.801-9.6016-16.801-14.398-3.6016-2.3984-7.1992-3.6016-10.801-4.8008-10.805-4.8008-14.402 0-14.402 10.801zm327.6-632.4c-16.801 10.801-30 19.199-40.801 31.199-10.801 12 0 18 7.1992 22.801 7.1992 6 15.602 7.1992 19.199-3.6016 3.6016-15.602 14.402-30 14.402-50.398zm-198 304.8c-21.602-13.199-40.801 1.1992-60 2.3984-8.3984 0-14.398 3.6016-13.199 12 1.1992 12 12 12 18 8.3984 18-9.5938 37.199-14.395 55.199-22.797zm165.6-340.8c-24 1.1992-48 0-74.398 10.801 9.6016 8.3984 14.398 25.199 25.199 18 16.797-10.801 34.797-15.602 49.199-28.801zm151.2 120c9.6016-10.801 10.801-21.602 13.199-31.199 2.3984-9.6016-1.1992-16.801-9.6016-22.801-8.3984-6-14.398-4.8008-21.602 0-8.3984 6-3.6016 12-1.1992 18 7.2031 10.797 13.203 22.797 19.203 36zm-285.6 597.6c-26.398-2.3984-51.602-22.801-79.199 0 27.602 8.4023 52.801 21.602 79.199 0zm326.4-668.4c28.801 27.602 50.398 62.398 79.199 88.801-25.199-30-36-73.203-79.199-88.801zm-175.2-25.199c-20.398 0-36 2.3984-50.398 13.199-6 4.8008-7.1992 9.6016-3.6016 14.398 3.6016 6 9.6016 13.199 16.801 7.1992 11.996-9.5977 26.398-19.199 37.199-34.797zm-378 274.8c13.199 2.3984 16.801 25.199 34.801 13.199 7.1992-4.8008 12-15.602 2.3984-25.199-8.4023-10.797-15.602-8.3984-37.199 12zm14.398 328.8c3.6016 21.602 19.199 31.199 36 42 7.1992-31.199-19.199-32.398-36-42zm313.2 126c-14.398 0-27.602-7.1992-40.801-2.3984-13.199 4.8008-26.398 6-39.602 9.6016 26.402-2.4023 54.004 9.5977 80.402-7.2031zm-87.598-13.199c26.398 10.801 48-3.6016 70.801-4.8008-22.801-7.1992-46.801-16.801-70.801 4.8008zm232.8-658.8c-2.3984 20.398-1.1992 33.602 7.1992 46.801 2.3984 3.6016 6 3.6016 10.801 3.6016 4.8008-1.1992 6-4.8008 4.8008-8.3984-4.8008-13.203-8.3984-27.602-22.801-42.004zm-319.2 616.8c-25.199-20.398-31.199-19.199-42 7.1992 15.602 6 27.602-2.3984 42-7.1992zm-200.4-118.8c10.801 20.398 20.398 34.801 37.199 46.801-3.6016-22.801-10.801-38.398-37.199-46.801zm577.2-554.4c-10.801-18-26.398-25.199-37.199-37.199-3.6016-3.6016-8.4023-2.4023-10.801 1.1992-1.1992 2.3984 0 6 2.3984 7.1992 14.402 8.3984 25.203 22.801 45.602 28.801zm-112.8 934.8c8.3984 1.1992 12 1.1992 15.602 2.3984 3.6016 1.1992 7.1992 2.3984 10.801 4.8008 3.6016 3.6016 7.1992 2.3984 9.6016-1.1992 2.3984-3.6016 2.3984-6-1.1992-10.801-9.6055-14.402-12.004-14.402-34.805 4.8008zm-162-554.4c18-2.3984 28.801-3.6016 46.801-6-31.199-12-31.199-12-46.801 6zm202.8 586.8c13.199 9.6016 13.199 9.6016 30 4.8008-8.3984-9.6016-18-8.4023-30-4.8008zm55.199 32.398c-1.1992-4.8008-2.3984-9.6016-9.6016-9.6016-4.8008 0-4.8008 4.8008-6 8.3984-1.1992 7.1992 2.3984 8.3984 8.3984 8.3984 4.8047 0.007812 8.4023-1.1953 7.2031-7.1953zm-391.2-1050c6 1.1992 10.801 1.1992 15.602 1.1992 6 1.1992 9.6016-2.3984 8.3984-8.3984-1.1992-4.8008-6-4.8008-9.6016-3.6016-4.7969 2.4023-9.5977 3.6016-14.398 10.801zm188.4 733.2c-1.1992-4.8008-4.8008-4.8008-8.3984-4.8008-3.6016 1.1992-8.3984 3.6016-8.3984 7.1992 0 7.1992 7.1992 4.8008 10.801 4.8008 4.7969 1.1992 5.9961-2.4023 5.9961-7.1992zm-50.398 86.398c4.8008-1.1992 10.801-1.1992 9.6016-7.1992 0-2.3984-3.6016-4.8008-6-4.8008-6 0-9.6016 2.3984-9.6016 8.3984-1.1992 2.4023 2.3984 3.6016 6 3.6016zm32.398-3.6016c4.8008-1.1992 10.801-3.6016 14.398-7.1992-1.1992-1.1992-3.6016-2.3984-4.8008-1.1992-4.8008 1.1992-12-2.3984-13.199 6 0.003906 0 2.4023 1.1992 3.6016 2.3984z"/>
 <path d="m615.6 1137.6c-25.199 2.3984-51.602 4.8008-76.801 7.1992-30 2.3984-61.199 1.1992-91.199 3.6016-3.6016 0-8.3984-1.1992-8.3984-6 0-3.6016 2.3984-7.1992 4.8008-6 15.602 6 26.398-14.398 39.602-10.801 43.195 10.797 87.594-3.6016 132 12z"/>
 <path d="m426 1108.8c-9.6016-13.199-22.801-6-34.801-6-9.6016 0-19.199 6-26.398-4.8008 32.398 3.6016 64.801-14.398 99.602-4.8008-8.4023 16.801-25.203 12-38.402 15.602z"/>
 <path d="m614.4 1137.6c21.602-14.398 40.801 1.1992 67.199 9.6016-32.398 1.1992-57.602 1.1992-85.199 2.3984 1.2031-10.801 16.801-2.4023 18-12 1.2031 0 0 0 0 0z"/>
 <path d="m620.4 987.6c-1.1992 8.3984 9.6016 9.6016 10.801 16.801-10.801 3.6016-20.398 3.6016-32.398-1.1992 1.1992-13.203 12-14.402 21.598-15.602 1.2031 1.1992 0 0 0 0z"/>
 <path d="m423.6 1132.8c-21.602 15.602-40.801 13.199-60 9.6016 18-2.4023 36-6.0039 60-9.6016z"/>
 <path d="m507.6 1048.8c1.1992-2.3984 1.1992-3.6016 2.3984-4.8008 3.6016-4.8008 8.3984-8.3984 14.398-6 1.1992 0 2.3984 3.6016 2.3984 4.8008-3.6016 4.8008-8.3984 8.3984-14.398 7.1992-2.3984 1.1992-3.5977 0-4.7969-1.1992z"/>
</svg>
