<?xml version="1.0" encoding="UTF-8"?>
<svg width="1200pt" height="1200pt" version="1.1" viewBox="0 0 1200 1200" xmlns="http://www.w3.org/2000/svg">
 <path d="m657.85 582.43c0.70703-1.6758-1.2266-3.9453 8.2695-4.5352 8.0547-0.51953 7.4414-0.96875 8.293 4.5352-2.1484 1.6523 0.61328 0.92188-3.0234 1.6523-0.09375 0.023437-4.9141 0.1875-5.2422 0.1875-9.5898-0.09375-7.1328-1.0625-8.293-1.8438zm17.504-76.109c-1.6289 4.0859 0.73047 3.4492-6.4961 3.2344-3.3789-0.11719-6.6602-0.75781-10.016-1.2539l11.668-3.1875c9.2344-1.0156 1.8672-1.0625 4.8438 1.2031zm-141.71-66.379c0.23437-0.75781 0.61328-1.5117 0.70703-1.1797 0.09375 0.26172 0.58984-0.42578 0.70703-0.40234 2.8828 0.30859 0.37891-0.51953 1.9609 1.0391l-3.3789 0.54297zm148.09-6.4492 1.7461-8.1016c10.773-3.8516 6.2109-4.2031 12.781-6.0703-2.6445 7.1562-6.3555 11.434-14.527 14.172zm-16.867-27.875 9.5664-3.4023-0.58984 5.8125zm14.48 0.99219c0.96875-3.5195-1.7461-2.8828 4.7227-3.7578-1.9844 4.5352-1.3945 2.2188-4.7227 3.7578zm-160.72-9.2109c3.3555 7.3711 3.4961-0.99219 20.008 4.0625l-0.63672 9.0703c-6.6836-0.75781-2.5039-0.046875-6.8984-5.0781-7.4414-0.80469-9.4492-0.875-15.73 1.2539-6.332 2.125-23.906-0.49609-33.992 1.4648-3.7305 0.73047-12.59 2.1016-14.93 3.9219 8.7891 0.61328 53.242-4.8203 70.441 1.6758 4.9609 1.8672 0.33203 17.125 0.023437 21.141-6.0938 0.44922-27.094-4.7734-36.164-5.6211-8.9297-0.82812-35.883-1.2031-42.59 2.2188 3.0234 2.125-4.9609 2.2422 6.0938 1.6055 1.4883-0.070313 4.9375-0.94531 6.6367-1.0859 4.9844-0.47266 10.441-0.35547 15.449-0.28516 10.723 0.09375 17.812 0.26172 28.203 1.9141 2.4102 2.4102 1.1094 1.5352 3.3086 4.2031l10.324 0.40234c-0.875 2.9062-1.2773 2.5977-1.3945 6.5898 1.4414-0.046875 4.6055-0.37891 5.5977-0.35547 2.4805 0.070312-0.070312-0.35547 2.457 0.11719 2.5508 0.47266 1.418 0.42578 2.7891 1.3477-1.9844 8.3164-4.5586 0.26172-18.969 6.0703-9.8516 3.9688-63.141-6.1875-68.195-3.4492 3.0938 5.0078 3.5195 2.2188 18.852 3.7812l64.844 5.8359c-3.3789-2.5273-4.4883-2.4102-8.1484-3.875 5.3867-1.2539 5.293-2.7891 10.488 0.070313l0.80469 8.2188c-6.8984 0.66016-17.055-0.23438-21.945 3.0234 2.8359 4.8906 11.27 0.023438 18.332 0.37891 4.9609 0.23438 4.0859 0.99219 4.7734 3.5664-3.0234 1.6992-5.8359 1.3008-9.3086 2.0078-7.7734 1.582-6.9453 1.8203-8.9297 4.5352 2.3633 1.0625-4.6055 2.7656 7.3711-0.63672 4.4883-1.3008 6.5195-1.3477 11.031-0.61328l-0.023438 7.4883c-10.465 0.875-6.7812-1.418-14.172 3.3789-10.203-0.96875-19.652-3.6367-30.164-4.3008-10.324-0.66016-21.637-0.11719-31.535-2.5039-0.54297-1.0625-0.40234-0.80469-0.82812-2.293-1.7227-6.2109 1.4648 3.3789-0.47266-2.0312-1.2539 0.99219-3.0703-1.4883-2.3867 6.5664 6.6836 2.3398 39.473 2.9297 58.441 5.9297 7.9609 1.2539 11.598 0.046875 19.699-0.09375l0.54297 9.8984c-3.2852-0.73047-2.4102-0.85156-5.0078-1.7227-8.4336-2.8125-4.7227-0.42578-6.1406 0.63672l4.5117 2.6211c1.6055 0.40234 5.2422 0.58984 7.0156 0.78125l0.89844 44.621c-10.961 1.3008-28.652 0.73047-39.309-0.16406-12.496-1.0625-23.766-0.89844-35.598-1.8906-5.9766-0.49609-13.582 0.1875-19.723 0.26172-25.699 0.33203-74.242-3.332-98.195-1.2539-13.723 1.1797-26.457-0.28516-39.613 0.73047-24.496 1.8906-52.984 5.2695-77.434 4.5117-3.5664-2.3867-2.5273-2.8359-6.8516-5.3633-2.2422-1.3242-5.1484-2.293-7.7969-3.9453-4.2266-2.6445-9.5664-7.3477-13.348-10.324-10.699-8.4805-30.141-20.316-42.992-27.852l-20.148-15.309c-4.9375-5.1953-13.582-7.6523-23.219-13.676 0.70703-4.418 1.7969-3.8516 6.8516-11.715 2.7383-4.2539 6.0938-7.3242 10.82-8.9531-1.1094-7.418-0.875-5.7656 4.6289-9.707 3.7305-2.6914 5.5977-4.0156 8.668-7.0625 11.527-11.457 56.387-37.844 73.512-49.914 9.4492-6.6367 77.008-3.2344 88.582-2.0781 19.086 1.9375 40.82-0.30859 60.449 1.5352 18.613 1.7734 41.008 0.82812 58.465 2.9766 17.645 2.1719 39.707 3.4727 57.07 4.418 10.086 0.54297 20.148 0.80469 30.07 1.1797 19.133 0.73047 23.789-0.92188 24.543 6.7812-6.0938 0.33203-14.34-2.4805-19.797 0.35547zm-396.68 45.637c1.8672-19.629 21.828-26.836 42-39.945 11.434-7.4414 41.93-31.418 50.977-33.234l1.0391 10.488c-4.3477 2.8594-7.1562 4.8672-11.906 7.6992-4.0391 2.4336-3.1406 3.7305-11.504 8.2188-6.7812 3.6133-40.938 26.527-46.723 32.008-5.8125 5.5039-13.301 13.227-23.883 14.766zm98.457-66.945 1.6758-9.0703c8.293-0.40234 10.867 1.3711 18.07 2.1953 11.621 1.3242 45.234-0.51953 57.234-0.37891 50.953 0.66016 102.78 3.7305 154.84 5.293 25.723 0.75781 55.016-1.5117 79.723 0.070312l-3.3086 7.2539c-4.4648-3.332-2.3398-3.9219-9.6367-4.0156 1.6055 6.6602 3.4023 4.8438 9.332 6.4961 5.0078-3.2852 2.293-4.9844 8.6445-5.7148l-0.11719 9-45.262-1.7227c0.73047-2.5742 0.09375-1.6758 1.7734-3.3789l3.9219-3.0938c-0.070313-0.023437-1.4648-4.582-6.4492 0.49609-7.8203 7.9375 4.2031 6.2109-21.566 5.5508l-68.195-4.4648c-24.285-1.2031-45.781-4.3711-72.234-3.543l-72.164-2.6914c-10.961-0.14063-27.969 2.5273-36.285 1.7227zm439.44-15.426c1.6523-1.6289-2.1719 0.37891 1.9141-1.582l10.039-2.3633c-1.418 6.7578-4.3945 6.1875-11.953 3.9453zm18.117-9.1875c0.09375-1.0859 3.0234-3.8984 1.7969-0.21094-0.42578 1.3008-2.1719 4.1094-1.7969 0.21094zm-4.3477-15.543c-0.66016 8.1953-6.3789 3.9688-13.277 2.6914 1.3477-1.2773 0.21094-0.99219 2.6211-2.125 4.0625-1.9141 7.4883-1.8672 10.652-0.56641zm-10.18-33.094c-5.2422 0.47266-4.1094 1.1328-7.8438-1.3945 3-1.9844 5.3867-0.54297 7.8438 1.3945zm-25.535-47.172c-0.30859-2.4336 0.82812-0.94531 1.1797 0.21094 1.0859 3.4258-1.0859 0.61328-1.1797-0.21094zm324.47-1.1328c-1.6055 1.1328-1.1094 1.6523-3.4961-0.21094 1.6992-1.7461 1.9375-0.68359 3.4961 0.21094zm-2.8828-3.2617c-5.457-0.875-8.4336-3.1406-9.9219-7.418 4.0156-1.5586 5.5039-1.1328 9.5195 1.2773zm-224.69 53.363c5.8828-3.5898 11.34-6.1172 16.062-10.203 9.1641-7.8906 65.859-39 81.332-47.363 5.457-2.9531 8.7148-7.2031 15.262-9.7812l4.9141 6.707c-3.4023 2.1016-5.9297 3.1875-10.395 4.9609-4.1094 1.6289-5.9766 3.6836-9 5.5742l-18.426 11.766c-11.789 7.9141-22.301 16.324-35.078 23.953-12.402 7.4414-25.062 15.496-35.41 23.645-4.3477 3.4023-6.1641 2.6445-11.27 4.3477-6.8516 2.293-19.039 14.008-26.859 15.637 4.7461-4.0156 8.6211-6.4492 15.023-10.203 7.3242-4.3008 12.945-6.3555 14.883-10.559-10.133 2.3633-21.309 11.41-29.883 15.613 4.2266-4.6992 16.039-14.172 23.715-15.805-0.63672-0.58984 2.3633-5.125-5.8828-1.3242-1.1562 0.54297-1.7227 1.6992-4.4414 2.5039l15.449-9.4727zm129.52-60.309c-2.9297-3.4258-6.3789-5.4805-8.1016-9.8984 21.117-1.1562 37.723 0.23438 58.277 3.7578 17.008 2.8828 24.07-1.6992 33.969 12.164 7.2773 10.203 0.37891 0.28516 7.8906 4.0156-1.1797 0.75781 0.14062 0.61328-2.7656 1.0859-16.891 2.7148-15.496-5.0078-22.582-5.5742-5.1016-0.42578-1.5586 2.3867-7.6289-1.3242l-2.6211 4.0156-56.434-8.2422zm-323.77 126.83c-2.4805-13.371-2.8125-42.141-2.125-56.48 0.40234-7.9844 5.3164-14.668 9.5664-19.652 2.8828-3.332 8.9062-12.309 11.242-16.324 7.4883-12.898 13.984-22.418 22.086-34.348 3.6602-5.4336 19.086-31.086 23.148-33.684 5.2695 1.9141 6.9688 3.4961 8.7891 9l-12.543-0.68359c2.6914 5.3633 8.9766 2.5742 14.195 5.0312 2.9297 1.3711 7.3242 7.3008 9.3086 10.652l-3.7812 3.875c-0.21094-0.28516-0.80469 0.61328-1.1562 0.96875 1.7734 0.23438 5.1016 0.35547 6.9453 1.0859 4.9609 1.9609 1.6758 0.28516 2.9766 3.2617-7.3477 2.6211-15.426 2.293-23.27 1.7969l-5.5273 0.82812c2.293 2.7891 5.8359 2.7148 10.605 2.9531 17.434 0.89844 8.6211-0.1875 15.094 3.8984 2.6211 1.6289 2.3867 0.16406 5.9297 2.3398-3.0234 4.2266-7.3711 4.0625-13.133 4.2539-4.6055 0.14062-10.465-1.2773-13.371-0.30859 2.6914 8.5508 26.621 1.0156 33.945 1.9844-2.1719 3.9922-3.4727-1.418-6.4961 8.125-5.5742 0.82813-10.629 1.5117-16.535 2.2422-4.6289 0.56641-12.781 0.11719-16.699 2.0781 3.2617 2.4336-4.0156 1.6523 5.9531 2.1953 7.0391 0.37891 34.254-4.3945 40.371-5.4102-2.9062-2.6445-3.1172-2.293-7.7969-1.6992 2.5508-7.1562 12.613 1.1328 14.977 6.5664-3.6836-0.23438-6.543-0.61328-10.133 0.21094-5.5977 1.2266-4.7227 1.6758-5.9297 4.6992 5.5742 3.5664 6.1172-3.7305 17.598 1.2539 4.3945 1.8906 4.7969 0.92188 6.2617 5.3398-13.961-4.0859 1.0625-5.7383-27.449-3.1875-28.016 2.5039-22.227-0.21094-30.707-2.5039 0.92188 8.9766 9.3555 6.7578 18.07 6.3086 4.1094-0.21094 8.2695-0.70703 12.402-0.96875 6.4023-0.42578 6.875 0.92188 10.512 1.2031 6.6602 0.49609 11.691 0.23437 19.301 3.332 3.1875 1.3008 9.5898 10.254 10.441 13.699-9.875-0.61328 0.54297-11.504-30.379-9.3086-0.09375 4.8438 0.63672 3.2344 0.58984 4.0859-8.0078 2.9297-16.746 2.5273-24.969 2.5039-1.2031-0.023438-4.0391 0.023437-5.125 0.26172-3.0234 0.73047-1.0625 0.26172-2.7656 1.6523 10.746 3.3086 26.242-0.023438 38.125-1.5586l2.8359 2.6914c1.0391 0.78125-0.30859 0.40234 2.3164 1.3711 2.4102 0.875 4.1328 0.56641 6.5898 0.66016 6.0938 0.28516 8.668 0.16406 13.723 3.3789l-0.82813 6.2617c-5.6211-0.78125-10.203-3.2852-16.797-3.2109-6.6367 0.09375-3.8047 0.875-8.0547 2.0781-11.41 3.2109-33.59 0.70703-43.938 6.6602 4.9141 3.4961 29.645-2.2422 37.395-3.1172 5.3633-0.58984 14.172-1.3945 19.984-1.2031 8.3398 0.26172 10.227 3.0703 10.441 11.316-4.3008-0.56641-6.1406-1.6992-10.512-2.2188-10.938-1.3008-9.4492 0.82812-10.465 1.7734 4.3008 2.5742 8.7383 1.5586 13.844 3.1641-13.254 5.5273-40.629 7.8672-52.395 1.9609 1.1562 12.379 24.07 5.0078 31.938 4.9609 4.3477-0.046875 10.699 2.5977 16.652 3.6602 1.5352 0.28516 5.7383 1.2539 6.9922 1.9609 4.0625 2.3164 1.7969 0.023437 2.5508 2.8125 1.3711 4.9375-0.42578 2.125-0.85156 3.0234-5.7383 1.2266-10.039-1.5586-15.781 2.2188 1.8906 4.7734 0.37891 2.1016 5.8828 3.0234l-15.117 3.1641c2.9297 2.2695 5.9297 1.7227 7.9844 2.668 2.3398 1.0625-0.82812 1.3945 4.2773 3.0469 2.293 0.75781 11.645 1.3711 15.211 2.2188-0.30859 10.746-8.2422 5.1016-18.543 5.457 3.7578 8.5273 14.48 0.51953 18.52 9.1406-3.4258 1.3711-10.324-0.28516-13.652 2.6445 3.5664 2.6211 9.1172 1.9844 13.465 2.6211 0.023438 8.1016-1.8203 7.1797-9.5195 7.4883l-2.7148 7.9609c-6.4258 2.2188-16.844 3.8281-23.906 4.8203-9.8516 1.3711-19.867-2.4336-22.582-0.58984 8.7383 9.7305 33.164 0.89844 45.543-0.28516 4.0859 6.0469 8.668 2.6211 14.48 5.5273l0.28516 5.5039c-5.6914-0.42578-13.016-2.4102-17.812 1.0625 3.2852 4.5117 6.9922 1.2031 13.629 2.457 6.1875 1.1562 4.5586 4.5352 4.6523 10.488l-22.699-1.1328c2.0078 3.1172-2.4805 2.0547 5.2188 3.5195 6.3555 1.1797 11.766 0.99219 17.836 3.4961l-0.16406 7.1094-12.07-3.6602-0.73047-4.1328-5.7891 2.8594c1.8203 3.7305 5.1016 5.2422 9.5898 6.6602 4.0391 1.2773 7.9609 1.3711 9.4492 5.457-6.0703 1.6992-10.535 0.23438-15.875-1.4648-3.0703 4.7227 0.023437 2.3164-1.5117 5.9062-7.8672 0.85156-15.613 2.1016-23.48 1.7734-6.4023-0.26172-15.141-4.418-19.605-2.5977 7.418 12.426 52.844 0.30859 60.969 2.3633l-0.82812 9.1875c-5.4102-0.046875-15.141-2.3867-19.254 0.26172 2.1953 3.7578 2.4336 2.6445 8.7656 3.0234 3.5195 0.1875 6.8984 0.40234 10.867 0.99219l-0.046875 29.41-13.254-1.1562c-4.418-5.293 0.61328-4.0625-5.6914-2.5508-0.89844 5.457-0.09375 2.7383 0.75781 4.2773l1.418 3.2852c-6.9922 2.2695-15.898 2.9297-24.023 3.4492-6.1875 0.37891-20.055-2.4805-22.133-1.3477 1.7461 2.1484 1.3242 2.2188 5.5039 3.5195 8.1484 2.5742 18.426 1.0859 26.715-0.09375 10.512-1.4883 5.7656 1.5352 13.746 2.7383 5.0547 0.75781 10.867-0.070313 16.348 0.66016l-0.28516 33.07c-15.613 1.8203-14.738 0.85156-15.449-4.9375 5.9062 0.046876 6.7578 0.61328 10.773-2.1484-5.3633-3.0703-6.2852 1.4414-11.883-3.9453 0.75781-0.61328 0.78125-0.92187 2.4336-1.6523l5.0547-1.7227c0.16406-0.42578 0.63672-0.35547 0.92188-0.54297-2.668-1.6992-7.5586-1.8438-10.844-2.3633-3.8984 3.6836-3.3789 3.2344-9.9453 4.0859-4.2539 0.54297-8.6445 1.0625-12.852 1.6289-8.9062 1.2031-13.203 0.046875-20.691-0.80469-7.7227-0.875-3.4961 0.1875-4.9141 1.3711 10.203 8.4336 31.629 1.0859 44.598 0.44922l5.293 4.7969-3.9688 5.2695c4.7734 6.4023 11.293 3.3086 20.031 4.5117l0.92188 2.1719c0.44922 2.293 0.21094 0.046875 0.28516 2.4336 0.070313 1.4648-0.47266 3.3789-0.73047 5.293-10.512-0.66016-7.6055 0.80469-14.008-5.5508-5.4805 1.7461-4.418 3.1875-11.691 4.3945-28.891 4.8438-30.781-0.75781-40.109-2.0547-0.14062 9.6836 22.867 7.5117 31.371 6.5664 14.293-1.6055 19.914-3.332 34.512 1.0859l0.66016 8.8828c-5.7891 0.28516-12.73 2.7148-17.598-0.070312l-2.1719-1.7734c-0.046876-0.1875-0.33203-0.11719-0.49609-0.14062-3.4023 3.4023-1.8906 2.1484 0.09375 6.707-11.812 2.8359-24.945 8.0781-37.844 8.5039-4.0625 0.14062-9.1172-1.6289-11.551-0.28516 7.6523 9.8281 36.496-1.1562 46.961-4.3711l2.5742 3.1641c3.9219 5.293 14.316 1.8438 20.316 3.9453l0.1875 10.109-7.0859-0.30859c1.8906-3.1172 2.8594-1.0156 3.543-4.1094-22.348-1.7227-9.707 0.046875-34.582 5.5039-8.5508 1.8906-16.914 0.99219-23.812 2.2422 4.0859 10.418 42.805-6.2109 47.551-2.8359 4.582 3.2852 7.2031 1.8672 11.93 3.1641 3.3555 0.94531 2.7148 7.1328 4.3008 10.039 2.2188-1.6289 2.6445 1.2539 2.9297-8.1484 0.11719-3.5664 0.09375-6.4258 1.0156-9.0234 2.7656 6.9453-2.3867 12.285 1.3242 20.93 1.6289-2.8359 1.3711-5.9297 1.5352-9.3555l0.80469-27.52c0.49609-13.371-0.82812-24.543-0.68359-36.73 2.2188-2.5039 3.6133-4.1797 5.9062-6.8516 4.6992-5.4102 2.3633-2.2695 7.6992-4.3477 4.8672-1.9141 9.0703-8.5039 13.133-11.574l14.836-10.133c5.5977-4.2773 10.156-5.6445 15.402-9.4961 8.5039-6.2109 20.34-15.023 29.48-20.41 15.355-9.0234 29.008-21.332 43.867-30.945l56.93-42.828c4.1562-3.875 8.8594-6.543 14.551-10.324 2.8828-1.9141 4.418-3.8047 7.6055-5.5742 12.188-6.8281 6.7812-4.6055 13.984-9.6133 5.1016-3.5664 4.8906 0.37891 7.2031-4.582-3.8281-2.5977-5.1953-0.66016-7.6758 1.4648-9.4023 8.0781-20.102 14.906-30.781 21.73-12.402 7.9141-22.844 20.055-35.363 27.637-9.9688 6.0234-14.219 11.93-24 18l-25.559 17.738c-8.6211 6.0938-69.164 48.117-75.781 49.605 4.6289-7.2266 15.875-9.7578 20.551-17.789-4.0156 1.5117-9.7812 5.6445-14.812 8.3633-5.668 3.0469-9.7578 5.7383-14.008 9.6133-9.0469 8.2422-7.6289 4.5586-11.551 12.309-2.6914 5.3398-8.3164 7.3008-11.598 10.582l0.37891-42.449c10.723-3.6133 15.164-8.9062 22.488-14.836l21.496-15.047-6.543 0.046875c8.125-5.4805 14.41-11.316 22.891-16.676 8.457-5.3867 15.66-10.016 24.188-15.188 9.8281-5.9766 42.969-23.691 47.148-29.859l-35.102 19.582c-12.117 7.0625-22.133 13.203-33.496 20.34-12.449 7.8203-53.055 41.574-63.379 43.652-0.40234-5.9297-2.1719-11.93 3.4727-14.148 9.0938-3.5898 13.938-9.6602 22.109-14.836 3.1406-1.9844 8.5273-2.9062 11.715-5.0312-3.9688-3.1641-7.7734-0.82812-12.402 0.73047l11.953-10.699c12.332-10.914 26.715-20.031 40.652-28.891 9.3555-5.9531 18.402-11.812 28.914-17.031 5.6445-2.8125 28.109-12.473 30.613-14.836-14.906-0.42578-60 29.102-71.219 35.93l-30.969 22.82c-6.0703 5.0781-10.418 4.8438-16.82 9.4492-6.1875 4.418-10.016 7.0625-15.402 10.773 0.14062 5.3398 1.4414 4.9141-1.9375 8.457l-2.1016-32.48c9.8984 4.2773 21.707-14.125 36.59-15.922-0.80469-3.9219-0.023438-1.3477-1.7734-5.1016 6.8984-2.4336 11.598-7.5586 17.27-11.859 5.8359-4.418 11.293-8.2695 16.844-12l70.348-43.82c6.4727-3.6602 11.621-6.7812 18.141-10.773 4.6992-2.8828 13.82-5.4336 16.652-10.512-12.402 2.457-69.758 39.496-83.078 47.766-14.93 9.2617-68.195 48.023-76.559 52.488l3.2617-8.2188c0.023437-2.5742 7.582-5.0547 10.156-6.3086 4.8438-2.3633 6.8984-1.2539 9.6133-4.4414-11.859-2.5508-27.047 12.898-38.859 14.242l-0.16406-7.8203c5.668-6.5898 23.293-16.984 34.156-19.773-0.09375-0.30859-0.33203-0.73047-0.42578-0.92188l-2.0547-3.8281c19.746-12.141 38.906-26.598 58.914-38.34l93.426-57.59c4.6523-2.8125 2.3164-0.70703 3.5898-3.8047-17.148 7.5586-115.96 70.039-133.46 81.332l-41.645 27.684c-0.49609-5.0547 4.8672-6.5664 8.8828-9.2344 4.6758-3.1172 9.7578-3.3086 11.172-8.1719-10.961-0.33203-24.047 15.613-34.535 18.852 0.070313-6.7305 1.0625-7.0391 5.5977-10.062 9.5195-6.332 16.227-11.883 27.332-16.039 0.49609-6.6367-5.2422-1.6055 1.0156-6.6367 13.348-10.746 78.262-49.301 95.738-59.293 5.1953-2.9766 11.93-4.6992 14.527-9.6836-8.8828 2.4102-26.906 13.844-34.488 18.613-10.746 6.707-21.898 12.828-32.621 19.844l-63.543 40.418c1.7461-4.6992 2.4805-2.2695 1.4648-5.5977-4.3008 2.3633-2.5039 1.6055-2.7383 7.9141-4.6055 2.6211-8.0078 6.8516-13.062 8.0312v-9.2617c3.6836-2.4805 6.3555-2.6914 10.016-5.6445 8.293-6.6836 16.629-14.766 28.441-16.348-2.2422-3.7305 0.78125-0.99219-3.9453-3.7812 28.914-19.891 62.27-40.418 94.324-56.621l5.4805-4.2539c-14.387 3.6836-70.914 37.914-87.047 48.66l-47.598 33.309c1.7969-6.4023 6.8281-9.543 12.473-13.301l12.781-6.707c3.6602-2.1719 1.3477-0.78125 2.7891-2.7656-6.7812-3.0703-22.062 11.055-27.707 13.277 0.66016-6.7812 3.707-6.1641 9.1641-10.746 5.0312-4.2031 4.1797-5.5039 10.652-7.9141 8.5273-3.1875 26.148-15.188 34.441-20.504 3.5195-2.2695 6.8984-3.8047 11.387-6.9453 7.3008-5.0781 14.621-9.5898 21.898-14.836 6.707-4.7969 15.613-10.227 22.395-14.316 11.551-6.9922 59.977-43.133 68.691-41.434l7.7734 5.0078c2.2188-0.61328 1.6758-0.78125 2.6914-1.3477 6.7578-3.5898 15.473 0.78125 22.512 1.7969 9.6836 1.418 18.262 1.2266 27.59 3.1641 17.078 3.543 35.789 4.0391 54.117 6.332-0.75781 4.3008-4.7461 8.7656-7.2539 12.262-7.7734 10.867-40.488 71.883-44.34 81.613-4.3945 11.148-5.5508 8.9297-6.4023 14.293 6.2344-0.68359 7.6523-6.8281 10.109-11.93l13.773-29.457c2.668-4.9844 4.8672-8.3398 7.6055-13.395 5.0547-9.2344 16.652-32.883 23.883-40.441 4.6992-4.9141 2.9531-6.8984 8.7891-12.402-1.8203-5.7383-3.9688-10.039-8.1719-14.434 1.582-4.5352 0.80469-0.68359 2.3867-5.2695-7.3711-4.0625-17.055-1.8203-28.348-4.1562-21.684-4.4648-71.195-8.9766-93.449-8.6914-9.9219 14.977-77.766 44.434-97.652 60.852-9.4492 7.8203-22.109 12.875-33.402 18.992-8.3164 4.5352-34.062 26.41-41.668 27.379l1.3477-9.9453c0.046875-16.629 4.1328-18.473-5.8828-31.773-12.543-16.605-20.504-30.945-33.969-47.387-3.6133-4.3945-2.7656-4.2773-5.293-7.8906-1.6992-2.4336-4.0859-5.0312-5.6914-7.3711-5.5508-8.0781-14.859-27.379-25.746-26.789l-46.301 73.18c-4.1797 6.543-9.1172 10.984-12.758 17.457-4.6289 8.2188-6.875 11.48-8.2422 20.738-2.0781 14.27 4.7969 34.891 2.3164 53.41-45.402 2.0312-91.984 0.21094-137.34-1.2266-22.371-0.70703-44.363-2.5273-66.73-3.4258-6.3555-0.26172-12.234 0.58984-18.402 0.23438-5.3867-0.30859-10.395-1.3945-15.707-1.3008-20.668 0.33203-45.234 3.7578-65.883-1.4883-4.4414-1.1094-10.441-2.1719-14.621-0.44922-15.188 6.2852-36.285 25.605-51.566 34.984l-37.676 24.023c-3.8047 2.2695-3.1875 1.1094-5.5977 2.3398-8.4336 4.3477-8.5508 16.488-11.457 23.93-5.4805 14.031-1.6055 15.758-1.7969 19.605-0.23438 5.0312-0.96875-0.94531-1.0391 5.125 16.301 6.707 16.676 6.875 31.254 17.242 5.0312 3.5664 8.8594 7.6289 14.242 10.699 5.6211 3.2344 9.6133 5.1016 14.977 8.6211 4.9609 3.2617 10.938 6.707 15.141 9.8281 8.7656 6.5195 18 14.93 27.781 20.766 14.293 8.5039 6.5664 3.3555 10.109 10.797 5.2188 1.1328 33.426-1.2539 39.59-2.125 30.426-4.2773 88.133-6.1406 117.9-5.3633 26.195 0.70703 53.055 1.6055 80.055 1.8672 13.227 0.11719 72.781 0.89844 79.016 4.1328 2.7383 16.039 1.8672 36.66 2.7891 54.07 0.51953 9.6602-1.0156 18.922-0.35547 28.891 0.56641 8.3633 0.80469 17.125 1.1328 26.387 3.9219-7.6523 0.1875-92.219-0.40234-107.79-0.66016-16.844-0.82812-36.211-1.8672-52.559-0.49609-7.3945 1.2539-8.457 1.4414-11.645 1.2031-20.598-5.2422-27.852 1.2773-32.883-2.293-4.582-2.1484-1.8438-1.6055-7.8672 3.6367-1.6055 1.8672 0.11719 4.8203-2.9531l-4.8672-2.3164c-1.2539-9.4023 1.2031-9.4258 1.2773-15.73l-1.1797-30.234c-0.070312-4.7461 0.44922-2.457-0.47266-7.2773-1.7461-9.3086 1.5586-6.5898 4.3945-13.914l-4.9375-2.3867z" fill-rule="evenodd"/>
 <path d="m956.84 881.62c-0.11719-2.0078 1.1094-0.82812 0.96875 0.09375-0.28516 1.7461-0.875 1.6992-0.96875-0.09375zm3.9219-5.8125c5.1719 5.1719 5.457-0.40234 12.543-0.54297-0.99219 5.0078-2.5977 6.707-7.9375 7.6289-2.8359-2.293-2.7383-4.0391-4.6055-7.0859zm-11.859-6.0234c4.2031 1.582 2.2188-2.3164 4.0859 3.5195zm19.062-1.2773c0.28516-0.23437 0.66016-1.0859 0.80469-0.73047 0.11719 0.30859 0.66016-0.47266 0.82812-0.44922 3.2617 0.33203 0.68359-0.33203 2.668 1.1797-3.3555 1.6523-0.11719 2.0547-4.3008 0zm-10.465 2.6914c-3.2344-6.1641-1.8438-2.9297 3.6836-6.1875-0.42578 2.3633 0.046874 1.582-1.0859 3.4023-2.1484 3.543-1.6523 1.8906-2.5977 2.7891zm9.6133-14.27c0.16406 4.6055 1.6992 2.7148-3.2344 3.5664zm-9.332-10.746-0.35547-6.7305c2.0312 1.7734 8.8359 12.379 6.6367 15.379-0.58984-1.3711 3.0469-0.35547-6.2852-8.6445zm-14.434-5.3398c5.7148 1.0859 1.8672-1.2773 3.9922 3.4961 0.70703 1.5352-0.16406 0.875 1.0859 2.8125l9.8047 12.164-3.1406 3.9688c-3.2109-2.9062-9.5195-17.41-11.738-22.441zm-6.5898-11.691c5.9297 2.4805 4.1328 0.68359 10.961 1.6992l-0.30859 4.9844c-6.9922-1.418-1.7969-0.875-6.4023-3.4492-3.3789-1.8906-1.1797 0.023437-4.2539-3.2344zm-14.766-6.6602c5.9062-1.5117 6.7305-0.28516 7.7461 5.2695-4.3711-0.78125-1.3711 0.51953-4.5586-1.7969-2.8594-2.0781-1.9609-1.7734-3.1875-3.4727zm22.371-10.348c3.875 3.2109 3.4492 5.0078 6.3555 10.676 2.2695 4.4414 3.3555 6.332 5.7383 11.551-1.3477 2.5273-1.6055 6.7578-2.9062 10.395-5.7383-2.7383-0.89844-3.1406-1.5352-8.6445-0.49609-4.2539-2.1719-6.2109-2.8594-10.441l-5.9766 0.14062c-0.33203-5.9062 0.58984-5.1484 0.78125-7.5586 0.49609-6.2617-4.2539-0.16406 0.40234-6.1172zm-19.324-14.551 0.94531-3.4258zm-12.449-12.211 4.2031-2.2188c2.2188 3.9453-0.85156 4.7227 5.0781 7.9844l-2.0781 9.8984c5.457 3.7812 3.6367 1.1562 5.3398 7.8906 8.4805 3.0469 7.0156 0.30859 9.875 9.707l5.3867 2.0312c-2.0781 4.1328-2.2695 2.3633-8.1719 2.1719-1.582-3.9922-2.7148-4.1797-4.6523-8.3867-8.0078-17.316-15.094-20.387-14.977-29.078zm-4.2773-6.2852c4.3477 1.6523 3.0234-1.1797 2.8125 3.5664-3.0469-1.0625-1.418 1.2266-2.8125-3.5664zm-15.117-28.676c3.1406 0.96875-0.11719-0.58984 1.9375 0.68359 14.953 9.3789 23.293 5.7383 37.582 38.363 3.0703 6.9922 7.1094 10.227 9.6602 18.875l-8.2188-0.37891 0.73047-6.3789-4.8672-2.4102 0.1875-9.543-9.0234-4.0859c-1.8906-11.055-0.56641-15.66-8.3164-13.605-3.8281-6.2344 1.0859-2.0078-6.1641-5.7891 4.8203-4.1797 2.5742 0.875 3.9219-5.7891-5.7656-1.2773-2.668 0.21094-8.2695 1.1094-1.7734-2.0312-0.96875-2.2695-4.0625-5.7148-2.7148-3.0234-3.0938-2.5508-5.1016-5.3398zm-11.48 6.1875c5.3633 2.3398 10.156 3.4258 13.441 7.582-7.2773-1.2266-30.781-12.332-36.637-15.852-5.3164-3.1875-10.133-5.8594-15.781-9.1641-32.125-18.945-83.812-46.324-110.67-63.898l-96.141-53.48c1.5352-1.6523 5.7891-4.418 7.9375-5.3633 4.6055-2.0547 3.2344-1.8906 8.5508 0.58984l32.668 17.316c6.1875 3.2109 10.418 4.9141 16.016 8.9062l126.47 72.922c4.4648 1.8906 54.758 26.715 57.285 30.73 2.7891 4.4414-0.44922 2.3164 1.4648 7.3477-8.0547-1.3008-9.543-5.8359-15.023-6.0703 0.35547 5.4805 5.5508 6.3086 10.418 8.4336zm-226.32-148.16c-6.7578-0.26172-15.426 2.6445-21.945 4.3945-4.8438 1.3242-3.8281 2.2695-8.125 4.8906-4.0156 2.457-4.6523 1.5586-4.9844 6.6836 7.1562 3.2344 11.316-1.0391 21.52 5.9062 5.2422 3.5664 11.34 6.0703 17.078 9.2109 6.4961 3.5664 11.504 6.1406 17.598 9.9219 5.668 3.5195 11.645 4.9375 17.789 8.4336 28.723 16.418 56.598 33.707 85.773 49.418l34.535 19.277c11.812 7.6523 38.504 24.188 50.738 29.293 22.914 9.5195 13.086 9.332 24.309 16.371 3.1172 1.9609 6 3.1641 7.8672 5.9062-11.41 0.35547-29.148-9.3086-42.164-13.605-4.5352-1.5117-10.773-3.6602-15.141-1.0156 2.7383 2.9297 15.023 4.2539 19.605 5.7891l27.59 10.227c5.4336 1.7734 4.0156 2.1016 8.4805 3.4727 9 2.7383 11.93-0.070313 13.277 10.512l-20.812-6.8516c-5.8125-2.7148-13.676-9.332-17.387-10.371 1.9844 7.9141 12.543 11.008 20.316 13.984 6.4961 2.5039 6.0469 4.0859 10.844 6.1875 7.2266 3.1875 8.0781-0.56641 11.621 3.7812-8.5977 4.4648-25.441-5.0078-33.047-9.6133-5.0547-3.0703 0.61328-0.30859-5.1953-2.9531 1.6523 4.6992 0.070312 2.9297 3.8047 5.5273 10.914 7.5586 25.676 13.277 39.309 11.953 1.2539 3.2852 4.3008 7.2773 3.8984 11.293-6.8984 0.54297-0.70703-1.582-8.8125-3.707 1.0625 8.6445 1.9141 3.9922 4.2031 9.6602-9.332-0.89844-23.172-12.637-32.551-13.062 2.293 5.2188 11.953 7.4648 17.457 10.109 6 2.9062 11.715 5.8594 17.789 8.5273l-0.58984 3.0703c-0.30859 1.7227-0.33203 0.63672-0.51953 3.3086 6.7812 4.6289 9.4961 4.3242 16.629 2.9766l2.2695 6.543c-9.3555-1.6992-5.4805-1.9844-18.496-4.8906-16.961-3.7812-34.062-18.07-43.867-21.637 1.3242 6.8984 9.4023 9.1641 15.473 12.094 6.2617 3.0469 11.551 5.9062 17.598 8.6445 8.5977 3.8984 11.668 3.2344 18.992 8.5977 10.797 7.9141 15.992-1.9844 16.746 9.7812-12.852 1.7227-8.3633-4.5586-17.836-6.4023 2.0547 7.5586 5.3633 4.9141 7.0156 13.156-7.5352-1.3008-16.961-5.0312-23.621-8.0312-5.7383-2.5508-16.109-9-19.371-9.7305 0.1875 5.0547 3.875 5.1484 9.3555 7.9141 11.953 6 23.977 11.195 37.227 14.031l1.2773 5.9531c-3.0469-0.75781-0.16406 0.21094-2.9531-1.3945-3.4258-1.9375 0.61328-0.26172-3.1172-1.7734l-1.6055 7.3945c-5.3398-1.0156-14.078-6.8281-19.18-9.6133l-17.977-10.395c1.9844 7.2773 11.387 9.875 17.598 13.395 5.2695 2.9766 14.812 6.4727 16.652 11.504-5.6211 1.3711-4.8672 0.94531-10.277 0.89844-7.2266-0.070313-3.332 0.82812-6.8984 1.3711-4.1797 0.61328-9.6602-4.3242-13.109-5.6445 1.2773 6.1875 5.2422 5.6445 9.0938 11.41l-27.426-4.0156c3.9688 4.5586 6.875 2.6211 9.5664 8.9766l-14.457-4.9609c-6.6367 3.9219 0.75781 3.4492-9.1641 1.4648 1.1797 3.5195 3.332 4.418 5.4102 6.9219-6.8281 2.1953-8.5742-3.7578-15.59-7.1797-10.395-5.0781-18.707-15.52-28.652-19.891-16.18-7.0859-31.324-18.094-46.629-25.512-10.582-5.125-22.773-10.582-32.551-15.992-10.441-5.7891-22.723-9.6836-32.883-15.684-20.008-11.836-41.078-24.59-62.41-34.773-6.6836-3.1875-24.758-17.219-32.34-12.426 2.1016 4.8203 11.883 6 16.676 8.4336l46.676 24.211c20.504 12.426 41.008 22.277 62.906 32.883 22.016 10.652 41.906 22.465 63.164 32.621 11.789 5.6211 19.395 12.332 28.652 18.637 15.637 10.605 20.219 11.504 26.219 21.66 7.2266-1.6289 12.496-5.2188 20.504-4.3008 9.4727 1.1094 11.766 1.1328 17.574-4.6289l10.488 0.26172c7.1328-8.1016 21.023-1.7969 30.945-1.6289-3.9453-0.99219-4.5352-1.3945-7.5352-3.4492 2.9062-0.28516 6.9219-0.046874 9.1875-0.42578 2.5742-0.40234 3.4961-1.6758 6.8047-1.9844 5.3398-0.47266 10.699 1.5352 14.363-0.023437 6.3789-3.5195 0.56641-4.6992 9.7578-7.582-0.44922-11.668 0.49609-1.8906 3.1406-9.707-3.0234-8.8359-8.2422-15.898-12.047-24.473-1.9609-4.418-3.9922-6.7578-5.9062-12.52-1.9375-5.8828-3.4258-7.3945-6.0234-12.262-11.859-22.156-19.512-37.82-32.621-59.219-6.2344-10.203-11.27-8.5508-21.496-15.211-6.8047-4.418-6.2344-2.4336-12.945-5.457l-73.016-37.277c-7.3242-4.6523-14.219-9.6367-22.773-13.961-28.039-14.125-54.262-31.086-81.566-46.984-8.293-4.8203-14.434-9.4258-23.316-13.512l-36.332-19.512 3.8984-3.5898z" fill-rule="evenodd"/>
 <path d="m678.99 974.91c0.42578-0.14062 1.8203-0.58984 2.0547-0.58984 1.8438 0.046875 1.2539 0.023438 2.3398 0.49609-2.3164 1.6289-2.2188 1.3711-4.3945 0.09375zm-21.66-121.35c-18.449-4.6992-16.914-1.2266-25.324-11.668-2.0078 2.5039-2.7148 2.1953-0.14062 5.5977 0.68359 0.89844 2.8359 2.0547 4.0391 2.6445 7.7969 3.8516 13.699 5.0078 22.348 6.5195 6.6836 1.1562 5.2188 0.47266 9.2109 5.0547 4.7227 0 10.016-1.6289 14.457 0.23438l-0.28516 4.9609c-8.6445 1.8438-7.7227-0.49609-8.7891-1.2539-0.1875-0.11719-0.61328-0.21094-0.73047-0.61328-0.11719-0.40234-0.44922-0.44922-0.73047-0.58984-4.8438 1.582-4.4883 0.046876-5.2695 5.5273 5.293 1.8438 9.875 0.89844 15.969 0.51953l-0.14063 19.961c-26.504 0.30859-12.473-6.0938-21.164-0.94531 0.85156 5.5273 4.1328 4.6758 10.582 4.7227 6.2109 0.046875 9.3555-2.1953 11.859 1.8203-2.7891 5.0547-9.7578 3.9219-15.828 3.9219-5.6914 0.023438-10.652 1.2031-16.82 1.8906-24.164 2.7148-25.867 0.56641-30.379 0.92188-2.8125 0.21094-2.125 0.68359-2.9297 1.1562 9.8984 6.4023 26.859 0.54297 38.812 1.1094 2.0078 5.7656-0.70703 2.5273 7.0625 7.4648l3 1.9141c2.1016-2.5508 8.8594-2.7383 11.836-3.7305-5.457-4.6055-10.016 1.1328-17.93-4.3242 2.5273-4.3945 16.465-5.1016 21.852-5.0781l1.4648 34.82c-6.2617-0.51953-13.371 2.9531-19.348-2.0078 2.5977-3.2852 3.332-1.1562 5.2188-4.5352-16.109 1.5586-43.18 6.4023-55.723-4.6289 0.11719-4.9844-0.1875-2.3398 1.5352-6.4023-3 2.9062-3.6836 3.0703-3.875 9.0234 14.172 11.219 28.699 6.6836 47.102 6.1172l5.0547 5.4805c8.0078 0.70703 13.512-0.875 20.102-3l-0.73047 6.8281c-8.4102 3.3789-11.504-1.1562-17.41 4.2539 3.6602 4.7227 6.1406 0.47266 13.227 0.26172 5.457-0.14062 2.5742 0.37891 4.0391 1.0625-1.7969 5.1484-1.5352 4.2539-15.59 6-16.465 2.0547-42.613 5.7656-55.773-3.5664l-0.63672-8.1719-4.2031 3.4258c2.293 21.262 43.699 12.023 61.254 11.527l3.8047 4.3008 11.812-2.0078c0.49609 7.6758 7.1562 9.9922-18.07 13.559 2.0312 4.5117 1.6992-0.11719 1.3711 4.1094-9.0938 3.875-35.27 5.8828-49.676 0 2.1016 11.48 23.836 6.1641 34.867 6.1172 1.9844 3.7812 1.5586 4.9844 5.8594 6.2617 3.8047 1.1328 6.3086 0.73047 9.875 1.8438 3.8516-4.4648 6.6367-1.1797 9.2344-6.6602-5.9531-2.668-10.844 2.125-19.441 1.0156 3.5664-5.8125 16.699-5.3867 25.535-7.1328 1.6758 8.5977 2.7383 36.805 1.4648 45.543-6.2852 0.26172-22.016 0.92188-24.613 6.6602 4.7461 1.582 8.7656-1.0156 14.387-2.7148 16.867-5.0781 15.758-2.1719 15.332-11.883-0.56641-12.496-3.5664-9.2109-2.2422-20.93 1.1562-10.395-1.8906-23.242 0.23438-34.18 2.7148-1.5352 3.7812-1.5586 6.2852-2.6211 7.0391-2.9297 2.5039 0.61328 4.1094-4.2031l-11.34-0.30859c-0.21094-11.789 1.6289 4.8672 4.3008-10.016l-4.2773-2.5273-0.99219-41.738c-1.0625-10.133-2.5508-27.781-2.3164-38.457l3.6602-3.6367c-6.543-3.0234-6.9453 0.63672-14.598-0.99219-5.0078-1.0625-9.9453-2.3633-14.836-3.6133z" fill-rule="evenodd"/>
 <path d="m547.23 862.58c1.9375-15.234 2.3164-29.551 0.046876-44.293-2.0781-13.418 0.70703-33.781 0.56641-46.867-0.09375-7.4414-0.94531-14.102-0.99219-22.348l0.94531-69.566c-0.21094-6.3086-4.6758-17.691-4.6758-17.789-0.070313-0.54297-0.37891-0.63672-0.56641-0.94531-0.80469 15.262 1.6758 31.395 1.5352 47.621-0.14063 15.52-1.2266 31.062-0.94531 47.242 0.99219 53.691 2.3633 87.852 0.96875 141.73-0.42578 16.301 2.668 32.008 1.8906 47.242-0.80469 15.52-0.21094 31.395-1.4648 47.242-1.2773 16.156 3.0703 22.301-0.58984 32.836-1.582 4.582-1.0859 4.5117 3.707 5.0781 1.3008-7.7969-0.49609-16.039-1.418-23.434l-0.16406-49.914c0.26172-7.9844 1.0859-13.938 1.1094-22.301l0.046874-71.551z" fill-rule="evenodd"/>
 <path d="m623.27 691.3c0.44922-32.387 3.8281-21.781 0.11719-64.18-3.5195 1.1562-4.1094 0.16406-3.6602 5.5273 1.0625 12.73-1.0391 90.875-2.2422 100.51-0.99219 7.9375-5.7383 27.805-1.2031 34.395 5.1719-2.3164 2.5977 1.3945 1.6992-6.6602l3.7305-2.6211c2.125-23.812 1.2266-43.348 1.5586-66.969z" fill-rule="evenodd"/>
 <path d="m693.99 510c3.6602-0.66016 19.82-16.18 28.82-23.102l12.023-9.0469c1.9141-1.6992 2.2695-3.0234 4.1328-4.9844 7.1797-7.5352 27.875-18.992 38.293-24.73 2.9766-1.6523 4.4648-2.0547 7.0859-3.4258 0.61328-0.33203 2.5273-1.4883 3.2344-2.0547 1.2539-0.99219 1.1797-1.1562 2.0547-2.1484-17.055 4.0625-66.992 38.293-76.652 48.355-7.6055 7.9375-9.4727 7.3008-11.434 9.8516-6.3086 8.2695-6.9688 6.8984-7.5586 11.293z" fill-rule="evenodd"/>
 <path d="m617.05 1004.3c9.4258 8.7656 49.109 1.582 59.621-3.2109-0.35547-0.58984 1.9375-3.0234-3.0469-1.7461-2.1484 0.54297 1.2539 0.92188-4.7969 2.0547-7.1562 1.3242-10.629-1.2266-12.758 0l-34.324 2.0078-2.3398-4.3945c-0.09375-0.49609-0.35547-0.58984-0.54297-0.89844l-1.8203 6.1875z" fill-rule="evenodd"/>
 <path d="m683.84 823.84c-0.046876-11.078-1.582-8.9531-2.668-15.898-2.3164 1.8438-1.5586-3.2344-1.6289 4.9609 0 0.070312 0.47266 3.875 0.51953 4.3711 0.42578 4.3008 0.82812 5.7148-0.11719 9.875-5.2695-0.11719-10.961-1.4414-16.395 0.68359 2.8359 5.2695 4.9609 1.2539 17.598 3.5898l-0.28516 10.984c-17.008-1.3008-5.7656-3.0234-13.773-5.5273l-0.56641 5.3867c2.5977 1.8672 5.1719 2.6211 8.0078 3.1875 8.2422 1.6523 5.2695-1.3477 7.2539 4.0391l1.6055-1.4883c3.6602-2.5273 3.1172-0.61328 6-3.4258l-6.0703-2.125c-0.47266-5.7656 0.54297-12 0.51953-18.613z" fill-rule="evenodd"/>
 <path d="m630.78 877.75c-0.66016-10.582 5.8828-7.3477 11.766-13.156-3.9453 0.33203-5.0547 1.2773-9.2852 2.4102-3.9453 1.0625-5.3633 1.8203-6.1641 5.8125-3.9688 19.867 45.613 10.156 52.418 6.1875l-12.07-3.6602c-1.2266 1.8672-1.4414 2.8125-2.6211 4.8203-11.766 2.1016-25.348 2.7383-34.039-2.4102z" fill-rule="evenodd"/>
 <path d="m464.39 533.88c4.6289 5.8828 24.66 3.1641 33.684 4.1562 21.805 2.4336 24.332 7.8672 29.504 1.0859-2.0781-4.2539-2.6445-3.5195-7.1094-4.9844-6.6602 3.543 1.2773 5.1484-11.93 2.6445-14.293-2.7148-19.301-1.582-31.465-2.6914-5.4805-0.49609-9.0703-3.0469-12.684-0.21094z" fill-rule="evenodd"/>
 <path d="m452.77 520.75c2.0312 3.4258 2.7891 2.7383 8.5977 3 3.4727 0.1875 7.0391 0.09375 10.535 0.11719 20.527 0 39.73 2.9531 58.301 2.6914-0.28516-4.3242-0.73047-2.9062-4.4883-5.4336-4.2266 1.3008-1.1562-0.73047-3.9453 3.4258-4.6523-0.070313-66.473-5.8594-69-3.8047z" fill-rule="evenodd"/>
 <path d="m518.62 504.52c-3.5898 0.89844-51.52-7.4648-54.781-6.0703 3.7305 3.3555-3.8516-0.16406 2.7148 2.6914l14.598 1.6758c14.645 0.73047 46.133 7.418 54.992 2.1953-7.7734-5.2695-16.301-0.78125-17.527-0.49609z" fill-rule="evenodd"/>
 <path d="m618.14 484.75c-6.707-1.7969-4.1328-3.6133-8.4336-6.9219-3.5195 4.9141 2.8828 8.7656 6.8281 9.9453 7.2539 2.1719 39.543 0.96875 46.441-4.4883-8.9766-1.1797-33.449 4.5117-44.836 1.4648z" fill-rule="evenodd"/>
 <path d="m627.19 1015.9c0.51953 1.582-1.5117 4.4883 7.6992 5.668l37.227-0.30859-0.023437-5.125c-6.5664-0.61328-8.1953 3.4727-13.82-0.58984-4.7461 2.1953-0.58984 1.8672-6.5195 2.7148-2.4102 0.33203-6.707 0.16406-9.2344 0.14062-7.8203-0.070313-11.242-2.3867-15.332-2.5039z" fill-rule="evenodd"/>
 <path d="m613.75 380.53c2.0547 13.395 40.016 2.9297 47.242-0.09375-2.9062-1.6055-6.875-0.33203-11.715 0.35547-22.254 3.1875-15.309 4.418-35.527-0.26172z" fill-rule="evenodd"/>
 <path d="m688.3 447.26c5.0312 2.2188 14.41-6.543 17.242-9.1406l15.047-11.242c0.11719-0.40234 0.49609-0.40234 0.75781-0.61328-2.7891-1.6055-1.6289-3.2109-9.2617 2.6211-2.7656 2.125-5.1016 4.1562-8.1016 6.3555-9.1875 6.6367-13.867 6.6602-15.684 12.023z" fill-rule="evenodd"/>
 <path d="m825.76 740.81c2.4336 3.9219-1.418 2.1484 5.5508 5.8828l35.906 16.488c3.7812 2.3633 4.6523 9.4492 12.023 5.5977l-12.262-7.6523c-5.1719-1.9609-8.4102-4.0391-13.535-6.332z" fill-rule="evenodd"/>
 <path d="m640.2 424.44c-16.629-1.7227-8.7148-3.5898-16.465-6.6133 0.66016 5.9062 1.1094 6.3555 5.8594 8.1953 3.4492 1.3711 25.797 4.3242 32.812-1.2773-7.3242-0.37891-15.117 0.42578-22.203-0.30859z" fill-rule="evenodd"/>
 <path d="m648.29 800.55c1.9609 2.1016-4.4883 0.37891 6.1875 3.2344 4.7227 1.2539 4.4883 2.3867 7.3008 3.5195 6.2852 2.5039 7.6758-2.668 17.527-1.9844l-3.7305-1.2031c-6.6133-1.6523-21.805-5.1484-27.285-3.5664z" fill-rule="evenodd"/>
 <path d="m686.86 414.45c5.0312 2.293 8.1484-3.4258 13.559-6.4023 4.2539-2.3398 10.371-4.9609 12.805-8.0312-3.6602-1.7461-24.164 8.1016-26.363 14.434z" fill-rule="evenodd"/>
 <path d="m655.09 925.49c6.8516 2.8594 19.559 0.30859 25.535-1.5352-3.6367-3.3086-7.0391-1.8672-14.172-1.1562-8.8594 0.875-7.2266-1.1562-10.18-1.8438-1.8203 3.1641-1.5352 0.26172-1.1797 4.5352z" fill-rule="evenodd"/>
 <path d="m513.45 417.07c0.33203 0.16406 0.78125 0.070313 0.96875 0.47266l22.961 2.1719c-1.9609-3.543-5.1953-4.3008-10.348-4.9375-15.945-1.9375-12.285 1.3477-13.582 2.293z" fill-rule="evenodd"/>
 <path d="m615.64 365.17c6.6602 0.82812 19.109 1.2773 24.684-3.2109-4.418-2.2422-4.1797-0.94531-6.0234-0.66016-10.582 1.582-16.844-0.54297-18.66 3.875z" fill-rule="evenodd"/>
 <path d="m668.74 490.51c-4.3242-0.94531-1.9141 0.85156-13.418-1.8203l-1.582 0.023438-0.68359 3.4727c3.875 1.3945 4.2031 1.4414 9.1172 1.7227 11.836 0.63672 8.2422-0.82812 9.6836-2.0312-2.1016-1.2031 1.7461-0.30859-3.1172-1.3711z" fill-rule="evenodd"/>
 <path d="m674.01 478.75c-3.3789-3.3555-9.9453-3.4727-14.93-2.0078-3.8047 1.1328-2.1953 0.99219-3.4961 2.0078 4.0859 3.5664 2.5508 1.8203 9.2344 1.4414 5.1016-0.28516 5.2695 0.89844 9.1875-1.4414z" fill-rule="evenodd"/>
 <path d="m469.46 400.02c6.1172 2.7148 29.031 2.8359 37.629 2.0781-6.5664-1.3477-10.746-1.2539-18.117-1.5117-3.0234-0.09375-7.3242-0.42578-10.227-0.80469-5.8828-0.73047-5.457-1.7734-9.2852 0.23438z" fill-rule="evenodd"/>
 <path d="m662.5 520.37c-3.9219-0.75781-5.668-2.0547-8.6914-0.92188 1.6523 2.1016-3.3789 0.94531 3.3555 3.6836 0.75781 0.28516 10.016 2.8125 13.016 1.5586-1.6992-4.1797-2.0781-3.2344-7.6758-4.3242z" fill-rule="evenodd"/>
 <path d="m600.45 233.36 14.645 2.0547c8.2422-0.14062 3.4727-0.58984 4.7734-2.0547-4.1562-1.4883-18.707-5.0547-19.418 0z" fill-rule="evenodd"/>
 <path d="m664.7 815.93c-5.3398-1.1328-5.1719-1.7969-7.3242 1.3945 2.4336 1.582 5.1719 2.0312 8.7383 2.6211 10.984 1.7969 8.5977-0.92187 9.0469-1.3008-2.3633-1.3242-7.5117-2.0781-10.465-2.7148z" fill-rule="evenodd"/>
 <path d="m519.61 427.28 15.449 0.44922c-1.6992-3.5195-2.9766-4.0156-8.1016-4.1562-4.5117-0.14062-6.5664-0.26172-7.3477 3.707z" fill-rule="evenodd"/>
 <path d="m524.48 515.81c4.3242-0.42578 4.8672 0.21094 8.0547-1.6289l-4.582-1.9375c-0.44922-0.070313-4.4883-0.33203-4.9141-0.33203-4.7461 0.11719-4.5117-0.23437-5.9766 3.2617 3.7578 2.4805 2.0781 1.1562 7.418 0.63672z" fill-rule="evenodd"/>
 <path d="m507.33 384.29c1.2773-2.0547 0.61328-2.9297 1.8906-7.3711l-8.0781 2.3164c0.63672 5.3398 1.1562 5.2422 6.1875 5.0547z" fill-rule="evenodd"/>
 <path d="m647.69 820.89c2.1719 2.0781-0.96875 3.8984 7.8672 3.9453 3.6836 0.023437 7.8438 0.046874 10.301-1.3008l-18.164-2.6445z" fill-rule="evenodd"/>
 <path d="m827.43 376.65c5.9531-1.4414 2.5039 0.47266 3.8516-2.8828z" fill-rule="evenodd"/>
 <path d="m860.22 320.77-2.6211 3.5898c3.0938-1.5117 1.9141 0.26172 2.6211-3.5898z" fill-rule="evenodd"/>
</svg>
