<?xml version="1.0" encoding="UTF-8"?>
<svg width="1200pt" height="1200pt" version="1.1" viewBox="0 0 1200 1200" xmlns="http://www.w3.org/2000/svg">
 <path d="m219.66 1088.4c-7.3477 4.6992-9.8047 3-14.195-0.37891 1.6758-3.5195-6.1875-4.0859 5.7656-3.3789 4.5352 0.26172 6.2344 1.8672 8.4336 3.7578zm-84.852-133.89c2.7383 7.7461 6.2109 6.8281 15.59 11.27 30.707 14.504 94.133 46.348 121.42 55.582l16.062 4.582c7.582 3.1641 3.5195 1.7969 6.0234 3.9453l-33.52 0.92187c17.242 12.945 48.332-1.2539 68.812 6.1641-2.8594 12.543-19.984 29.812-29.195 37.348l-7.8438-5.0078c-5.2695-1.9375-24.262-0.40234-37.227-9.8984 11.34-0.94531 38.691 9.0938 45.141-0.51953-5.668-3.2852-17.953-2.5039-24.922-3.2852-57.828-6.4961-27.543-0.16406-64.891-15.898-12.73-5.3633-26.715-8.7891-39.707-14.691-14.551-6.6133-33.047-21.805-37.371-3.3086 5.457 1.4883 16.652 2.125 21.234 3.7305l58.039 23.387c7.4883 3.7305 7.3242 6.9219 14.766 10.18 14.27 6.2617 59.387 15.875 62.738 17.195-48.828 12.73-36.637 9.6367-64.82 6.0938-10.559-1.3242-12.828-3.2852-22.746-2.7383-6.3086-6.2344-2.1953-5.5977-7.9141-10.488-4.4883-3.8047-4.9609-1.6992-10.418-7.7227-19.277-21.426-27-8.5508-44.645-23.457-7.2773-6.1406-5.4805-14.316-7.0625-26.219-2.293-17.078-5.4102-45.141-3.543-62.078 4.6289-42.234-3.4492-21.234 17.316-50.977 47.219 10.418 101.6 53.078 159.64 77.434 21.805 9.1406 43.277 8.8125 64.465 14.812 0.54297 8.8125-0.56641 8.4805-13.227 20.621-6.2617 6-13.582 13.867-18.426 18.141-23.316-3.8984-9.4727 3.1875-41.148-6.707-9.3555-2.9297-7.3008-0.09375-12.285-7.5117 20.148 1.418 28.109 4.7734 39.781 5.9297 15.379 1.5117 12.52-1.8203 14.293-3.2852-5.1719-7.6289-12.496-2.5039-25.18-4.7227l-47.242-5.7656c-16.133 3.543 0.82812 10.418-36.875-10.203l-83.031-41.836c-6.707-3.6836-5.2188-5.4102-12.07-1.0156zm58.395-106.63c2.668 8.0078-1.2266 1.9609 19.441 14.715 7.0859 4.3711 15.781 8.6445 24.094 12.234 8.8359 3.8047 16.227 6.5195 25.277 11.031 24.211 12.07 31.039 22.465 71.715 35.148 16.062 4.9844 38.48 10.203 54.164 16.867-20.883 3.0703-69.262-4.5352-73.133-1.5117l78.262 9.7578c6.6836-1.2539 5.6211-13.82 21.898 1.582-2.2695 2.4805-4.3477 5.3164-6.9688 8.1016l-9.5195 8.6914c-6.4023 6.2617-10.891 12.781-16.418 19.277l-11.668 0.046875c-4.7461-5.1719-2.6914-5.4102-11.195-6.0469-6.8281-0.49609-12.922-0.66016-19.086-1.3945-38.219-4.582-44.504-13.961-84.59-31.723-8.0781-3.5664-14.645-8.7891-24.828-13.746-10.605-5.1484-12.969-10.699-23.195-15.402-16.699-7.6758-40.723-15.309-54.402-24.52 1.4883-8.457 10.938-17.574 16.559-23.738 14.125-15.449 36.402-55.441 53.242-68.715 7.4883 3.1406 19.395 17.008 38.172 27.047 28.723 15.379 58.227 35.645 86.387 45.449 7.7734 2.7148 14.34 5.0781 23.738 7.8672 5.0781 1.4883 7.9375 2.1484 12.52 3.332 13.512 3.4727 10.465 4.6055 13.062 7.7461l-22.039-1.2539c12.117 7.6289 38.883 6.9219 52.395 11.27 0.37891-0.42578 0.99219-1.6523 1.1328-1.2539l2.7148-3.4727c0.11719-0.16406 0.44922-0.70703 0.68359-1.0391 6.8047 4.7227 7.9609 1.2539 14.859 5.8359-1.0859 8.8828-2.9531 12.355-7.4883 18.707l-11.906 16.418c-7.0625 0.09375-32.293-1.3008-39.234-4.9609-3.0469-1.582-2.4336-1.8906-4.0859-3.4023 22.441-2.5273 26.836 4.3711 31.371-6.2852-16.086-7.6992-50.363 16.016-123.76-23.195-9.1875-4.9141-13.723-11.387-21.707-14.574-13.797-5.5039-41.457-16.301-53.055-24.164-6.7578-4.582-14.457-14.766-23.41-10.723zm85.371-90.309c4.7461 3.7305 2.9531-0.070312 8.5742 5.6211 6.3555 6.4023 24.473 32.766 31.109 37.016-0.63672 5.4805-1.7734 6.4727-1.4648 12.852 18.945 0.14063 12.211 1.3242 39.117 26.527 25.844 24.234 27.164 13.867 34.867 32.574 7.6055-1.3711 1.9141-0.42578 9.0703-3.2852 11.434 7.0391 17.789 8.7383 23.434 15.426-26.172-0.21094-91.629-22.676-109.68-34.18-14.977-9.5664-29.457-17.906-45.188-27.426-8.7148-5.293-12.613-9.707-21.164-15.117-9.332-5.9062-10.18-9.6602-17.195-16.441 2.8594-7.3008 4.5117-8.9297 9.3555-15.188 6.5195-8.4102 23.125-36.496 35.195-23.27l3.9688 4.8906zm260.71-318.14c9.9688-13.488 34.773-41.387 53.574-36.332 7.4883 23.457-9.2109 28.652-4.0156 56.293 21.684 7.6758 40.746-24.992 61.062-18.543 5.5977 2.9531 7.3711 8.9062 6.1641 16.203-1.0156 6.2344-17.434 33.805-0.80469 44.738 20.668 13.605 72.141-38.457 61.652 5.1719-5.1016 21.234-9.4023 24.59-10.016 46.605-11.598 3.8984-15.047 6.3555-23.34 15.285l-138.36 131.67c-5.8594 5.7383-13.961 11.645-20.977 17.574-20.457 17.387-38.504 40.605-57.262 58.488-8.1016 7.7461-11.738 12.379-18.52 20.055l-28.535 30.496c-3.2109 3.875-5.8359 5.8125-8.6914 9.3789-6.6836 8.3398-9.5195 12.969-18.188 21.164-18.07-5.0312-52.016-41.621-63.023-52.797 2.4102-25.914 60.023-100.2 82.914-136.82 4.7227-7.5586 9.0938-15.543 14.148-22.133 6.4961-8.4336 9.6133-11.789 15.566-20.738 10.016-15.094 18.496-29.645 28.676-43.938 10.039-14.148 17.574-31.699 27.117-45.543 11.148-16.18 18.473-26.008 28.797-43.773 20.859-35.812 16.465-22.535 12.047-52.512zm-254.79 310.87c9.9219-35.363 48.234-100.09 51.922-154.25 1.0625-15.758-1.8203-33.637-8.4102-43.891-5.125-7.9844-9.5195-29.031-12.309-39.73-8.6445-32.953-14.504-53.504-11.172-91.254 5.8125-65.387 21.449-110.01 44.293-162.07 17.219-39.309 58.203-100.13 88.582-115.7 9.3086-4.7734 21.402-15.094 31.203-20.953 11.34-6.8047 21.234-11.906 33.543-18.637 78.211-42.852 172.23-46.914 257.53-22.133 24.309 7.0625 130.09 53.434 141.88 64.82 13.133 12.684 13.961 9.6836 27.945 24.234l61.867 89.457c-11.836 14.34-40.938 15.52-48.473 17.316-5.7383 1.3711-3.7812 1.7461-5.7656 3.4023 40.914-1.4414 35.977-7.1562 57.262-14.172 10.062 10.371 27.898 52.324 30.707 68.715 13.465 79.109 29.93 123.29 4.1562 215.98-3.2852 11.812-9.1406 20.977-13.348 34.227-8.3164 26.055-33.684 51.047-47.293 75.332-4.2773 7.6758-28.652 29.977-35.668 36.922-18.52 18.262-32.645 37.488-52.512 45.188-18.828 7.3242-20.859 10.984-32.293 17.551-8.3398 4.8203-24.59 11.41-35.293 8.293-0.40234 0.37891-0.875 0.96875-1.0859 1.2266-5.8125 7.1797-2.0312 6.1406-19.277 9.5195l-77.527 10.582c-37.348 2.3633-77.859-0.875-113.86 4.3477-42.211 6.1172-52.82 22.109-82.723 37.891-7.6523 4.0391-11.102 7.0156-17.527 11.977-28.629 22.086-23.621 14.836-46.062 42.047-15.852-0.16406-45.07-18-54.613-24.969 3.3086-7.0859 10.301-12.898 15.117-18.66 29.363-35.172 75.496-84.875 109.04-115.61 39.707-36.379 19.109-25.676 93.945-13.984l106.18 20.789c-12.852-11.195-17.551-8.9766-36.613-12.758-37.512-7.4414-96.07-15.59-127.46-22.891 2.3867-6.0234 28.535-31.984 35.621-37.867 7.1562-5.9297 11.598-9.6133 19.324-17.008 6.332-6.0703 11.48-9.1875 18.07-16.016l35.977-36.613c6.6836-8.3398 26.078-28.465 39.094-30.496 12.449 11.293 13.488 17.27 20.434 18.828 5.2188-12.898-9.0469-9-11.668-24.402l20.457-3.2344c0.35547-0.73047 1.0859-0.66016 1.582-1.0156-9.2617-10.18-13.277-0.47266-24.141-4.5352-0.51953-15.07 17.598-51.262 8.4102-60.379-8.6445-8.9062-18.66-1.4414-30.992 3.5195-31.062 12.52-46.652 13.133-31.535-24.758 6.5195-16.324 1.3477-22.418-8.1016-32.434-29.078-0.40234-37.723 18.992-57.875 21.52 0.1875-18.449 10.773-33.758 7.6055-46.773-4.7969-19.746-23.527-12.59-35.27-4.0625-12.805 9.3086-19.254 18.852-29.551 27.188-7.3945 5.9766-26.031 19.062-28.086 26.977 12.969 6.5664 10.797-10.797 21.898-8.8828 3.2344 2.0078 4.9844 4.6523 2.0312 16.062l-17.715 34.723c-8.6914 15.898-18.426 27.543-27.66 42.707-5.1016 8.4102-7.582 15.473-12.805 23.48-4.8438 7.418-8.2695 13.016-13.254 20.789l-139.56 206.71c-7.0859-4.7734-31.039-34.18-38.172-42.188zm181.37 145.23c-1.5586-10.652-2.8594-8.5273 3.8281-16.301 4.7461-5.5273 6.8516-6.3555 11.906-10.914 8.3867-7.5586 15.73-13.156 24.945-20.363l56.219-34.605c10.465-5.3398 22.582-8.7656 36.566-11.008 16.156-2.5977 26.172-0.58984 38.738-2.4102 40.016-5.7891 117.09-0.51953 166.56-16.961l64.062-26.738c10.488-6.2617 22.301-7.9141 31.512-16.133l34.324-33.781c21.309-20.055 26.48-25.203 43.301-49.723 3.0938-4.5352 6.7578-8.6211 9.9453-12.781 12.355-16.254 27.805-37.676 34.133-56.789 4.1328-12.473 8.9766-19.746 12.898-32.41 8.2188-26.766 10.535-51.047 13.203-80.008 5.9766-64.773-17.242-171.88-51.684-220.91-6.6133-9.4258-12.781-18.047-19.465-28.156-19.82-30.023-33.07-52.062-60.73-75.426-8.9297-7.5352-14.363-13.961-27.875-19.746-97.797-41.715-122.39-67.535-250.13-70.301-75.309-1.6523-135.36 36.023-188.69 65.93-28.582 16.016-3.0234-1.8438-26.668 18.707-27.188 23.598-53.527 59.102-69.379 91.746-29.906 61.629-60.637 148.23-55.156 218.98 2.0781 27 9.2344 52.156 15.875 76.488 19.605 71.691 23.195 66.66-6.7305 146.36-4.3242 11.574-7.7461 21.496-13.062 32.293-5.7656 11.766-10.156 18.449-14.055 31.371-19.109-1.7969-24.473 2.3633-33.992 13.629-7.1328 8.4102-11.691 17.668-19.18 26.195-6.8984 7.8672-14.34 15.684-21.473 23.883-17.055 19.559-10.582 15.52-17.738 27.707l-39.047 51.707c-35.008 49.156-29.457 29.504-26.812 60.73 3.4023 40.465-9.5664 122.15 36.875 140.88 33.566 13.512 30.945 15.66 72.449 7.8438l76.418-14.125c3.875-2.4805 23.93-36.426 33.211-44.031 5.8594-4.7969 31.82-30.758 37.062-37.867 19.746-26.668 34.324-34.605 62.551-71.387 6.7305-8.7891 0.1875-2.9531 11.766-5.8359 4.2266-11.977 5.7148-18.379 13.535-25.746z" fill-rule="evenodd"/>
 <path d="m609.97 117.23c11.34 3.8047 9.875-3.0234 25.676 6.707-1.3945 8.8594-10.301 16.938-15.805 22.676-7.4648 7.7969-9.1172 12.543-17.527 21-18.188 18.262-13.723-1.2539-37.605 30.449-5.6211 7.4648-5.2695 5.8594-14.859 5.1484-2.1953-5.8828-2.8828-16.133-4.7734-22.203-3.3555 1.1562-8.5273-5.5039-3.1172 19.156-36.66-5.4102-30.309-10.699-30.211-17.836-2.1484-0.875-7.9844-3.1172-9.4961-4.0625l-5.457-5.6914c-0.21094-0.26172-0.66016-0.96875-0.82812-1.1797-0.14062-0.21094-0.49609-0.78125-0.80469-1.1328-4.3945 11.621 4.0859 7.8906 7.1094 13.629 4.0859 7.7734-7.4883 5.5039 13.867 12 9.2344 2.8125 15.117 2.7891 22.605 7.2266 36.52 21.66 15.473-6.9922 54.449-21.758 12.945-4.9141-0.046875 0.63672 21.211-19.773l28.039-33.023c1.2773-11.41-29.434-26.621-32.48-11.34z" fill-rule="evenodd"/>
 <path d="m445.42 199.13c4.1562 9.5664 2.3164-2.2188 4.2266 8.9297 1.5117 8.8828-3.543 4.3008 2.3867 13.441 3.8516-2.2422 8.3633-13.676 11.504-19.535 16.18-2.3633 28.82 5.293 37.652 17.387-7.1328 8.5273-26.031 8.8359-52.277 50.363 6.707-2.7891 11.766-6.1406 15.426-10.746 9.4727-11.977 11.148-18.945 25.797-26.504 15.898-8.1953 11.27-2.293 17.316-10.844-2.0547-10.465-18.992-27.875-40.746-26.219 15.426-32.789-17.078 0.37891-21.285 3.7305z" fill-rule="evenodd"/>
 <path d="m864.38 352.16c14.812 0.1875 67.301 22.699 143.71 16.324 3-0.23438 6.9453-0.30859 9.8047-0.96875 2.3398-0.54297 3.1641-0.61328 4.8672-1.7227 4.3945-2.8125 0.875-0.30859 3.8984-4.2031-54.449 1.3711-69.992 5.5977-126.4-5.293-7.0625-1.3477-12.426-2.7656-17.859-4.0859-21.285-5.1484-13.324-3.1875-18.023-0.046875z" fill-rule="evenodd"/>
 <path d="m822.29 443.98c7.0156-1.8672 31.324 6.9688 39.898 9.8047 9.875 3.2617 32.055 7.1328 43.605 8.7891 15.828 2.293 31.109 3.4492 47.766 4.2266l47.293-2.3867c-4.4648-2.125-81.449-4.6523-97.277-6.7578-41.219-5.4336-55.348-13.133-74.125-16.746-15.262-2.9531-3.1406-1.0391-7.1562 3.0703z" fill-rule="evenodd"/>
 <path d="m878.46 688.56c-12.262 2.2422-13.914 9.8984-33.047 12.969-52.109 8.3633-107.34-15.66-115.8-13.512 6.2344 3.0703 4.2031 1.5586 10.324 3.5664 3.5195 1.1562 5.3164 2.2695 8.0312 3.1172 33.875 10.797 117.73 28.961 130.49-6.1406z" fill-rule="evenodd"/>
 <path d="m851.15 543.8c11.102-1.4648 115.75 33.309 152.03 11.621-2.9766-2.4336 5.2188-3.9688-7.6055-1.9609-1.2773 0.1875-6.8516 2.1719-9.2344 2.6211-21.66 4.1328-78.945-4.1562-101.95-8.9531-7.1094-1.4648-11.031-2.0781-18.355-4.2539-22.699-6.7578-12.66-1.6992-14.883 0.92188z" fill-rule="evenodd"/>
 <path d="m819.4 623.1c1.8672 1.2773 0.42578 0.70703 4.5117 2.668l10.039 3.4961c4.7969 1.1797 10.676 2.1484 15.355 2.9531 15.094 2.5273 84.117 6.707 85.676-17.172-61.324 26.598-70.348 11.27-115.58 8.0547z" fill-rule="evenodd"/>
 <path d="m278.77 986.29c0.56641 0.28516 1.418 0.023437 1.7461 0.73047l15.141 3.7578c14.434 4.9844 31.203 14.031 49.699 11.574l-5.1719-8.293c-18.188 7.4883-48.262-16.938-61.418-7.7734z" fill-rule="evenodd"/>
 <path d="m411.21 289.68c-6.0938-3.4961-8.8594-0.30859-19.605-1.0859-1.9844-10.676 3.2344-16.156 7.8672-24.262 7.8672-13.82 8.6211-8.0312 15.023-21.047-9.2109 3.6133-24.945 26.41-26.172 30.047-8.0078 23.34 5.9531 28.559 22.891 16.348z" fill-rule="evenodd"/>
 <path d="m503.08 159.38c8.0312 0.070313 5.6211-1.4414 12.543-8.0547 4.1797-4.0156 7.6289-6.9453 11.906-10.82 13.348-12.117 21.52-7.6758 32.766-13.797-12.73-6.2617-24 3.4492-33.543 8.4805-9.1875 4.8672-21.805 12.117-23.668 24.188z" fill-rule="evenodd"/>
 <path d="m544.02 728.84c8.6914 1.1094 28.676 11.574 41.41 15.188 5.8359 1.6523 15.828 5.2188 21.875 7.6758 9.1641 3.7812 11.715 8.2188 19.723 9.332-9.8281-15.52-63.758-30.426-83.008-32.195z" fill-rule="evenodd"/>
 <path d="m547.75 777.78c-2.0078-8.0547 0.21094-5.8125-7.4648-9-11.48-4.7969-28.301-5.0547-40.82-4.6523z" fill-rule="evenodd"/>
 <path d="m330.68 957.97 38.078 7.6289c10.277 0.96875 7.7734 1.3945 11.102-4.2539-5.5977-2.5039-12.875-1.6992-24.094-3.3789-4.3242-0.63672-8.1719-1.1328-11.766-1.8906-9.7812-2.1016-7.2031-2.4805-13.324 1.8906z" fill-rule="evenodd"/>
 <path d="m866.95 183.54c11.93 2.668 52.535 5.1484 66.379 3.6602l-47.859-6.1875c-8.4805-0.14062-12.234-1.3242-18.52 2.5273z" fill-rule="evenodd"/>
 <path d="m217.3 1073.6c4.0391 3.8047-0.75781 1.7461 5.5039 3.9688l20.41 0.75781c26.457 1.1797 15.613-0.33203 18.945-4.9141z" fill-rule="evenodd"/>
 <path d="m385.44 907.56c3.8516 5.5742 4.2266 5.4102 23.551 4.4648 7.3477-0.35547 16.867-1.9141 21.496-5.1484z" fill-rule="evenodd"/>
 <path d="m564.43 118.06c8.7383 0.44922 12.52-3.7305 20.102-6.7578 11.195-4.5117 14.551 0.37891 21.781-3.1406-7.4648-6.0703-13.465-5.0781-23.48-0.75781-2.3398 1.0156-7.7734 3.3789-10.844 5.1719-2.668 1.5352-6 4.6289-7.5586 5.4805z" fill-rule="evenodd"/>
 <path d="m864.14 267.68c16.867 8.1484 40.961 13.582 65.195 13.559-7.2266-5.4336-43.395-5.293-65.195-13.559z" fill-rule="evenodd"/>
</svg>
