<?xml version="1.0" encoding="UTF-8"?>
<svg width="1200pt" height="1200pt" version="1.1" viewBox="0 0 1200 1200" xmlns="http://www.w3.org/2000/svg">
 <path d="m754.91 154.25 2.125 59.715c-2.2188 10.773-3.2344 1.9609-7.5352 11.434 4.8438 6.9453 7.1328 4.6523 6.7812 14.527-0.66016 17.859-1.5586 3.4023-7.1797 13.82 12.449 11.504 3.5664 4.5117 5.7656 17.836 2.125 12.852 6.8984 10.465-2.4102 21.566 7.2031 7.3711 4.582 0.49609 7.9375 9.2109-8.9062 3.7578-2.5039-6.3086-7.8906 4.7734 5.7656 8.457 6.1875 3.6367 10.133 11.527 2.9297 5.8594 2.1953 8.8828 6.7305 16.465 20.363 34.016 24.758 12.852 34.324 32.551 2.9766 6.1172-2.1484 3.0938 11.125 12.449 7.6758 5.3867 19.062 16.914 28.324 12.73-6.2344-9.5898-23.766-11.434-31.227-26.41l71.434 0.51953c1.0859 1.5352 5.7891 22.652 27.379 32.172-0.99219-10.676-15.309-18.898-19.629-30.59l17.836-0.14062 6 9.2109c1.7227 2.4102 5.3633 6.4492 7.5117 8.5039 6.1641 5.8828 12.379 9.3555 20.953 11.008-4.0156-12.285-23.219-12.164-22.488-28.723 18.023 0 14.883-3.4492 23.906 11.574 4.6289 7.7227 11.527 17.031 19.465 20.008-3-12.285-13.512-14.859-15.945-30.07 5.2188-0.1875 9.8047 0.66016 13.938 0.51953 11.055-0.33203 7.9609 1.7227 12.684-5.3867-3.1641-9.1875-8.457-7.9609-19.746-7.582-35.551 1.1094-40.465 3.1406-83.574 0.70703-16.324-0.92188-37.441-3.4023-53.008-1.7969-69.379 7.1328-51.922-127.49-54.73-159.88-1.2266-14.172-4.4648-40.395 0.49609-52.324 14.504-3.3789 23.977 10.395 34.227 20.27 10.18 9.8047 20.504 18.164 30.332 27.613 20.102 19.348 37.746 41.008 57.402 61.016l55.559 62.551c55.203 53.125 39.496 36.66 49.371 127.44 2.2695 20.691-2.3633 138.31-1.4883 174.78 0.42578 17.859-2.7656 37.227-2.3398 55.676 0.96875 42.234 2.4102 39.684-2.3164 81.141-3.8516 33.613-20.977 15.637-53.598 35.977 12.332 0.96875 35.27-9.3789 49.891-11.363l-1.0859 30.402-50.812 13.535c7.1797 4.1328 37.441-6.875 49.984-5.0547 1.9375 25.891-5.3164 28.441-26.645 29.008-6.707 0.1875-13.016 0.68359-19.629 1.3945-20.883 2.2422-50.691 2.8594-69.922 7.3008 26.715 1.7461 92.574-0.14062 114.99-10.867 1.3242 12.898 1.3945 62.906-4.7461 71.766-22.109 14.883-111.36 5.457-128.46 16.062 49.227 1.9141 105.76-8.8594 129.54-7.6289 1.8672 11.219 2.457 32.645-1.3477 42.59l-219.61 10.18c26.953 8.9766 171.59-8.4805 219.38-2.3867 1.6992 10.652 1.2266 25.324-3.4961 34.488-0.56641 0.23438-1.4648-0.1875-1.7734 0.49609l-35.621 4.8203c-44.125 3.1875-78.473 3.1406-123.16 2.1953l-123.02-2.125c-9.6602-0.56641-30.094-7.6055-36.211 0.75781 9.5664 4.8438 26.172 0.51953 36.758-0.23438 7.0625-0.49609 48.285 6.9453 74.859 7.5352 30.898 0.70703 5.125-3.543 35.977-2.4805 56.93 1.9844 113.29 1.6055 169.72-3.6133-15.875 62.078-201.23 49.582-257.79 48.52-34.914-0.63672-69.426-0.26172-104.36-0.99219-68.41-1.4414-135.4-5.0781-204.07-2.5977-118.02 4.3008-112.65-2.6914-118.2-87.402-4.3242-65.645-6.3789-131.5-9.9688-197.22l-1.5586-204c4.8672-96.875-7.1797-209.67-6.0938-306.07 0.56641-48.898-4.3477-71.125 22.395-83.48-4.9844-1.8438-4.5117-0.70703-7.2539-1.5352l-7.1328-2.8828c3.2344-11.34 3.1172-10.277 14.812-9.0469-7.8203-16.773 14.41-17.789 36.707-21.188 30.945-4.6992 157.91-7.8906 187.61-7.4883 41.27 0.51953 88.488-2.5977 128.93 1.6289 15.543 1.6289 61.559-2.6211 93.875-0.56641 9.1172 0.58984 13.203 5.8594 19.938 11.148zm231.02 816c-10.773-14.621-2.5742-58.914-1.8672-78.781 0.68359-19.629-3.2109-67.395 7.5586-81.188-4.7227-9.7578-5.8828-2.3867-4.4414-18.637 0.96875-10.746 0.070312-10.465 6.8984-17.953-5.5742-19.465-4.0156-15.73-0.78125-45.898 2.1719-20.195 0.66016-34.629-0.11719-54.355-1.7734-44.316 5.0078-159.9 5.3633-213.36 0.070313-10.465-5.7656-92.504-7.8438-98.195-7.3945-20.363-39.234-39.945-50.715-58.301-9.7812-15.66-39.285-43.133-53.48-57.828-17.504-18.117-33.707-38.738-51.875-57.094l-58.559-53.055c-4.9141-1.6289-122.2 2.9531-140.1 1.1328l-282.85 2.1484c-16.395 1.1562-46.629 3.707-61.203 10.605-9.543 4.5117-15.355 7.0625-20.41 16.605-24.852 46.914-11.48 109.7-11.48 159.52 0 71.738 7.3242 130.54 5.2695 206.22l0.14062 215.69c6.2109 80.527 6.2109 211.75 14.457 274.51 1.9375 14.598 11.293 39.707 25.652 45.613 12.875 5.2695 181.91-3.1875 213.76-0.78125l280.44 7.0156c40.961-1.2266 146.12-3.4727 172.09-42.852 3.9453-5.9531 5.7891-22.062 6.9219-29.836 2.5273-17.316-1.8906-15.684 7.1797-30.969z" fill-rule="evenodd"/>
 <path d="m597.12 542.24c4.6289-18.023 12.875-11.293 25.254-9.2109 8.125 1.3477 20.93-5.1719 26.031 7.1328zm68.125-3.332c-6.2617-2.3398-5.4102-0.21094-6.6602-9.4023l10.891-1.9609c-0.94531 8.2422 0.82812 6.2852-4.2266 11.363zm45.613-3.4023c7.0625-14.551 10.395-3.3086 26.172-5.8594 9.6133-1.5586 14.953-10.723 23.148 1.0156l-49.324 4.8438zm-207.02 2.125c-8.0312-1.4883-11.008-2.5508-11.527-9.707 7.2266-6.2109 12.828-0.046875 11.527 9.707zm-69.473-1.9844c-4.2266-7.7461-3.3789-3.4023-1.4648-8.668 6.5195-2.6914 16.348 4.0859 19.984 10.844l-18.52-2.1719zm99.52 2.7148c-5.8125-11.574-8.4336-2.3164-17.691-11.008 2.2422-8.5742 6.1875-8.5039 13.277-3.4961 7.4883 5.293 4.9141 6.0234 4.8672 15.309 14.078-0.61328 4.7734-1.418 14.836-4.6523l8.7148 8.5508-46.039 0.23438c1.1562-7.5352 0.89844-10.535 8.7148-6.0469 15.543 8.8828 10.156 3.4961 13.324 1.1094zm29.789-7.0625c11.031 2.0781 14.598 0.23438 22.891 10.418-10.488 0.40234-34.629-6.8984-41.527-17.078l6.5664-6.0938c9.3789 3.9219 8.2188 4.1094 12.07 12.758zm-81.309-12.73c7.418 3.7812 4.582 0.54297 4.0625 8.2695-9.1406-1.3008-9.6367-1.5117-4.0625-8.2695zm-53.387 3.8984c-2.9766 6.6602-0.23438 4.2266-7.8672 6.6836zm315.95-2.0781c-3.3086 4.8672-1.4648 5.6211-6.707 1.9141 3.6133-4.9609-0.046876-5.0547 6.707-1.9141zm-64.82 5.8359c1.3477-7.5586 3.2617-7.9609 8.5742-13.371l13.984 6.8281-2.668 16.488c-3.9922-4.7461-2.125-7.5586-8.125-9.9922-7.9844-3.2109-1.7227 1.0156-11.766 0.046874zm-102.99-12.117c12.684 2.7656 18.758 4.5586 15.402 17.363-10.418 2.4336-14.055-1.9609-22.324-9.3086zm-117.73 9.1172c10.723 1.3008 5.9531 3.6602 12.543 6.9453 9.1875 4.6055 10.746-4.4883 9.1406 11.055l-19.465-7.4648zm178.37-12.852 13.512 6.1406-1.6289 14.078c-8.457-1.2539-14.172-4.0156-20.195-10.676l8.3164-9.543zm-186.31 14.551c-8.4102-0.99219-9.7812-0.99219-11.387-8.668 8.457-4.4883 12.781-1.418 11.387 8.668zm263.1-4.8672c0.94531-8.293 3.543-10.605 10.938-12.781 9.2109 5.4102 8.2695 2.9766 6.5898 13.109-8.0078 4.0625-9.6367 3.5664-17.527-0.33203zm-94.676 3.8047c-8.9531-1.1328-10.465-1.1328-12.211-8.9297zm-114.45-12.59 9.1641 4.8906-6 8.7656-9.543-7.1094 6.3789-6.543zm-96.922 7.3008c6.4258-4.1562 6.4023-4.1797 13.133 0.99219l-6.8516 6.7305c-6.9922-3.4023-4.7969-1.1797-6.2852-7.7227zm360.07-0.66016c3.9922-9.4023 1.1094-3.9688 7.6523-4.0156-1.6055 5.293-1.7734 7.7969-7.6523 4.0156zm-235.51-11.504c7.0625 2.9297 8.5039 2.7383 11.148 9.3555-7.7969 8.8828-9 6.543-18.66-0.68359l7.5117-8.668zm-68.316 10.418c2.5039-2.3164 0.23438-9.707 9.9688-0.78125-4.418 6.2109-4.1797 5.4102-9.9688 0.78125zm330.16 0.82812c0.21094-8.8125 0.33203-10.441 8.668-10.227 2.4805 9.9688 1.7969 8.6914-8.668 10.227zm-51.332-6.5195c2.4336-7.9141 3.1172-8.4336 10.324-12.141l11.242 9.8984-4.7227 12.613zm-81.945 5.7656c0.070312-8.0781 2.4336-8.6914 8.6445-14.219l11.387 6.8047-9.7305 12.613-10.301-5.1953zm-105.07-3.4492c2.0312-8.5273 4.5117-8.3867 11.645-5.0781 1.6289 6.2109 1.6289 3.6367-2.8828 10.559l-8.7656-5.4805zm-60.332-6.875c-0.80469 7.9844-3.2617 12.875-10.746 5.1719 6.2344-7.3711 2.3633-4.5352 10.746-5.1719zm116.64 3.9922c1.3945-6.6602 2.2695-7.0391 8.3867-10.324l9.9453 6.8047-8.1016 9.9219-10.227-6.4023zm-31.82-3.1172c5.0078-4.1328-5.7148-3.4023 7.2539-3.2344 6.5664 0.070312 10.652 5.7148 12.566 9.2344-1.6758 1.0391 1.9141 6.6602-11.812-0.28516-4.0156-2.0312-5.0078-2.8594-8.0078-5.7148zm-120.52 1.3477c-4.3477 6.4023-7.1094 4.2031-12.309-1.582 5.5977-6.3789 7.3945-4.1328 12.309 1.582zm-32.172-0.37891c-5.1016 4.3242-1.8203 5.2695-10.867 0.44922 1.1328-9.3789 7.4883-6.9922 10.867-0.44922zm347.27-1.9375c4.4414-10.867 10.797-12.379 16.891-2.3164-4.7227 7.9844-8.6914 8.9297-16.891 2.3164zm-80.551 2.3164c3.1406-6.7812 6.4727-9.5898 14.031-11.195l6.543 4.6055c-0.85156 7.5352-2.2695 8.2188-8.9062 13.277l-11.668-6.6836zm-211.44-8.6445c-0.26172 7.7461-2.457 11.836-9.543 5.1719 2.8594-8.5273 3.4961-5.8594 9.543-5.1719zm26.527 6.6133c3.4961-8.0547 8.8594-13.016 16.699-5.9531-0.33203 7.2031-3.8516 7.9375-10.18 10.109zm295.18-7.2266c6.6133-4.9844 3.4258-1.5586 5.6914 0-2.6914 1.8203 0.49609 4.8672-5.6914 0zm-161.57 7.9844c4.1797-8.9766 9.3789-14.434 18.828-10.203-1.0156 9.1172-2.5508 5.293-6.2109 15.047l-12.613-4.8438zm-75.66-7.9844c8.293-6 6.2617-3.875 9.0938 3.0234-7.4648 1.8672-4.6992 3.3555-9.0938-3.0234zm-14.102 0c-1.3711 14.242-8.7656 8.6914-15.379 0.875 6.9922-5.2695 7.6523-5.3867 15.379-0.875zm174.83 3.8281c1.418-7.2031 7.7734-9.5664 15.094-10.324-0.54297 8.0781-2.1953 10.605-9.4023 14.527zm46.559-11.387-4.5117 8.9297c-6.7812 1.3242-9.7305-1.0391-15.117-6.0234 5.3164-11.293 10.016-6.9688 19.629-2.9062zm12.828 1.3242c6-5.3867 6.9453-6.7305 11.977 1.582-6.4258 3.3555-5.3633 3.9219-11.977-1.582zm-111.4 3.9219c6.6602-5.9531 15.309-9.5898 22.559-4.0625-2.6211 6.0703-7.2539 8.3867-13.82 11.41zm-256.87-4.5586-13.016 14.977-0.1875-11.668zm78.684 8.8828c1.3945-8.457 6.1641-12.992 14.668-12.613-1.8203 6.8281-7.3008 12.094-14.668 12.613zm-71.242-5.1484c6.5195-8.4336 4.7969-7.8906 15.59-8.3398-5.1953 8.8828-6.875 13.797-15.59 8.3398zm370.56-10.773c1.6289-1.2266-1.5352-5.293 5.3867 1.0156zm-306.47-1.7461 11.668-0.47266c-5.1719 9-6.7578 11.789-17.219 11.41zm-50.504 19.723c2.4102-4.9609 6.4258-13.605 8.9062-17.504l32.812-1.2539c-4.6055 10.086-12.047 19.062-25.039 14.551l7.2031-8.5039c-14.859-3.2344-13.418 9.6836-23.883 12.707zm184.51-8.7148c9.2852-15.828 42.922-24.828 58.156-13.914-2.293 6.875-9.1406 10.133-16.086 12.188l-13.914-6.332c-7.4648 4.6055-7.5117 10.867-18.637 14.504l-9.5195-6.4492zm186.26-13.914c7.1328-5.0547 8.2422-1.5352 17.551 0.875l-0.35547 12.426c-11.621-1.3008-6.0469-1.9375-8.457-8.6445l-8.7383-4.6523zm-37.371 4.6523c2.0781-8.3633 7.8672-7.3008 16.844-7.5352-4.5117 8.3633-7.0156 12.211-16.844 7.5352zm-257.39-1.5352c8.457-5.0078 47.738-4.5352 60.543-3.8516-3.875 6.4023-11.691 13.488-18.969 16.062-10.914-8.7656 5.3164-1.5117-16.254-13.371-5.8125 10.109 1.6289 4.4414-9.8281 14.008l-15.496-12.852zm74.195 13.133c9.707-13.629 11.172-3 23.293-19.699l19.914-0.40234c-4.9141 10.016-14.48 14.363-25.82 11.219l4.3945 9.9219-6.5664 7.1328c-7.0156-0.96875-10.629-2.8125-15.211-8.1719zm-11.715-4.8906c2.2695-9.5664 3.6133-7.6289 6.875-13.961l16.039 0.66016c-4.582 7.3242-14.859 13.605-22.914 13.301zm187.09-15.402c-5.4102 3.4258-4.1328 0.70703-8.9766 5.6914-3.1406 3.2344-0.49609 2.8594-6.9219 8.5273l-13.535-6.2617c-4.9844 5.9531-10.348 12.023-18.566 13.582-11.031-10.254 1.9141-4.4883-15.379-9.1641-7.1797-1.9609-9.9453-4.2266-12.52-10.891l75.898-1.4883zm-358.72 75.094c26.859-0.44922 21.164-8.7656 50.27 4.0391 14.836 6.5195 12.613 2.8828 15.211 1.4414l-14.242-6.0938c6.0703-3.4492 163.77-3.0938 189.9-5.3164 28.699-2.4336 66.781-2.2695 93.73-6.7812l73.324-2.9531c10.203 0.14062 16.82 2.9297 21.402-4.4414l-14.363-3.5898c-17.219-0.54297-40.227 5.293-50.668 1.1094 1.418-19.133 17.906-4.1328 29.691-8.9062 20.363-8.1953 5.6914-22.914 27.332-20.527 4.1328 12.379-0.26172 19.773 10.512 28.652l-1.7969-57.262c-74.977-1.7227-348.66-1.0859-424.72 12.707-13.348 2.4102-18.449 0.94531-17.125 17.41 0.82812 10.18-0.09375 21.898 0.47266 27.969 0.51953 5.6211 6.1172 17.031 11.078 22.535z" fill-rule="evenodd"/>
 <path d="m532.87 643.3c3.4727-1.7734-3.875-3.4023 4.3008-1.3711 5.0781 1.2539 3.5898 2.3633 4.8438 3.8047-8.6445 3.8281-5.9062 3.875-9.1406-2.4336zm92.078-1.4648-0.51953-6.6133c7.7227-1.2773 5.8594-1.6289 11.102 3.4258-5.0781 4.3711-3.4727 4.5117-10.582 3.1875zm-111.83-9.1406c8.1953-1.3945 4.3945-1.2773 12.07 2.5273l0.51953 12.496c-12.07 5.5039-48.402 5.9297-44.738-12.379 3.5664-1.4883-3.5195-2.8125 7.3711-1.0391 0.23438 0.046875 6.7812 2.4805 7.0391 2.5977 10.156 5.0547 3.6836 2.8828 9.8516 11.219l11.078-5.0312c-3.5898-8.7891-2.7656 0.875-3.1875-10.395zm23.598 2.3633c4.6289-8.5977 4.5586-5.5273 14.906-1.0625 10.324 4.4648 10.203 3.6133 8.5039 15.262l-14.008-0.1875c4.4648-2.9766 6.0938-3.2617 6.707-9.4727l-16.109-4.5352zm-89.883 8.8359c10.254-6.1875 1.3477-1.8906 7.4414-12.52 11.457 3.7812 18.59 6.5898 18.828 18.852l-28.18-0.30859-7.0859-11.008c-8.125 1.0156-4.9844 6.2344-14.41-2.5742l6.9453-11.316c24.355 7.0391 6.2344 11.148 16.465 18.875zm123.71-14.27c18.852-1.8203 14.645 8.3633 21.52 17.293 11.148 2.1953 13.844-5.457 24.684-8.6211l4.1562 10.891-48.07 0.82812 5.3398-9.543c-7.8203-5.9766-5.2695-3.5195-7.6289-10.844zm34.395-7.1562c8.0781 2.6914 10.371 2.7383 14.387 9.7578-9.332 3.3555-10.535 3.4023-19.746 0.21094-0.80469-5.9531 0.26172-5.0547 5.3633-9.9688zm122.67 6.7305c2.2188-9.8047 5.2188-9.0703 11.504-2.0078-6.7812 3.3086-5.6445 4.3008-11.504 2.0078zm-206.53-3.5898c3.332-3-4.2031-4.2773 7.0156-3.332 4.7734 0.40234 3.7305 2.7891 4.7734 4.3477-6 4.8906-4.582 5.7148-11.789-1.0156zm-29.93-9.7812c8.0781 1.6055 18.188 6.4492 17.621 14.883-7.6992 6.4023-13.512 1.2266-22.699-3.543zm-14.645 17.504c-7.8672 1.3008-15.402-3.1406-17.078-10.629 6.6602-5.3633 16.746 2.1016 17.078 10.629zm155.08-7.6523c6.8047-9.3555 8.0781-6.1406 16.844-0.44922 14.598 9.4727 6.5195 4.6289 12.047 18.117 6.0938-0.63672 16.203-4.3008 20.668-9.4961-8.0547-10.203-2.668 1.3477-13.395-4.582 1.6758-8.0078 2.2188-8.0312 9.0703-13.016 22.465 7.6758 12.426 10.512 19.395 21.309 12.59 0.09375 12.52-10.371 27.496-1.2266-7.1094 5.4336-3.875 2.5742-20.527 5.4336-8.0078 1.3711-13.676 2.1484-21.758 2.668-17.621 1.1797-33.992 4.418-51.945 4.3242 8.4102-12.188 22.109-9.8984 14.125-23.34l-6.9688 4.4648c-4.8672 0.80469-4.3242-2.3633-5.0547-4.2031zm-66 3.9219c-8.1484 3.3789-18.684-0.35547-20.906-9.6836 5.3398-5.8359 6.6133-4.9844 13.301-1.7227 9.2617 4.4883 7.5586 3.6367 7.6055 11.41zm198.8-9.9688c4.5586-1.1562 7.5586 1.2539 12.613 4.8672 6.0469 4.3008 0.09375 1.9844 7.0156 4.4883 0.58984 0.21094 1.3008 0.23438 1.9141 0.42578 0.61328 0.21094 1.3477 0.21094 1.9375 0.37891 4.9844 1.5117 1.5117-0.33203 5.1016 1.9141-5.7656 4.6758-16.512 3.9922-25.746 4.2266-12.52 0.30859-21.309 0.47266-33.992 1.6523 7.4648-11.125 11.008-6.0234 19.938-13.016 7.6992 4.5352 6 6.8281 14.242 2.457 0.023438-2.8594 0.28516 0.73047-1.8203-3.0938-0.75781-1.3477-1.0391-3.543-1.2031-4.3008zm-59.41 4.7227c0.1875-7.7227 1.418-7.6523 9.4492-11.551l8.5273 4.9844c-2.8359 11.316-6.8984 10.676-17.977 6.5664zm-125.79-1.9375c3.8984-7.1797 4.0391-7.582 12.047-9.3789l6.8984 5.2422-7.4883 11.172-11.457-7.0391zm-163.75-9.9219 10.156 9.6602c-5.5039 7.5117-2.8125 5.9297-11.977 7.2031l1.8203-16.867zm377.91 6.4727c-6.2617-1.1094-1.1094-0.09375-3.2617-3.4961 6.6133-2.9766 3.5664-3.875 7.4648 2.1719-2.6914 1.4883 0.33203 2.125-4.2031 1.3242zm-57.285-0.21094c3.8047-11.293 15.211-16.395 20.621-3.2852-6.0938 3.6367-12.402 4.6055-20.621 3.2852zm-114.29-13.301 9.7305 10.535-8.0312 7.9375c-7.7461-1.3242-9.9688-2.293-13.984-9.2617zm23.148 10.016c2.5977-8.2695 3.9453-5.8359 10.676-12.707l14.102 9.2344-9.6367 14.883zm140.88-6.9688c-2.3867 6.4727-2.6914 6.8984-9.3086 8.9531l-7.5586-3.5664c3-12.59 6.7305-12.52 16.867-5.3867zm-102.71 2.3398c3.8281-6.8516 3.1406-5.5273 10.277-9.707l12.332 7.8672-8.5977 11.645-14.008-9.8047zm-151.65 4.6289c5.7148-6.8047 5.6211-7.2266 11.551-5.0547 1.3008 7.582-5.2422 11.598-11.551 5.0547zm270.97-9.2852c-0.30859-3.0469 1.7461-3.543 3.2617 0.14062 2.0781 5.0547-3.0703 1.5586-3.2617-0.14062zm-83.766 2.8359c3.5195-6.7578 7.0391-8.9297 13.629-11.621l7.3008 6.8984-11.859 8.5039zm34.418-5.1484c1.8672-3.332 3.0938-4.2773 7.3945-4.6992 9.7305-0.96875 5.9062 1.9844 6.6367 2.5039-6.5664 7.0625-6.4023 7.582-14.031 2.1953zm-337.98-1.9375c8.4805-3.8984 72.117-9.5664 82.488-6.5898l-17.859 26.434c-12.852-3.6602-11.621-4.6758-9.0469-16.086-9.9688 0.56641-6.1641 1.5117-16.039 0.82813 1.9141 9.4492 4.7734 5.3633-0.61328 13.371-13.867-1.5352-11.055-6.0234-8.5742-16.371-8.3867 1.6055-5.3164 2.293-14.34 1.9375-2.3867 5.9531-0.35547 5.4102-1.7734 9.2617l-14.242-12.781zm92.457-7.3945c25.512-0.68359 52.512-5.125 78.852-3.875 54.852 2.5742 206.43-15.402 238.23-5.8594l-0.61328 13.016c-10.512 7.1797-10.277 4.5586-20.148-0.40234-21.52-10.844-16.535-2.4102-18.211-0.51953l2.4336 6.332c-5.457-4.582-2.7891 0.54297-3.8281-7.4648-26.148-2.3633-13.676-5.1484-37.891 3l-18.637-8.7656-14.219 13.254c-11.621-0.875-14.859-7.5586-25.086-12.188-7.7969 20.789-14.055 18.188-30.262 6.6836-9 5.0312-15.828 11.953-25.699 12.852-7.6992-14.219-1.8906-6.875-4.4883-13.395-12.66 0.70703-14.242 10.441-25.652 16.301l-8.3867-5.3398 6.0703-8.1719-17.836 2.457c-0.58984 11.172-0.30859 9.4492-10.133 16.652l-15.543-7.6523c4.0625-11.457 4.418-3.332 10.559-12.211-7.6992-2.9062-9.5664 1.1094-14.621 6.9453-32.527-6.4727-6.8281 2.8359-31.418 4.1797l-4.2773 10.016c-9.4023-0.28516-12-2.6445-18.613-9.543 0.94531-6.7578 4.6055-13.535 9.4258-16.301zm-101.88 2.5977c-4.3008 14.691-1.7227 36.828 4.9609 50.434 9.9688-4.7461 4.5117-9.875 17.41 0.96875-9.6836 5.5977-14.055-3.5664-18.473 8.7148 8.5273 4.6758 40.746-0.49609 49.254-0.78125 49.582-1.7227 113.81 2.4102 165.12-1.1797 44.715-3.1172 113.6-13.441 152.62-14.148 12.164-0.21094 41.125 6.0938 48.496-2.2422-6.4023-5.6914-3.1641-3.4492-13.629-3.1172l-2.1016-5.7148c-0.046875-0.16406-0.21094-0.78125-0.37891-1.1328-8.293 4.8672-1.5586 4.3242-10.535 4.2773 1.0156-15.285 6.2617-11.691 9.543-14.363 0.40234-0.33203 0.92188-0.78125 1.3008-1.1094 0.40234-0.35547 0.82812-0.875 1.1797-1.2266 6.7578-6.4961-4.6758-5.5508 10.512-6.332 10.062 9.332-0.51953 15.758 11.008 23.34 4.8906-6.4727 2.5039-17.906 1.8203-27.355-1.3711-19.324 2.2695-14.598 5.0078-27.402-48.969-10.227-165.14 6.1406-215.24 6.3086-33.332 0.09375-197.84 1.2773-217.87 12.07z" fill-rule="evenodd"/>
 <path d="m441.4 767.29c-3.2852 0.63672-7.0391 1.582-10.441 1.582l-10.324-2.6211c2.1953-9.1875-2.4102-9.5898 10.227-4.8438 5.1484 1.9375 6.6367 2.5742 10.535 5.8828zm93.852-3.1172c5.7383-9.707 17.789-11.293 22.559-0.58984-6.4258 4.7461-14.812 4.0625-22.559 0.58984zm57.59 1.3008-16.371-1.0156-5.5977-13.629c9.6367 3 17.031 6.4492 21.969 14.645zm25.961-0.68359-1.1328-5.4805c-0.046875-0.30859-1.0156-6.4023-0.56641-7.3242l19.699 12.141-18 0.66016zm38.434-0.023438c0.66016-7.6055 2.4336-3.8516-0.85156-12.211 7.4648 1.3711 14.41 3.7305 17.293 10.82-5.7383 3.1172-9.4961 2.1953-16.441 1.3945zm-121.42-12c0.070313-2.3633 1.8438-4.5117 2.9297-0.33203 0.80469 3.1641-3 2.8828-2.9297 0.33203zm219.07 10.277c-20.457 3.4258-39.234 2.0547-59.93 2.5273l-8.3867-13.348 5.6445-5.2422c16.676 0.82812 19.938 20.668 38.219 10.039-2.5508-8.3398 4.9141 2.9531-1.9141-2.7148-3.5195-2.9297-6.707-1.7461-7.7461-2.2695l13.652-10.984c2.0547 2.6914 8.1719 27.52 15.945 10.676 0.070312-0.1875 0.23438-0.68359 0.28516-1.2539 0.046875-0.56641 0.046875-0.875 0.21094-1.2773 4.1562 0.16406 4.7734-0.09375 9.0703 0.85156 4.5117 1.0156 2.4102 0.47266 5.2188 2.2422-0.26172 9.5664 1.3242 8.7891-10.277 10.746zm-122.05-24.164c8.7383 4.1562 14.055 9.4492 12.992 19.559-8.5273 0.26172-17.34-4.8438-23.27-10.797 3.543-6.3086 3.5195-6.2617 10.277-8.7656zm-135.68 22.203-13.867-14.434c15.613 3.0234 13.395 10.797 24.355 14.691 6.2617 2.2188 3.6836-3.3789 9.0938 4.8438-5.0078 2.4336-42.805 2.8359-50.883 2.0078-9.0469-0.92187-8.3633-4.5352-18.543-6.9219-8.5977-2.0312-12.332-0.875-16.676-9.1172 9.1875-7.5586 14.363 1.3242 25.914 4.7734 7.7461-6.543 1.0156-6.5898 11.574-9.707 8.2695 4.9609 1.3477 9.4023 29.031 13.867zm80.883-14.031c1.9609-6.4023 7.0156-9.8047 12.992-12.332 10.867 4.7969 21.73 9.6602 17.434 21.426l-11.316-0.16406c-7.5586 0.16406-11.574-2.4336-19.109-8.9297zm-31.371-11.41c9.6133-0.49609 22.914 6.0703 16.797 16.746-6.875 4.0859-15.262-1.5586-22.277-7.418l5.4805-9.332zm116.36 11.906c1.9844-6.3789 3.5195-7.0859 9.1641-11.527 6.875 1.1328 8.7656 1.1797 13.039 6.9922-2.6914 3.7812-8.2188 9.1875-11.195 12.898zm-141.57-8.8125c8.7656 6.1875 5.5273 15.758 10.324 25.961-9.7578-2.4102-15.141-8.7383-21.805-12.875zm-45.355 6.4492-4.1562-5.1953c7.6523-0.26172 4.1328-1.7969 4.1562 5.1953zm222.16-2.5508c3.7305-9.0469 6.8281-10.773 15.66-14.172 7.8203 3.0938 8.7656 2.8594 13.086 10.652l-15.707 10.652zm-243.61 2.9062c-8.5039 3.9219-18.805-3.2617-15.07-12.141 7.2539-2.3633 17.668 2.4805 15.07 12.141zm34.465-4.8438c2.3398-7.6055 6.4023-11.953 14.055-15.805l11.93 9.3789-12.402 15.379zm37.914-5.4336c0.16406-6.9453 3.3789-10.301 10.039-12.473l5.668 6.3086c-4.0859 8.457-7.0625 12.211-15.707 6.1641zm-102.36 11.055c-6.4961-5.668-6.2344-7.7734-3.7578-18.023 8.668-0.80469 7.8438-1.5586 12.473 0.875-4.9609 1.6992-1.1094 1.0156-9.5195-0.89844 1.4883 9.1406 3.8047 8.3398 0.80469 18.047zm185.12-30.805c6.0938-5.6914 14.172-5.1016 23.102-5.2188 17.219-0.28516 10.82-0.58984 19.227 8.7148 4.6523 5.1484 9.1406 6.5664 14.789 11.621l-10.961 12.496c-18-4.7969-3.1172-7.6992-35.363-17.551 9.1641 28.441-18.164 14.812-24.449 3.5195l13.652-13.582zm-101.6 2.6211c6.2852-9.6367 13.203-5.9531 24.758-4.9609-2.6211 7.1562-7.1562 12.141-13.82 15.637-6.4023-2.5742-9.2852-4.418-10.938-10.676zm-77.41-0.63672c9.0234-6.9453 23.977-4.5586 36.402-5.668 15.543-1.3945 19.82-4.3711 28.605 7.9844-3.8984 8.125-8.9766 14.34-18.309 13.961-3.7305-6.7305-2.0078-2.7383-0.80469-11.316-17.316 2.2188-3.4727 4.0625-20.27-2.668 2.0078 11.219 3.1875 4.1797 6.9688 14.293-9-0.1875-7.2266-1.6758-16.867-5.6914l5.2695-11.27c-13.559 0.80469-10.535 10.062-21 0.37891zm288.23 6.7305c-9.707-9.2109-14.883-1.0859-18.922-13.699 13.512-5.0078 22.086-4.4414 33.73 3.3086 21.922 14.621 18.309 13.156 16.723 24.637l-8.8125-8.0547c-14.551 2.6445-9.3086 6.543-22.723-6.1875zm-46.844 1.8672c-8.3398-2.9531-15.875-8.2188-19.039-14.953l40.465-0.61328 13.227 14.293-16.348 12.613-11.055-6.0234c4.0859-8.5508 7.8203-4.2539 13.203-13.797-8.6445-3.707-10.441 3.5195-20.457 8.4805zm-115.56 5.2422c4.582-21.898 31.488-20.953 50.738-18.449l-18.945 13.699-13.301-6.6836 7.8672 12.164-12.969 9.1172-13.395-9.8516zm-16.277-13.844c5.6445-6.4961 12-5.0078 20.48-4.6758-3.2109 7.6992-6.0703 10.277-14.434 12.707zm-126.59 56.789c22.324 6.707 18.73-0.16406 37.984-0.80469 15.117-0.51953 31.227 0 46.512-0.21094 29.715-0.40234 61.254-2.668 90.449-1.6758 23.789 0.82812 169.46 0.73047 180.36-5.5977 5.3398-6.3555 1.418-4.9141 6.6367-12.262 4.1562-5.8594 6.3555-5.5508 10.535-11.457-11.93 0.58984-21.094 11.055-24.402-8.1016-2.125-12.285 1.9609-22.652-6.1641-32.055-8.1719 4.5586-2.7656 5.8125-9.9219 13.016-6.332-11.598 1.7969-3.9688-1.7734-13.914-16.371-2.7148-57.684 4.7461-97.301 3.2109l-204.16 1.5352c-17.715 1.0156-32.316-1.7969-33.332 18.262-0.75781 14.859-0.94531 36.543 4.582 50.055z" fill-rule="evenodd"/>
 <path d="m781.46 1025.9c12.449 6.9688 53.293 3.2344 69.188 16.371l-9.0234 1.9609c-51.707 4.3242-147.76-6.332-187.2-0.85156 55.324-1.2773 149.77 6.8984 203.43 5.7656l11.906-2.5039c-6.7578-10.961-78.969-25.938-88.301-20.738z" fill-rule="evenodd"/>
 <path d="m835.89 892.89c16.559 4.4648 51.875 0.51953 70.582-2.0312 11.738-1.6055 22.961-4.0625 34.559-6.4258 11.293-2.293 27.164-2.125 24.188-14.715-4.1562 0.046875-15.047 7.2773-24.613 9.4961-49.277 11.41-57.969 8.5977-104.71 13.676z" fill-rule="evenodd"/>
 <path d="m797.24 374.67c-3.5664-8.5508-7.418-7.4883-13.227-14.812-7.5117-9.4727-4.1328-10.867-17.48-14.102 1.7227 7.5586 14.363 30.852 30.707 28.914z" fill-rule="evenodd"/>
 <path d="m853.42 372.8c5.5508 6.6602 23.93 15.707 33.426 14.953l-24.094-16.535c-10.371-4.3008-7.2031-0.33203-9.332 1.582z" fill-rule="evenodd"/>
 <path d="m857.5 388.23c-4.4414-7.6289-4.9609-3.4961-11.48-9.1641-8.3164-7.2266-3.2617-7.9844-16.301-7.3477 3.1641 8.2695 18.684 20.055 27.781 16.512z" fill-rule="evenodd"/>
 <path d="m981.59 400.87c-1.9141-7.6992-10.18-21.449-17.195-24.613-3.1641 9.1641 9.4258 20.766 17.195 24.613z" fill-rule="evenodd"/>
 <path d="m268.77 237.5c6.5898 5.7148 11.953 3.4961 20.836 0-3.332-2.7891 5.0547-2.8594-9.2617-2.9062-7.0156-0.023438-7.0625 0.070312-11.574 2.9062z" fill-rule="evenodd"/>
 <path d="m270.45 215.22c5.8828 4.6992 4.3008 4.418 9 1.3242-8.668-9.0938-7.582-2.3164-9-1.3242z" fill-rule="evenodd"/>
</svg>
