<?xml version="1.0" encoding="UTF-8"?>
<svg width="1200pt" height="1200pt" version="1.1" viewBox="0 0 1200 1200" xmlns="http://www.w3.org/2000/svg">
 <path d="m948.8 956.12c-4.3711 8.8359-14.977 16.301-23.812 19.699 4.2773-8.6445 16.488-16.062 23.812-19.699zm0 0c3.543-8.7148 11.008-16.441 19.582-17.668-6.3086 5.7656-11.574 13.676-19.582 17.668zm-845.5-281.62c-1.7969-2.0312-1.5586-0.82812-3.1406-5.0547-1.1328-3.0703-0.40234-2.4336-0.875-4.5586l6.0703-0.26172c0.14062 7.2031 0.85156 5.0312-2.0547 9.875zm-2.0781-23.668c9.6133 7.6289 2.4805 6.6133 2.0781 7.3945-5.293-1.6992-1.6055 2.125-3.6836-2.7891-3.0469-7.2031 0.78125-3.1641 1.6055-4.6055zm-2.0781-3.332c-3.1641-6.4023 2.0312-12.707 2.0547-12.758 3.1875 16.18 3.543 10.371-2.0547 12.758zm909.09-342.19c-10.867-3.2617-10.605-10.441-17.93-18.898-4.7227-5.457-12.094-13.18-14.195-18.07 2.5273 1.6289 14.738 13.938 17.41 17.008 5.8125 6.7305 10.18 12.234 14.715 19.961zm-611.17-164.57c16.773-4.6758 30.684-11.551 48.613-16.582 18.023-5.0547 35.34-7.5352 50.906-11.977 19.629-5.5742 84.355-8.1953 107.55-9.0938l1.6289 5.1953c14.125-8.0781 68.008 0.78125 87.496 2.0312-14.621 2.293-38.125-0.875-47.551 8.7148 26.125-4.4883 70.844-6.0234 93.543 5.9766-12.758 0.56641-26.738-0.35547-39.211-0.78125-11.125-0.37891-29.34-4.4883-34.277 4.7227 8.5977-3.875 45.922-0.56641 59.41-0.58984 18.402 0 40.039-0.47266 51.852 9.7305-15.355 0.58984-63.852-5.2188-74.008 0.33203 5.8828 4.3945 56.125 2.668 68.293 3.4023 36.992 2.2422 19.441 2.2422 45 12.164 6.4961 2.5273 6.1875-0.023437 9.332 6.9219-11.668-1.9609-66.992-8.5273-74.906-3.707 10.277 7.5117 59.551 4.7227 77.41 7.4648 4.5352 0.70703 8.125 1.1797 12.188 2.3633 2.3867 0.68359 3 0.75781 4.8672 1.7461 4.3242 2.3398 1.6055 1.0859 4.2266 3.8047-9.4023-0.54297-18-2.0312-26.219-2.8125-7.6289-0.70703-19.418-2.0312-25.723 2.0312 8.5039 4.0391 22.109 1.8672 32.125 2.5977 33.188 2.4336 43.156 8.1953 68.598 30.566-3.9219 2.8828 0.11719 3-12.449 1.2031-12.781-1.8203-37.465-5.5977-47.387 0.78125 7.418 6.1875 55.676-2.6211 80.457 15.234-5.8125 2.0312-22.371-1.5117-30.805-1.9844-6.0703-0.33203-12.234-1.3945-17.977-1.7734-7.6758-0.49609-6.9922-0.16406-9 5.4805 30.684-1.0859 71.387-0.51953 84.379 21.094-16.203-2.8594-50.078-11.766-63.898-4.8906 2.5273 5.7148-2.4805 4.2539 8.9062 3.8281 19.441-0.75781 37.512 1.0391 55.961 7.1094 9.0938 3 3.9688-2.3633 13.652 6.3086-10.254 5.7656-45.262-9.875-56.645-2.1016 3.0469 5.668 17.434 3.4023 24.262 4.2266 16.938 2.0312 33.52 1.0156 43.961 12.332 6.2852 6.8047 8.8594 7.3945 12.164 14.93-13.773-3.1172-20.93-6.2344-37.723-7.9844-9.2344-0.96875-33.828-4.8906-40.488-0.54297 8.6445 7.6289 50.387 4.6992 65.242 8.8594 10.535 2.9531 8.7148 6.4023 18.117 2.4805 2.7891 8.3633 4.2031 6.2109 8.293 14.316l-65.125-9.0469c-9.1641-1.1797-11.906-3.332-16.301 1.9375 11.812 4.8906 65.293 7.8203 84.828 12.945l10.699 18.449c-11.645-2.7891-51.992-14.27-62.738-10.301 3.0234 7.6992 10.512 5.0781 20.738 6.1641l41.27 8.7891c10.016 3.5664 31.086 31.914 35.008 40.18l16.535 34.418c-12.66-2.5273-45.426-8.3398-59.434-8.0547-7.6992 0.14063-2.457-0.70703-6.707 1.9609l38.055 6.9219c32.387 3 17.953 8.0547 32.812 7.1797l15.875 44.293c-18.637-5.1484-40.605-7.1328-60.309-11.195-7.2031-1.4883-12.566-3.9453-18.402-1.3008 4.0625 5.8125 5.4102 4.6758 13.699 6.1172 65.836 11.48 66.543-4.1328 73.723 55.18l-52.203-8.4336c-12.07-2.3164-11.457-1.5586-15.781 1.3711 4.7734 7.8438 62.434 4.8906 69.426 14.598l10.82 53.148 2.293 58.652c-10.086-2.293-34.18-9.6367-42.828-5.3867 2.9766 5.3867 0.09375 3.3789 9.4492 4.8438 11.055 1.7461 23.27 2.7891 32.457 7.0156-0.023438 10.652 0.26172 11.574-2.8125 20.859l-4.3477 18.449c-1.2266 9.5195-2.8594 32.668-4.8203 39.07-6.0234 1.5352-15.613-4.3008-21.922-6.4492-4.3008-1.4883-7.7227-2.293-11.738-4.8906l-8.7383-6.4961c-0.70703 1.4648-4.4883-2.5039-0.875 5.5508 1.9844 4.3711 11.691 7.4883 16.086 9.0703 8.9062 3.1641 16.867 4.3242 24.969 8.9297-3.6602 17.551-14.195 33.613-17.031 50.363-10.441-2.2422-41.48-14.738-47.125-3.3789 19.301 2.0078 26.953 3.3555 44.102 6.8281-2.2422 14.738-8.2188 28.559-18.023 38.859-8.1953-3.875-33.164-18.402-40.797-5.9062 20.078 4.0391 17.34 1.0859 39.66 8.5039-3.5195 11.457-6.2344 14.125-10.891 22.062-6.3789-2.9766-30.023-19.629-37.086-8.8359 6.6133 4.6289 18.684 1.2539 32.738 12.52-3.2852 6.7305-9.6367 15.023-14.953 21.141-7.0391-3.1172-26.93-17.055-36.59-10.699 4.2031 6.4492 8.7656 3.4492 17.527 6.4961 6.4961 2.2422 10.676 5.4805 15.781 7.6992-13.441 49.18-39.285 4.8906-54.355 17.102 3.9453 6.6602 22.535 7.8438 30.094 11.031-2.0547 9.875-9.0938 18.355-16.371 24.141-3.6836-6.2109-8.7383-8.668-17.691-10.797-7.2539-1.7461-17.715-5.125-23.48-1.4414 3.9219 9.1172 6.0703 3.7578 20.434 6.1172 9.9922 1.6289 11.836 5.2695 19.324 7.7969l-8.1719 9.7812c-4.0391 3.7578-4.7461 4.7734-9.0938 7.4414-8.5273-4.4414-29.906-10.844-41.34-4.0156 3.1641 6.4492 23.527 2.0312 37.746 6.1406-2.7383 8.5508-20.715 22.535-27.707 26.883-6.3789-7.2266-18.094-10.961-29.293-11.078l-10.559 3.0938c2.0781 2.1953-0.1875 1.5117 3.3789 3.0703 12.66 5.5039 17.859-4.3945 33.875 8.9766-8.9297 5.457-14.715 7.4414-22.156 14.883-13.062-3.1641-42.684-14.148-51.543-2.5508 11.387 6.0703 28.277-1.8203 44.789 4.8438-1.8203 3.3789 0.35547 0.66016-2.3867 3.6602-6.707 7.2539-17.41 15.117-27 13.301-7.582-1.4414-25.062-4.9844-32.812-3.2109-7.3008 1.6523-2.8125 1.9141-3.6602 4.3242 14.242 3.7812 31.227-1.1328 42.875 7.1797-10.652 3-24.969 13.156-35.242 17.93-6.3789-6.1172-12.875-6.4727-25.039-6.332-11.527 0.16406-21.473-2.6445-25.062 4.8672 10.348 4.2266 25.488-1.8203 37.156 0.26172l8.8359 3.9219c-12.426 5.2188-18.379 5.4336-29.125 14.293-5.668-3.1641-11.242-7.1797-20.953-7.3477-2.6445-0.046875-12.141 0.09375-14.434 0.42578-11.645 1.6758-4.6992 0.66016-6.9219 5.457 11.457 1.1328 19.109-1.7227 30.613 0.70703 17.219 3.6602 7.9844 1.3477 20.906 0.11719-8.0312 6.5195-21.402 11.906-32.125 15.781-14.242 5.125-18.805 9.6836-36.355 13.746-13.582 3.1172-28.418 4.3945-42.66 7.2539-5.9062 1.1797-15.234 3.543-21.309 3.9688-8.5273 0.61328-13.039-1.9844-21.164-2.8359-2.3398 7.0625 3.9688 2.3164-5.2695 5.5742-0.40234 0.14062-8.5508 1.0859-8.8359 1.0859-6.8281-0.28516-5.5742-2.5508-16.133-1.2539l-71.859-0.47266c-10.676-1.8203-21.355-5.8828-32.387-2.4805l19.371 3.9688c-9.7305 5.6914-46.418-7.1328-54.141-11.598-23.906-13.773-22.062-9.5195-49.465-13.18 3.1875 2.6914-3.0469-0.14062 4.9844 3.3086l16.535 4.6055c-5.125 3.4492 6.5898 2.6211-6.4258 2.293-8.293-0.21094-29.883-9.8281-37.301-12.922 3.875-2.3867 3.1406-1.8203 9.2617-0.70703 5.668 1.0156 9.3789 1.7969 12.898-0.73047-19.016-6.2617-13.844-5.3164-33.473-3.5195l-2.0781-6.0234-46.961-16.961 9.4258-4.6523c-15.07-7.1094-26.27-1.7734-38.766-16.891l22.324 2.9531-11.621-6.0234c-6.0938-1.9609-5.457-1.7969-11.691-2.2188-9.875-0.68359-16.535-2.9531-22.938-9.6133 10.324-0.37891 10.652 3.2852 16.086-0.92188-9.332-4.418-10.395-4.8203-22.301-4.6289-0.30859-0.44922-0.63672-1.1094-0.82812-1.3945-3.4961-5.1719-6.5898-5.9531-12.285-8.6445 3.4023-2.5977-1.9375-1.418 6.7578-2.7891 0.16406-0.023437 6.1406 0.023438 8.125-0.1875-2.2422-2.0781 0.63672-0.92188-4.7969-3.2109-10.629-4.5117-20.48-1.3242-28.699-10.867-8.7383-10.156-23.316-17.766-30.637-29.195 7.7734 1.6523 7.1328 4.0156 12.758 1.8438-5.0547-4.8906-12.141-5.5508-17.977-7.6523-6.3086-2.293-7.5586-6.875-14.387-10.371 0.47266-0.47266 1.0859-1.0391 1.5586-1.3008l5.1484-2.4102c2.0781-0.75781 2.125 2.0078 3.3789-0.80469 0.28516-0.63672 1.0859-0.21094 1.582-0.40234-1.2031-0.68359-1.418-1.3008-4.7969-1.9844-21.426-4.2266-8.0781 3.7305-30.637-18.449 6.5898 0.51953 7.7461 3.6367 12.805 1.6523-9.1406-13.039-21.309 1.9141-37.938-33.969-4.1094-8.8828-21.094-42.262-20.906-50.836 10.629-1.4648 10.652 1.418 20.738 2.0312l-6.3086-5.4102c-6.4258-3.5195-12.969-3.2344-20.27-4.4414-3.2344-12.402-8.9297-24.781-13.016-37.371-4.5586-14.102-8.7148-24.637-12.52-36.781 8.9531-3 8.7656 0.92188 17.316 1.0391-3.0234-7.2031-12.898-6.9219-19.039-9.4492l-2.2422-20.738 18.234 0.1875c-3.1406-6.8281 3.332-4.7969-19.133-6.0703l-1.8203-29.883 9.4023-0.42578-9.3086-5.7148-1.3008-23.812c0.21094-0.046875 0.99219-0.28516 1.1562-0.33203 0.21094-0.070313 1.0859 0.046875 1.2266-0.42578 0.16406-0.51953 0.89844-0.30859 1.3008-0.49609-6.1641-9.3555-14.504-6.8984-12.805-24.332l11.906 1.5352c-4.6289-6.7812-4.7969-3.4492-12.496-8.5039l0.875-15.992c3.2852-1.6289 1.8906-0.89844 5.293-1.5586l3.9922-0.75781c0.1875-0.51953 0.92188-0.26172 1.3711-0.44922-4.0625-5.6211 0.16406-0.80469-4.6758-4.3477-4.6758-3.4258 4.1562 3.0703-2.8359-1.7227-0.30859-0.23438-1.1094-0.35547-1.3477-1.0859-2.3164-7.3242-0.26172-17.906 0.11719-26.055 6.5195-0.070313 9.707 3.0703 15.637 3.4727-2.5742-6.8281-7.3008-7.3945-13.844-12 0.21094-7.418 2.0547-10.348 2.3867-20.504l7.582-0.35547c-1.7461-6.9219-0.44922-2.4336-5.7656-8.4102l6.9453-17.836c9.6602-0.80469 4.6758 2.1953 11.668-0.21094-2.9062-5.7656-4.7969-6.1406-13.156-6.3555 1.4414-9.9922 2.9766-16.301 6.5664-23.457 4.7969-1.1328 4.4648-0.35547 7.6055-0.63672 4.1328-0.40234 2.5039 0.046875 4.8438-1.6758-6.4961-7.2539 0.14062-0.89844-5.9297-3.4492-0.44922-0.1875-1.1562-0.33203-1.582-0.49609-0.40234-0.1875-1.1562-0.54297-1.4883-0.68359-5.1484-2.2695 3.9688-17.41 5.668-21.707 7.8203 0.16406 12.898 1.6523 17.574-3.3789l-14.055-3.4961c1.9609-7.5117 4.2266-7.3945 6.6602-14.527 5.4102-15.992 15.234-39.945 24.992-54.402 16.062-23.883 3.9219-15.426 13.062-24.496 3.2617-3.2617 7.8672-11.008 11.293-11.316l17.148-1.6758c-4.1328-8.2188-8.8359-4.8906-17.34-2.5742 6.6602-9.5664 10.086-19.652 21.234-23.195 0.89844-0.28516 5.9062-2.0078 5.9766-2.0312 7.0625-1.3242 4.6758 0.11719 5.7891 0.046875 5.5742-0.40234-0.046874 1.3242 4.2031-1.4414-4.9844-6.1641-4.0391-5.1484-16.254-2.1016 4.7461-8.8594 11.41-12.52 16.699-20.27l10.938-0.14062c-2.457-4.1562-3.3555-3.2617-7.7461-5.4336l-3.4961-2.1016c8.2695-4.0859 14.812-12.707 28.277-11.27-3.1641-6.9688 1.7734-1.2031-5.7891-6.6602 3.1875-3.8047 7.7461-10.039 13.371-13.203l14.34-3.0469c2.3164-0.046876 2.0547 0.070312 3.543-0.44922-4.2031-8.6211-0.1875-1.8438-8.1953-6.2617l19.891-14.906c4.0156-4.1797 1.6758-6.4727 9.0234-7.8438 7.6523-1.418 7.1797 1.5117 13.18 1.0625-2.2188-8.3398-5.3398-3.7305-12.875-7.5117 2.0312-1.9375 2.4805-2.7656 5.0781-4.5352 2.1953-1.5117 1.6992-0.85156 4.1094-2.4102 6.332-4.1094 10.277-4.3242 17.316-3.543 0.33203-0.37891 0.75781-0.94531 0.96875-1.1562l3.0703-3.2852c1.0625-0.96875 2.4336-1.9609 3.4961-2.6914 33.922-23.34 32.645-19.914 71.48-30.379l-8.5508-3.9453zm251.05-39.875c1.1562-0.66016-0.80469-1.0625 3.8516-1.3242 5.1953-0.28516 3.7305 1.2266 3.9453 2.1719l-7.7969-0.85156zm-557.84 481.96c5.1484 7.582 3.3555 2.1016 4.3008 10.418-0.1875 0.070312-0.54297 0-0.58984 0h-3.8281c-0.96875 30.707 3.0938 62.434 9.0234 92.504 2.8828 14.691 4.1328 26.504 9.1875 40.488 4.8672 13.488 17.125 65.527 23.48 74.219l9.1172 16.133c4.8203 16.652 16.914 33.164 23.102 49.723 5.3633 14.293 0.09375 5.8594 10.133 14.812 6.0703 5.3867 5.1953 7.1094 7.1562 15.875 15.59-1.1562 19.086 21.852 25.605 28.699 4.8906 5.1016 10.82 8.5977 16.254 13.039 4.9141 4.0156 8.8359 8.0781 14.195 12.805 25.938 22.938 33.285 31.465 64.156 50.551 5.2422 3.2344 23.102 12.969 26.078 17.738 5.1719 8.3164-4.3477 1.4648 6.0469 8.5508 10.891 7.3945 24.117 13.629 36.496 19.961 42.234 21.52 84.922 31.559 130.11 43.109 30.781 7.8672 129.9 12.262 159.71 6.1406 23.766-4.8672 75.828-11.645 94.582-20.031 21.473-9.5898 30.426-2.7891 52.512-18.094 10.512-7.3008 25.582-11.031 32.387-19.844 6.5898-8.5039 21.969-12.805 31.109-17.41l25.984-17.766c6.2852-4.1562 2.3633-1.8672 6.332-5.9531 8.4805-8.7383 47.008-26.34 90.188-82.984l13.582-15.805c4.7461-4.6758 6.4258-10.418 10.914-16.109 5.0078-6.3555 7.0859-11.527 11.551-17.621 4.3008-5.8828 7.8203-11.551 11.836-17.457 7.6055-11.172 13.109-23.48 20.93-35.41 6.0938-9.3086 6.0703-13.488 9.6367-19.301 3.4492-5.5977 7.8438-6.4961 11.812-17.574 5.5977-15.52 9.5195-26.668 13.18-42.637l9.4492-48.922c4.0156-38.293 8.3633-65.363 5.0312-106.11-2.8125-34.301-1.8438-68.148-13.227-99.309l-11.906-44.195c-3.2109-13.559-21.945-53.738-27.023-60.707-9.8984-13.629-17.457-30.828-27.66-43.301l-28.465-42.285c-15.758-25.133-81.047-78.047-108.02-94.535-8.3867-5.125-9.2617-8.0547-13.512-13.254-6.8281-8.3164-11.102 0.30859-18.117-11.363-6.0234-9.9922-17.008-11.668-26.645-17.34-9.1641-5.4102-1.582-2.6914-7.2773-7.3711-5.1953-4.2773-14.645-3.4023-21.992-5.0781-22.844-5.1953-50.715-20.527-62.953-24.613l-117.14-24.758c-8.7383-0.75781-20.102-0.92188-27.402 1.9375-14.293 5.6211-58.109 4.4414-75.805 7.3477-18.023 2.9766-33 6.0469-49.109 9.2852-43.867 8.8359-18.094 4.3008-43.891 12.805-20.293 6.6836-34.227 10.371-52.324 20.504-21.805 12.211-46.086 20.457-66.898 33.355-18.613 11.551-47.219 35.48-63.309 51.52-5.6445 5.6211-8.8594 8.668-14.598 14.504l-25.109 31.301c-5.9531 7.8906-6.7305 9.3789-11.008 18.141-5.5039 11.242-16.82 22.773-23.219 32.977-14.598 23.34-25.227 52.203-36.969 77.836-27.969 61.156-39.141 112.98-47.172 180.85z" fill-rule="evenodd"/>
 <path d="m591.61 657.92c5.2188-2.3633 11.008-1.9141 18.047-1.3242-5.6914 4.1562-11.055 5.7383-18.047 1.3242zm285.14-33.922c5.457 2.457 6.4492 2.3398 8.0781 7.7969l-13.844 1.7734c2.2695-4.5117 3.0938-5.668 5.7656-9.5664zm-20.195 0.94531 12.992 8.7383c-4.418 0.94531-6.9219 1.2031-10.984 0.99219-15.828-0.89844-6.8047-5.5273-2.0078-9.7305zm-102.12 6.7578c1.1094-2.1953 0-1.6758 2.8828-4.1797 2.9297-2.5508 1.2539-0.99219 3.6836-2.5977l6.2109 6.9453-12.781-0.16406zm78.898-9.1172c4.9375 2.5039 8.125 5.7891 10.441 12.094-14.598 0.68359-16.109-1.5586-10.441-12.094zm-47.102-1.5352c4.9844 0.35547 4.3711-0.63672 8.293 3.1641 3.9219 3.8047 2.4805 6.1875 2.2188 7.2031-1.2031 0.42578-0.63672 1.582-4.1094 0.70703-9.8984-2.4805-6.5664-9.1641-6.4023-11.078zm-71.125 3.4961s-2.1484-7.7969 7.6758 0c-1.1797 0.56641-0.28516 1.2773-3.7578 1.0859-3.9453-0.1875-2.3633-0.49609-3.9219-1.0859zm97.699-3.875c5.8594 1.9609 11.27 6.6133 14.551 13.914-30.969 1.9141-16.488-8.5977-16.488-8.6211 2.0312-5.1484-1.5117-0.47266 1.9375-5.293zm69.922-0.09375c4.2031-7.0859 3.8984-6.332 9.3789-8.8359 9 6.7305 3.9453 8.3398 14.316 16.465l-15.852 2.3633zm-15.66 5.5273-6.4258-5.2695c4.5586-6.4023 2.6445-5.457 8.5273-9.332l6.3086 6.4727c-3.3555 5.4336-3.707 5.2188-8.4102 8.125zm-30.852-9.8984 5.5039-6.8516c8.6211 4.0156 9.875 5.5977 10.723 13.109l-4.2266 4.0859c-9.8281-1.418-7.2539-4.2539-12-10.348zm-75.117 0.51953c11.102-5.668 20.363 13.371 10.465 11.41-1.6289-0.33203-3.6602-2.0781-4.8906-3.2852-2.8594-2.7383-4.0156-5.9531-5.5742-8.125zm-15.543 11.93-7.0625-6.5664 7.5352-12.023 7.8203 8.0312zm-50.621-10.371c0.070313-1.582 3.707-5.9766 2.1719-0.37891-0.89844 3.3086-2.2422 1.6289-2.1719 0.37891zm24.613-3.8281c6.9453 0.30859 6 1.8672 9.707 5.9531 4.4648 4.9375 5.8359 4.6289 9.8281 7.8438-7.3008-0.21094-15.449-8.2188-19.535-13.797zm215.5 5.7148 1.8438-5.4102c0.14062-0.37891 0.30859-1.0625 0.49609-1.4414l3.1406-4.7969c5.293 2.2695 5.2422 1.9844 8.457 8.1719l-13.938 3.4727zm-27.852-0.023437 12.047-10.203c5.7891 5.2422 7.8906 5.5273 10.938 13.133-9 0.96875-15.047 4.582-20.48 1.1562l7.6992-6.9922zm-84.141-9.7305 6.0938 5.457-3.4258 6.4258c-6.7305-2.8594-2.9062-1.0156-8.1016-6.1641l5.4336-5.7148zm-22.773-4.7734c4.5586 2.8828 5.8125 4.8203 10.559 7.7734-2.668 7.3008-2.7383 5.8828-8.457 10.984l-11.691-8.8828c3.0234-3.4727 5.6445-7.3242 9.5898-9.875zm-100.72 6.1406c0.16406-0.09375 1.1562-6.4258 8.5508 0.54297 3.9688 3.7578 4.3242 2.7891 0.35547 9.5898-0.68359-0.21094-5.5508 0.54297-8.7891-8.457-0.14062-0.35547 0.23438-1.0859-0.11719-1.6758zm254.53 2.0078c5.8828-5.0547 7.4414-10.227 12.922-9.875 9.6836 0.63672 6.5664 3.9219 7.4414 4.8203zm-71.668-16.82 5.8125 8.5039-10.582 9.4492c-3.1172-5.1719-5.0078-5.2422-3.6836-10.301 1.4648-5.6914 4.6289-5.8594 8.457-7.6523zm-36.543 9.0234c3.543-6.9219 4.8203-6.9453 12.852-10.629l7.2266 9.9688-8.8359 10.488zm-97.676-0.23438 5.6445-5.7383c0.92188 1.2266 3.6133 4.6289 4.4414 6.2109 0.26172 0.49609 1.0156 2.0312 1.1328 2.5039 0.75781 3.5664 0.11719 1.6289-0.68359 3.4258-4.5352 1.7734-6.8984-2.6211-10.535-6.4023zm-14.102 8.8828-9.3555-4.0156c3.3789-8.2695 4.8906-8.125 10.582-12.637l5.3398 7.3945-6.5664 9.2617zm189.21-8.8828c6.1406-6.0469 7.3008-8.3164 14.008-3.2344-1.9375 5.1953-4.6523 7.3008-10.133 9.8047l-3.875-6.5664zm-22.844 8.8828c-8.6914-10.039-0.68359-13.156 6.2617-16.844l7.8438 7.2539c-2.1016 1.9609-3.1641 3.0703-5.4805 5.125-7.8203 6.8984 0.66016 2.8125-8.6211 4.4648zm-72.781-6.8047c1.6992-5.457 1.6289-6.5898 9.3555-7.3242 1.2539 7.9609-1.2031 13.016-9.3555 7.3242zm-13.465-13.961c3.875 11.008 8.4336 8.3398 0.68359 16.156-5.9531-2.9297-7.7461-5.0078-10.676-10.938 2.8594-2.8125 4.6289-3.2852 9.9922-5.2188zm119.24-0.63672c1.2539-0.56641 0.80469-1.2266 4.4883-1.4414l9.4023 2.457c3.9453 1.5117 8.9766 3 13.062 5.2422-1.2773 1.7969-0.37891 1.0625-2.6445 3.2109l-8.5273 6.2617c-4.8438-4.1562-4.1094-1.9844-3.2109-8.9062-8.3867-0.80469-8.668-2.1484-12.566-6.8281zm-271.46 21.188c2.9062-9.6367-4.0859 3.4023 2.1016-5.1953 2.9062-4.0156 68.883-24.211 76.039-25.723 5.3633-1.1328 8.3164-1.0391 14.836-1.8672l35.293-5.3633c4.8203-0.44922 11.551 0.51953 19.109-0.49609 41.691-5.5273 37.844 9.7812 54.285 3.6836 6.0703-2.2422-3.4727-1.9844 6.4492-2.0312 0.85156 0 8.0547 0.89844 9.4258 1.0625 5.7656 0.75781 11.598 2.0547 17.766 3.1172 6.1641 1.0625 11.977 1.8672 17.789 3.0938 2.0312 0.42578 6.8516 1.6992 8.1719 2.5039 4.3711 2.668 3.6133 3.707 4.9141 6.0234-3.6836 6.707-2.9766 4.1797-8.9297 7.418l-16.699-13.441c-3.6367 7.7969 4.6289 6.7305-10.441 14.41-7.1328-5.125-6.3555-4.9844-6.7578-14.031-10.016-0.11719-5.668 0.875-10.301 7.5117-3.0703 4.3945-2.668 2.9531-5.8828 4.9375-7.8672-7.9609-9.4492-5.293-2.8828-12.355l-9.8516-2.5273c-3.4492 7.8203-7.3477 10.582-14.41 13.938-0.16406-0.23438-1.9375-2.9531-2.457-3.5664l-4.1094-3.8984c-0.28516-0.23437-1.2773-0.92187-1.7734-1.418-2.9766 5.1719 1.3945 2.9766-10.441 10.797-4.9844-2.8594-3.2852-2.5273-5.5508-4.3711-2.9531-2.3867-0.92188-1.4648-4.8672-2.8594 2.125-4.9141 2.1953-3.5664 3.5195-8.2422-4.7227 1.8672-6 2.7656-9.707 5.7656-10.582 8.5742-7.4883 4.1562-10.723 2.3633 0.33203 9.2852-3.707 12.945-10.348 17.645l-11.148-8.3398c2.2422 8.3867 0.78125 3.8047 5.1719 9.2617 6.6836 8.2422-0.44922 10.723-11.527-2.293 8.0078-12.211 22.18-20.457 25.746-29.48-12.07 0.63672-20.457 17.195-31.844 25.582l-4.9375-8.6211c4.8906-4.6289 6.9922-4.1562 9.1641-9.6602-9.6602 0.63672-16.82 8.7891-22.395 13.18l-5.8594-4.8906 5.0547-6.2617c-9.6602-2.293-15.684 7.3945-20.621 13.086-5.9297-1.8906-0.58984-0.63672-8.3867-4.4883 2.3164 9.875 4.6758 17.977-7.582 7.3711 3.4727-7.3477 1.9375-0.54297 3.4258-7.0859l-11.457 0.70703c-0.09375 9.707-5.0078 9.5898-8.1719 17.125-8.7891 0-18.355-1.0391-28.203-2.0781zm-81.613-60.828c1.4414 1.2266 1.0156 1.8438 3.9453 2.9062 3.4727 1.3008 2.2422 0.58984 5.2188 1.0859 5.0547 0.85156 5.8594 0.75781 11.457 1.9375-1.8438 4.1094-2.8828 6.4961-3 12.637l17.953 7.1094c3.6133 1.6992 9.707 12.73 25.652 10.039 3.9688-0.66016 2.8359-0.94531 5.0312-2.3398-10.324-7.8672-12.945 1.9609-20.457-8.3398 9.0703-3.4023 10.418 2.1719 13.605-5.9531-15.898-0.30859-22.844-2.7383-36.188-6.4492 5.1484-3.1406-8.9062-3.4492 15.07 0.28516 6.4492 1.0156 13.348 0.85156 19.867 0.51953 9.707 12.449-2.668 3 11.293 11.055l0.58984 13.039c-8.3164 4.1328-12.922 5.0781-21.969 2.9297-7.3945-1.7227-13.82-5.8125-19.371-2.9062 5.7891 8.3633 17.363 4.418 26.434 10.418-11.387 6.2344-10.039-3.3789-19.395 2.1016 5.2695 5.4336 23.195 10.227 25.535-0.046875 1.4883-6.6367-1.2266 0.40234 0.023437-3.2109 13.301-2.5508 3.6602-0.51953 7.4414 1.1562-1.8672 13.844-1.3242 7.5117-8.668 10.984-0.26172 0.11719-0.85156 0.30859-1.0391 0.44922-0.1875 0.11719-0.61328 0.54297-0.75781 0.70703l-1.1328 3.4258c-5.4805-0.44922-9.1641-0.99219-14.48-1.7969-9.2109-1.3711-5.5977-2.2695-8.3867 3.7305l22.605 5.125c-7.418 10.062-16.109 4.1328-24.07 3.2344 1.7227 12.496 10.203 6.5664 19.016 6.2344l5.3633 1.3008c-13.535 8.8359-25.844-0.875-36.969-1.6758 0.73047 10.629 8.2188 5.6914 17.551 9.7305l-19.961 3.6133c9.1406 4.9375 18.992 1.8203 29.148 0.046875-2.1016 2.5508 0.63672 1.6523-4.7734 4.6992l-50.363 3.1641c-14.645-2.5039-12.707-4.2539-19.039-14.574-2.7383-4.4648-3.543-5.3633-5.9062-10.746-7.8672-18.094-9.3086-49.676 9.6133-66.566 8.3398-7.4648 10.395-7.1562 20.977-12.496 5.9297-3 22.039-1.1797 28.039 1.3477-8.0312 5.4805-17.102-1.5352-25.512 2.0781zm50.219-32.93c1.1797-5.5977 2.1484-10.395 3.9453-15.875 2.5508-7.7734 1.3711-8.1484 10.156-10.062l2.0312 19.371zm-1.4883 5.7656c12.59-4.5586 25.938-15.355 37.652-16.582-2.4336 8.4336-11.316 16.062-18.285 21.355-9.0234 6.875-10.984 12.262-21.188 16.797-2.0312-6.6367-2.5508-4.8672-2.3633-12.969 2.3398 2.8125 1.0391-1.582 3.4258 6.2344zm21.355-23.738 5.2695 6.6133c-8.457 0.1875-4.7969 2.5039-5.2695-6.6133zm15.211-14.836 7.4883 11.977c-3.332 2.9531-6.1641 5.1953-12.707 5.8594-6.1875-5.2422-7.8906-5.8125-7.9609-16.559l10.062-5.1719c1.3008 1.3945 1.4648 1.3945 3.1172 3.8984zm-18.637-12.66c0.94531 11.125 2.7383 10.254-6.6133 13.535zm4.5586 7.4883c-1.0859-11.738-2.9766-13.488 6.7812-16.559 2.0547 2.668 1.0859-0.49609 2.9062 5.7383 0.82812 2.9062 0.56641 4.0156 0.94531 6.6836l-10.629 4.1328zm37.629-9.2852c-3.7305-5.9766-4.8438-15.211-3.7305-23.645 7.3008 1.4648 2.6445-2.8594 6.2344 3.9922 4.3008 8.1953 1.7227 14.27-2.5039 19.652zm-14.148 19.441c-4.7461-5.0078-5.3633-5.9531-6.6836-12.898l13.062-5.1016c-3.6367-2.5742 5.3164-3.0469-7.0156-1.5586-2.1016 0.23438-5.125 1.2539-8.3398 1.6758l-2.293-11.883 15.449-8.2695c6.5664 14.293 7.4414 30.379-4.1797 38.031zm-26.715-27.355c1.0391-7.4414 4.8438-13.086 7.2031-18.758 5.293 6.4258 2.1953 5.5508 4.0859 12.543l-11.293 6.2109zm14.598-22.938c8.9297 4.3945 5.4336-1.5586 15.684-3.2344 0.99219 9.5898 1.9844 8.2422-5.125 12.684-3.4258 2.125-6.2617 3.543-10.324 4.7969l-0.23438-14.242zm25.086-1.8672c-0.16406 9.1641 0.75781 0.40234-2.5508 4.5117-1.5117-1.8203-2.9297 4.1562-2.7383-6.2617 0.23437-11.031-1.0156-0.023438 2.7383-4.9844 1.1328 1.7969 2.7383-3.2852 2.5508 6.7305zm3.1406-10.18c4.2266-3.5664 8.8828-7.1797 15.188-9.0938l1.7461 3.5898c2.0312 5.4102 3.8516 10.016 0.28516 17.93-8.9766 19.867-5.5508 12.707-10.371 14.977-5.3867-10.301-3.5664-8.9297 2.1719-12.805l-9.0234-14.598zm-28.348 10.914c1.7969-7.3008 7.0156-13.418 12.234-17.504l2.5977 9.543c-6.3555 2.5742-8.7656 4.0625-14.836 7.9609zm22.629-22.699c0.14062 0.61328 0.40234 2.8594 0.37891 3.543-0.33203 11.102-0.37891 3.3555-2.4336 6.7305-0.11719-0.1875-3.3555-2.0078-2.9062-8.7891 0.42578-6.3789 0.92187-3.4023 2.9062-5.7148 0.30859 0.51953 1.4414 1.2539 2.0547 4.2266zm21.047-13.844c-0.070312 11.457 2.1953 9.1875-5.3633 13.844-5.0781 3.1172-6.4258 3.8984-11.527 5.3164l-0.63672-12.852zm-14.691 0.09375c1.3242-5.7383 0.80469-4.3008 5.457-8.5508 3.4727-3.1875 5.0781-4.0391 9.0469-6.1172-0.70703 12.285-3.8516 11.172-14.504 14.668zm16.844-8.3398c0.63672-12.52 10.395-17.766 21.285-21.852-1.8438 9.5195-2.0781 40.844-15.234 54-1.3008-2.668-2.7891-2.5273-1.6055-7.7734l3.4023-7.1797c-8.7383-3.5195-6.4492-1.0156-6.3789-12.898l12.66-3.8047c-2.4805-1.8906 0.56641-1.3711-4.1094-2.0312l-10.016 1.5352zm-69.781 154.89c5.4805-6.875 15.141-10.746 20.645-17.645 2.7656-3.4727 0.42578-1.8672 4.5117-5.7891 1.6055-1.5586 2.7891-2.125 4.5117-3.8281 2.5273-2.4805 6.0703-6.8516 8.6445-10.18l23.434-33.023c19.699-39.543 25.629-49.746 37.039-94.227 1.7969-7.0156 11.621-23.715-1.4883-22.797-17.48 1.2539-22.914 13.797-35.41 21.473l-21.637 15.73c-8.4102 8.4805-17.527 21.922-23.078 33.094-9.4961 19.086-15.684 30.141-23.859 51.117-3.6367 9.3555-7.3945 17.906-10.348 27.496-4.7734 15.543 1.2773 16.535-2.293 29.172-11.789-1.2539-41.457-3.4961-49.676 2.293-18.684 13.203-35.883 27.047-38.812 55.109-2.1719 20.859 13.629 43.844-0.09375 58.324-3.0469 3.2344-7.0156 5.0781-10.891 7.8438-18.047 12.781-33.566 29.27-50.551 43.324-2.5039 2.1016-1.7734 1.0391-3.4727 2.8828-0.28516 0.30859-0.68359 0.80469-0.94531 1.1328-13.156 15.875-57.094 47.195-76.867 65.008-4.4414 3.9688-5.9297 5.3398-10.156 8.6211l-9.3555 9.3086c-10.797 9.0703-21.52 15.496-29.906 26.574-4.8906 6.4961-1.418 5.1016-10.254 8.3633 0.44922 0.30859 1.0625 0.73047 1.3711 0.92188l9.1172 4.9375 38.195-32.219c8.7656-6.8047 9.5195-12.613 17.457-17.977 15.707-10.676 81.426-70.773 94.156-79.18 10.109-6.6602 10.961-7.8672 18.852-16.488 5.1719-5.6445 15.59-10.535 20.527-15.047 7.7461-7.0625-1.9844 1.0391 2.1953-4.7461 4.6523-6.4492 1.1094-0.63672 3.332-1.418 7.0156-2.457 0.99219-3.9922 10.086-5.3398 3.5898-0.51953 7.7227 1.3711 14.316 1.3242 5.7148-0.046875 11.055-1.1562 14.766-1.2539 28.891-0.70703 29.195 11.387 64.559-14.691 7.3477-5.4336 3.1875-3.4023 7.8906-8.9531 2.8594-3.4023 1.0859-0.68359 4.2031-4.0859 1.9375-2.1484 2.125-2.7148 3.332-4.6992l7.5117-9.9453c15.047 5.457 45.637 4.7734 56.363 13.984 10.301-6.5898 11.953-2.457 21.852-0.023438 18.875 4.6055 97.203 9.543 113.84 8.4102 44.172-3.0234 63.402-7.3242 102.66-19.512 6.8516-2.125 5.3398-2.457 12.07-5.3164 9.0469 0.73047 5.293 2.0547 12.59 2.5039 2.6914 0.16406 9.332-0.49609 12.449-0.61328 7.418 1.7227 3.0234 6.6602 23.691 7.6992l-7.3008-6.9219 21.023 0.33203c4.2031-0.85156 2.2695-0.85156 4.2266-2.2188-10.395-5.9297-25.559-0.82813-37.086-2.5977l-11.125-3.6602 11.906-6.0703c-7.8203-8.9766-54.637-27.52-72.637-30.781-12.047-2.1719-34.652-6.9922-45.309-7.0156-9.1875 0-14.789 2.0781-25.203 0.92187-24.379-2.6914-43.535-1.3477-68.812-0.09375-15.047 0.75781-30.66 3.3555-45.898 5.1719-35.883 4.2539-21.758 5.0312-42.211 10.371-33.402 8.7148-18.355 6.5664-37.086 13.938-2.457-4.3008-0.070313 3.0469-2.2188-5.2695l-1.7227-10.652c-3.4258-13.156-12.188-23.457-17.621-33.094z" fill-rule="evenodd"/>
 <path d="m881.15 759.64 9.6836 10.465c3.543 4.5352 5.1953 5.6914 9 9.4492 6.5664 6.4961 11.906 10.254 18.402 17.055 5.9297 6.2109 11.363 12.781 17.172 18.262 5.2695 5.0078 3.0703 2.6445 6.9688 3.5664 0.68359 0.16406 3.0234 0.28516 3.707 0.44922 10.133 2.4805 5.2695 7.6758 14.527 1.7734-1.3711-4.3945-0.78125-2.8359-4.3945-5.5273l-14.031-11.148c-5.0781-4.6992-6.4258-4.7734-10.324-8.457-3.5664-3.3555-4.582-4.6289-8.6211-8.1016-8.5977-7.3945-23.293-25.867-42.094-27.781z" fill-rule="evenodd"/>
 <path d="m253.68 434.69c-35.219-17.293-12.805-1.5352-32.363-19.938-9.8281-9.2344-9.7578-3.2344-9.8516-3.2109-5.8594 11.836 2.8594 8.0312 11.195 16.254 9.4023 9.2617 0.66016 1.1328 11.387 7.6289 1.3945 0.85156 4.5352 3.4023 5.9062 4.5586 5.8125 4.9844 4.2773 3.9922 11.527 7.8438l4.3008-5.1953 9.8516 4.8438c-6.0469 4.3711-3.0469-0.21094-5.8125 5.9297 10.961 1.3008 28.371 8.3867 35.055 8.0078-1.8672-4.6758-3.8281-4.6055-9.2852-8.6445l-31.914-18.07z" fill-rule="evenodd"/>
 <path d="m371.36 238.32c-7.3711-6.0234 2.7383-0.26172-2.0781-0.89844 0.21094 9.9453 26.789 50.953 33.898 62.195 5.1484 8.125 18.59 28.652 26.645 27.613-2.8828-10.441-43.559-57.992-48.781-87.805-5.2422 1.2539-5.0547 2.1016-7.6289 1.0625-1.7734-0.70703 1.2539 0.54297-2.0547-2.1719z" fill-rule="evenodd"/>
 <path d="m887.48 459.4c14.789-1.6523 15.234-3.332 23.008-10.488 7.3945-6.8281 11.551-4.7461 20.195-13.203 15.211-14.883 31.227-18.211 38.434-26.27l-6.0469-6.1172c-5.0781 1.0156-51.566 35.102-59.055 41.242-13.891 11.48-14.293 5.2422-16.535 14.836z" fill-rule="evenodd"/>
 <path d="m163.49 624.54c6.1875 2.6914 4.1797 0.96875 12.047-0.80469 6.5898-1.4883 5.9766-0.58984 13.254-0.23438 10.062 0.49609 19.512-0.94531 29.387-0.56641 10.109 0.35547 43.277 3.2617 51.141-2.5742-5.4805-4.8203-4.7227-1.0859-12.969-3.0469-4.4414-1.0625-3.4961-2.6445-11.055-3.332l-73.82 3.4258c-6.5898 2.7148-5.8594 2.5742-7.9844 7.1328z" fill-rule="evenodd"/>
 <path d="m236.86 809.32c4.9609-4.0625 3.1641-4.3477 9.0938-8.7891l49.938-33.473c8.0547-6.0938 16.016-6.5195 16.133-17.195-9.9219 1.3242-4.3945 1.4414-11.434 7.2539l-33 19.156c-11.316 7.0156-34.723 18.969-38.977 30.07l8.2422 2.9766z" fill-rule="evenodd"/>
 <path d="m382.06 963.4c6.1875 0.11719 6.6133-2.1719 10.348-5.9766 4.418-4.5117 3.9688-4.9844 8.3164-8.4805 11.41-9.1406 3.8047-7.7734 14.645-20.738 4.0391-4.8203 5.9531-5.1484 9.6836-9.1172 8.3398-8.8359 15.852-25.156 16.227-34.156-6.875 3.543-4.7227 4.1094-9.0938 10.039-2.3164 3.1406-4.8906 6.2109-7.1328 9.4727-5.2188 7.5352-10.227 12.402-15.59 19.961-5.2188 7.3945-9.4492 12.094-15.637 19.82-13.086 16.277-12.898 10.82-11.766 19.18z" fill-rule="evenodd"/>
 <path d="m604.02 989.74c-0.61328-13.016 4.4414-37.605-6.1406-44.504-0.37891 0.40234-0.68359 1.1094-0.75781 1.4414-0.09375 0.33203-0.49609 1.0625-0.56641 1.4648-0.070312 0.37891-0.16406 1.0625-0.21094 1.4883l-0.42578 17.031c-2.9297 26.621-1.0625 22.867 1.3711 46.18 2.3867 22.938-2.4805 16.844 4.7734 20.527 1.4648-2.1484 1.2773-0.28516 2.1016-4.2539 1.8438-8.9766 0.26172-31.441-0.14062-39.379z" fill-rule="evenodd"/>
 <path d="m771.05 905.88c-1.6992-6.1641-1.9375-9-12.613-15.73l-3.0234 2.2695 30.332 70.133c1.8672 3.8516 1.3477 4.2539 2.2695 6.0703 1.4648 2.8828 0.58984 2.1953 3.7578 4.5586 3.1875 2.3867-0.14062 0.14062 3.1406 1.0391l-7.1797-22.039c-2.8125-8.8828-5.9297-14.41-9.1172-22.371-2.457-6.1641-5.8125-17.574-7.5586-23.93z" fill-rule="evenodd"/>
 <path d="m755.93 322.11c13.203-5.4336 16.746-25.086 25.605-35.527l25.277-33.402c-3.4258-6.4258-1.582-4.0625-6.5195-7.0391l-6.1641 11.242c-5.9766 13.488-36.426 47.078-38.195 64.723z" fill-rule="evenodd"/>
 <path d="m1010.4 383.64c-10.418-1.0859-35.93-7.3711-41.93-1.1094l8.293 2.668c2.6914 0.40234 6.3555 0.47266 9.1641 0.75781l52.254 5.5742c0.09375 0.23438 0.070313 0.63672 0.09375 0.70703l2.0078 4.9141c8.4102-0.75781 5.4805 0.68359 9.707-4.2031-6.7812-8.3398-27.52-8.0312-39.59-9.3086z" fill-rule="evenodd"/>
 <path d="m599.32 261.68c-2.457-25.109 0.28516-12.52-0.58984-33.59l0.85156-33.07c0.61328-8.7656 0.16406-7.6523-1.6992-11.008-8.8125 4.6055-4.3008 29.27-3.707 44.031 0.54297 14.055-1.2539 23.977 1.9141 37.371l1.7969 7.1562 1.4414-10.891z" fill-rule="evenodd"/>
 <path d="m999.95 366.57c-10.324-1.8906-29.621-8.4805-35.93-4.5352 5.668 6.6602 22.867 7.2539 33.828 8.9531 6.7812 1.0391 12 1.9844 18.992 3.5898 15.07 3.4961 4.2773 0.30859 13.016 6.9453 8.9297-1.7734 4.1562 0.61328 7.582-4.9375-8.125-6.9688-25.465-7.8438-37.488-10.016z" fill-rule="evenodd"/>
 <path d="m1069.5 483-49.227-9.7812c0.11719 6.2109-2.5977 5.0078 6.8984 7.7969l44.41 6.8281c1.0859 1.6055 0.16406 0.28516 0.96875 2.3398l0.70703 1.8906c0.023438-0.26172 0.23438 0.70703 0.44922 1.3242l9.0469-1.5117c-1.4648-5.9297 3.4023-6.4727-13.254-8.8828z" fill-rule="evenodd"/>
 <path d="m961.23 342.47c3.0938 3.6836-5.457 2.3867 6.8984 5.9297l28.016 5.1953c32.055 4.9609 25.535 11.527 32.836 5.9766-3.5664-9-22.652-9.0469-32.172-10.723-10.418-1.8438-25.844-6.8047-35.574-6.3789z" fill-rule="evenodd"/>
 <path d="m1058.7 426.73c-9.6836-2.668-41.242-8.4102-48.023-7.3008 4.3477 4.1328-8.5742 3.707 25.746 8.6445 42.496 6.0703 18.805 6.0703 31.559 11.953l4.0156-5.3398c-2.9062-4.4414-1.9375-4.8438-13.301-7.9609z" fill-rule="evenodd"/>
 <path d="m1034.6 549.43c5.8359 4.2773 21.828 5.3398 30.117 6.7305 16.016 2.7148 23.293 6.7578 26.738 6.9688-0.73047-6.1172-1.8906-6.3086-10.348-8.5742-10.891-2.9531-39.023-10.676-46.512-5.125z" fill-rule="evenodd"/>
 <path d="m1030.6 526.96c1.5586 1.8906-2.125 2.293 4.1094 4.4648l24.211 4.1094c23.668 3.6602 19.676 9.1641 26.527 5.2422-7.7734-8.1953-40.512-14.789-54.852-13.82z" fill-rule="evenodd"/>
 <path d="m814.84 190.58c9.875 6.2109 25.062 4.7227 37.418 6.2852 11.906 1.4648 30.211 5.5742 36.875 2.125-29.148-6.2109-35.219-4.7734-57.781-7.7227-3.4961-0.47266-6.9219-1.5586-9.3789-1.9609-13.844-2.2695-3.6367-1.2031-7.1328 1.2773z" fill-rule="evenodd"/>
 <path d="m1055.6 574.46c3.2617 3.875 43.277 14.551 43.324 14.551-1.7227-5.3867-1.8203-6.0469-8.457-8.6445-3.1172-1.2266-8.1016-2.3164-11.195-3.0703-7.8438-1.9375-17.195-5.9062-23.668-2.8359z" fill-rule="evenodd"/>
 <path d="m1058.9 601.58c6.3086 4.3242 13.582 5.0547 21.188 6.2344 11.93 1.8672 12.379 4.7227 21.707 7.3008-4.4648-13.016-13.348-10.371-31.676-14.574-12.59-2.9062-7.9609-1.7227-11.219 1.0391z" fill-rule="evenodd"/>
 <path d="m1053.4 649.82c5.3398 6.0469 3.8984 7.1562 20.457 9.1406 9.2617 1.1328 16.371 4.7461 23.125 6.7305-0.82812-6.6836-0.40234-6.4492-7.7227-8.6914z" fill-rule="evenodd"/>
 <path d="m1090.1 687.31c-1.5352-15.73-39.496-12.758-39.637-12.684 1.7461 1.2773-2.5273 3.6133 9.1172 5.4102 7.2266 1.1094 14.008 0.28516 21.852 3.5664z" fill-rule="evenodd"/>
 <path d="m1059.1 742.49c8.4805 0.47266 12.566 3.5195 19.348 5.5977-1.4883-4.0625-0.73047-5.8359-7.4883-8.2695-4.6758-1.6992-30.211-7.6523-33.117 8.2695 6.4961-2.5273 10.961-6.1641 21.262-5.5977z" fill-rule="evenodd"/>
 <path d="m705.14 1066.8c5.8828 4.4414 33.922 1.6758 40.605 0-4.418-2.6914-25.723-2.5039-33.285-2.457-10.488 0.070312-5.293 0.47266-7.3242 2.457z" fill-rule="evenodd"/>
 <path d="m1028.2 783.09c6.7578 6.0234 9.3086-0.26172 23.738 7.1562 3.875 2.0078 1.5117 1.9609 6.2344 2.3867-0.96875-10.961-22.254-14.738-29.977-9.543z" fill-rule="evenodd"/>
 <path d="m150.38 754.94c-2.1953-7.4883-15.188-11.953-23.977-7.3008 1.2266 2.5508-4.2539 4.2539 3.9453 5.9766 8.1953 1.7227-3.3086-0.35547 6.6602-1.1328 5.5039-0.42578 8.9766 1.4883 13.371 2.457z" fill-rule="evenodd"/>
 <path d="m172.63 854.03c3.4492 7.4883 2.3867 3.0938 12.141 6.1641 5.7148 1.7969 5.3398 3.1172 12.117 4.3711-3.2852-7.3945-17.316-15.188-24.262-10.535z" fill-rule="evenodd"/>
 <path d="m666.9 1075.2c4.8672 7.0156-0.80469 2.8828 23.668 3.1172-4.2539-3.9453-2.8125-3.9922-11.457-4.8672-13.961-1.3945-11.008 0.80469-12.211 1.7461z" fill-rule="evenodd"/>
 <path d="m155.55 785.2c-5.0078-5.0312-11.883-7.9609-18.852-9.9922 0.16406 9.0703-3.5898 5.1484 7.4883 8.9297 16.652 5.6914 8.457 2.6211 11.363 1.0625z" fill-rule="evenodd"/>
 <path d="m439.63 132.16c1.8203 1.2539-0.85156 1.7461 4.6289 1.2031l22.062-3.2852c-1.9609-1.8438 5.457-5.9766-13.914-1.6055-3.707 0.82813-8.4805 1.6992-12.781 3.6836z" fill-rule="evenodd"/>
 <path d="m176.1 369.64c-6.3789-4.3477-14.574-5.5039-15.449 5.668z" fill-rule="evenodd"/>
 <path d="m171.57 839.32c-2.7383-6.6602-7.3242-8.0078-12.332-6.1406 3.543 5.9297-1.9844 6.8281 12.332 6.1406z" fill-rule="evenodd"/>
 <path d="m149.34 403.39c3.2109 3.3086 5.2695 5.3398 11.387 2.0781-1.5352-1.9375-1.4414-3.6367-5.457-4.3477-10.156-1.7969-4.1562 0.73047-5.9297 2.2695z" fill-rule="evenodd"/>
 <path d="m177.31 348.61c4.5117 2.5508 3.2617 3.0938 9.4023 0.54297-0.94531-2.1484-1.1797-5.9766-6.0234-5.3633-3.4727 0.44922-2.6445 1.4648-3.3789 4.8203z" fill-rule="evenodd"/>
</svg>
